<?xml version="1.0" encoding="utf-8"?>
<!-- Generator: Adobe Illustrator 16.0.0, SVG Export Plug-In . SVG Version: 6.00 Build 0)  -->
<!DOCTYPE svg PUBLIC "-//W3C//DTD SVG 1.1//EN" "http://www.w3.org/Graphics/SVG/1.1/DTD/svg11.dtd">
<svg version="1.1" id="Layer_1" xmlns="http://www.w3.org/2000/svg" xmlns:xlink="http://www.w3.org/1999/xlink" x="0px" y="0px"
	 width="300px" height="300px" viewBox="0 0 300 300" enable-background="new 0 0 300 300" xml:space="preserve">
<rect x="10.614" y="11.508" fill="#FFFFFF" stroke="#70737F" stroke-width="3" stroke-miterlimit="10" width="278.386" height="276.726"/>
<g>
	
		<rect x="132.548" y="185.918" transform="matrix(-0.7071 0.7071 -0.7071 -0.7071 405.9895 243.6278)" fill="none" stroke="#404459" stroke-width="2" stroke-miterlimit="10" width="39.971" height="39.973"/>
	
		<rect x="122.555" y="175.925" transform="matrix(-0.7071 0.7071 -0.7071 -0.7071 405.9883 243.6359)" fill="none" stroke="#404459" stroke-width="2" stroke-miterlimit="10" width="59.956" height="59.958"/>
	<polygon fill="none" stroke="#404459" stroke-width="2" stroke-miterlimit="10" points="97.099,205.904 152.532,150.464 
		207.967,205.904 152.532,261.337 	"/>
	<polygon fill="#404459" points="95.285,195.219 140.148,150.351 146.427,156.637 101.565,201.502 	"/>
	<polygon fill="#404459" points="157.284,257.218 202.146,212.35 208.424,218.636 163.562,263.501 	"/>
</g>
<g>
	<path fill="#404459" d="M41.448,60.266h4.559l-2.764,19.982h7.491l-0.525,4.15H38.152L41.448,60.266z"/>
	<path fill="#404459" d="M67.254,59.658c3.313,0,6.047,1.067,8.203,3.199c2.155,2.133,3.231,4.84,3.231,8.12
		c0,2.517-0.636,4.886-1.911,7.112c-1.274,2.226-2.969,3.934-5.085,5.126s-4.547,1.789-7.292,1.789
		c-3.435,0-6.178-1.018-8.227-3.052c-2.051-2.034-3.077-4.714-3.077-8.038c0-3.773,1.225-7.016,3.675-9.729
		C59.505,61.168,63,59.658,67.254,59.658z M67.09,63.941c-1.729,0-3.307,0.418-4.733,1.254c-1.427,0.837-2.579,2.041-3.454,3.61
		c-0.875,1.569-1.312,3.191-1.312,4.863c0,1.98,0.606,3.659,1.821,5.036c1.214,1.379,2.958,2.067,5.233,2.067
		c2.635,0,4.875-0.929,6.717-2.789c1.843-1.858,2.764-4.116,2.764-6.775c0-2.198-0.648-3.959-1.944-5.282
		S69.189,63.941,67.09,63.941z"/>
	<path fill="#404459" d="M105.248,64.771l-3.773,2.45c-1.094-1.247-2.149-2.113-3.167-2.601c-1.017-0.486-2.171-0.729-3.461-0.729
		c-2.789,0-5.058,1.121-6.808,3.363c-1.389,1.782-2.083,3.762-2.083,5.938c0,2.145,0.713,3.943,2.141,5.398
		c1.427,1.455,3.185,2.182,5.273,2.182c1.553,0,2.967-0.375,4.241-1.127c1.274-0.752,2.316-1.88,3.126-3.385h-7.53l0.559-4.281
		h12.205c-0.175,3.992-1.425,7.161-3.749,9.507s-5.285,3.519-8.882,3.519c-3.916,0-6.995-1.357-9.237-4.069
		c-1.804-2.177-2.706-4.769-2.706-7.776c0-3.664,1.32-6.83,3.961-9.499s5.789-4.003,9.441-4.003c1.356,0,2.68,0.198,3.97,0.593
		s2.455,0.947,3.495,1.661C103.301,62.623,104.296,63.578,105.248,64.771z"/>
	<path fill="#404459" d="M123.687,59.658c3.313,0,6.047,1.067,8.203,3.199c2.155,2.133,3.231,4.84,3.231,8.12
		c0,2.517-0.636,4.886-1.911,7.112c-1.274,2.226-2.969,3.934-5.085,5.126s-4.547,1.789-7.292,1.789
		c-3.435,0-6.178-1.018-8.227-3.052c-2.051-2.034-3.077-4.714-3.077-8.038c0-3.773,1.225-7.016,3.675-9.729
		C115.938,61.168,119.433,59.658,123.687,59.658z M123.523,63.941c-1.729,0-3.307,0.418-4.732,1.254
		c-1.428,0.837-2.579,2.041-3.454,3.61s-1.312,3.191-1.312,4.863c0,1.98,0.606,3.659,1.821,5.036
		c1.214,1.379,2.958,2.067,5.233,2.067c2.635,0,4.875-0.929,6.717-2.789c1.843-1.858,2.764-4.116,2.764-6.775
		c0-2.198-0.648-3.959-1.944-5.282S125.622,63.941,123.523,63.941z"/>
	<path fill="#404459" d="M150.248,60.266h3.826c3.584,0,6.251,0.424,7.998,1.271c1.751,0.847,3.171,2.18,4.268,3.995
		c1.093,1.815,1.643,3.91,1.643,6.283c0,2.439-0.584,4.678-1.747,6.717c-1.166,2.041-2.635,3.528-4.405,4.462
		c-1.771,0.936-4.232,1.403-7.383,1.403h-7.497L150.248,60.266z M154.224,64.515l-2.126,15.666h1.492
		c2.294,0,3.955-0.191,4.981-0.574c1.44-0.547,2.598-1.481,3.472-2.805c0.873-1.323,1.311-2.959,1.311-4.906
		c0-1.595-0.307-2.933-0.92-4.011c-0.616-1.076-1.481-1.908-2.601-2.494c-1.12-0.584-2.609-0.876-4.47-0.876H154.224z"/>
	<path fill="#404459" d="M173.479,60.266h12.974l-0.555,4.281h-8.419l-0.694,4.987h8.465l-0.55,4.25h-8.502l-0.888,6.397h8.56
		l-0.55,4.216h-13.139L173.479,60.266z"/>
	<path fill="#404459" d="M203.479,63.628l-3.298,2.92c-1.354-1.75-2.618-2.625-3.789-2.625c-0.579,0-1.06,0.172-1.444,0.518
		c-0.382,0.344-0.572,0.756-0.572,1.238c0,0.449,0.174,0.946,0.523,1.493c0.35,0.547,1.412,1.756,3.185,3.626
		c0.94,0.995,1.557,1.699,1.852,2.116c0.712,0.961,1.224,1.861,1.536,2.697c0.31,0.837,0.466,1.688,0.466,2.552
		c0,1.935-0.688,3.56-2.065,4.873c-1.38,1.312-3.145,1.969-5.3,1.969c-3.28,0-5.956-1.559-8.021-4.676l3.478-2.805
		c1.399,2.132,2.916,3.198,4.544,3.198c0.775,0,1.43-0.25,1.962-0.754c0.529-0.503,0.795-1.111,0.795-1.821
		c0-0.558-0.162-1.127-0.485-1.707c-0.321-0.579-1.244-1.674-2.763-3.281c-1.608-1.695-2.665-2.975-3.168-3.839
		c-0.677-1.17-1.016-2.318-1.016-3.445c0-1.487,0.486-2.822,1.461-4.002c1.224-1.477,2.876-2.216,4.953-2.216
		C199.166,59.658,201.556,60.981,203.479,63.628z"/>
	<path fill="#404459" d="M208.519,60.266h4.432l-3.381,24.132h-4.349L208.519,60.266z"/>
	<path fill="#404459" d="M238.948,64.771l-3.772,2.45c-1.093-1.247-2.149-2.113-3.167-2.601c-1.016-0.486-2.17-0.729-3.46-0.729
		c-2.792,0-5.06,1.121-6.81,3.363c-1.389,1.782-2.083,3.762-2.083,5.938c0,2.145,0.715,3.943,2.141,5.398s3.185,2.182,5.273,2.182
		c1.554,0,2.968-0.375,4.241-1.127c1.272-0.752,2.317-1.88,3.124-3.385h-7.53l0.559-4.281h12.205
		c-0.174,3.992-1.424,7.161-3.746,9.507c-2.326,2.346-5.285,3.519-8.884,3.519c-3.917,0-6.995-1.357-9.237-4.069
		c-1.805-2.177-2.708-4.769-2.708-7.776c0-3.664,1.322-6.83,3.964-9.499c2.641-2.668,5.788-4.003,9.442-4.003
		c1.354,0,2.679,0.198,3.969,0.593s2.456,0.947,3.494,1.661C237.002,62.623,237.997,63.578,238.948,64.771z"/>
	<path fill="#404459" d="M246.311,60.266h3.955l8.701,16.405l2.242-16.405h4.423l-3.283,24.132h-3.868l-8.817-16.586l-2.268,16.586
		h-4.348L246.311,60.266z"/>
	<path fill="#404459" d="M94.29,103.946l-3.298,2.92c-1.356-1.75-2.62-2.625-3.79-2.625c-0.58,0-1.062,0.172-1.443,0.518
		c-0.383,0.344-0.574,0.757-0.574,1.238c0,0.448,0.175,0.946,0.525,1.493s1.41,1.756,3.182,3.626
		c0.94,0.995,1.559,1.699,1.854,2.116c0.71,0.962,1.222,1.862,1.533,2.698c0.313,0.837,0.469,1.688,0.469,2.551
		c0,1.936-0.69,3.56-2.068,4.873c-1.377,1.312-3.143,1.969-5.298,1.969c-3.281,0-5.955-1.56-8.022-4.676l3.477-2.805
		c1.4,2.132,2.915,3.198,4.545,3.198c0.776,0,1.43-0.25,1.959-0.754c0.531-0.503,0.796-1.111,0.796-1.821
		c0-0.559-0.161-1.127-0.483-1.707c-0.322-0.579-1.244-1.673-2.764-3.28c-1.608-1.695-2.663-2.975-3.166-3.839
		c-0.678-1.17-1.017-2.318-1.017-3.445c0-1.487,0.486-2.822,1.459-4.002c1.225-1.477,2.877-2.216,4.954-2.216
		C89.976,99.975,92.365,101.299,94.29,103.946z"/>
	<path fill="#404459" d="M99.227,100.583h12.977l-0.555,4.282h-8.421l-0.691,4.987H111l-0.551,4.25h-8.503l-0.888,6.397h8.56
		l-0.547,4.216H95.93L99.227,100.583z"/>
	<path fill="#404459" d="M117.24,100.583h4.19c2.587,0,4.409,0.225,5.463,0.673c1.315,0.557,2.307,1.331,2.975,2.32
		c0.67,0.99,1.004,2.163,1.004,3.518c0,1.672-0.498,3.106-1.49,4.304c-0.994,1.196-2.494,2.029-4.502,2.5l5.253,10.818h-4.69
		l-5.152-10.532h-0.37l-1.448,10.532h-4.53L117.24,100.583z M120.464,110.229c2.452-0.01,4.047-0.265,4.788-0.762
		c0.739-0.498,1.109-1.244,1.109-2.239c0-0.57-0.149-1.044-0.445-1.428c-0.297-0.383-0.726-0.651-1.286-0.804
		c-0.561-0.153-1.7-0.23-3.415-0.23L120.464,110.229z"/>
	<path fill="#404459" d="M133.758,100.583h4.419l4.317,17.422l9.341-17.422h4.872l-12.917,24.132h-4.05L133.758,100.583z"/>
	<path fill="#404459" d="M159.813,100.583h4.432l-3.382,24.132h-4.348L159.813,100.583z"/>
	<path fill="#404459" d="M189.964,103.707l-3.298,3.058c-0.711-0.819-1.582-1.449-2.608-1.892c-1.027-0.442-2.144-0.664-3.348-0.664
		c-1.684,0-3.298,0.431-4.84,1.294s-2.742,2.005-3.602,3.425c-0.855,1.42-1.287,2.933-1.287,4.54c0,2.184,0.755,4.001,2.266,5.449
		c1.51,1.448,3.445,2.171,5.806,2.171c2.528,0,4.715-0.732,6.563-2.197l2.673,3.526c-2.745,1.935-5.921,2.904-9.531,2.904
		c-2.537,0-4.695-0.482-6.472-1.444c-1.776-0.963-3.205-2.376-4.281-4.241s-1.617-3.885-1.617-6.062c0-2.33,0.64-4.563,1.912-6.701
		c1.273-2.138,3-3.823,5.176-5.054c2.178-1.229,4.55-1.846,7.119-1.846C184.205,99.975,187.326,101.219,189.964,103.707z"/>
	<path fill="#404459" d="M195.313,100.583h12.974l-0.555,4.282h-8.419l-0.694,4.987h8.465l-0.55,4.25h-8.502l-0.888,6.397h8.56
		l-0.55,4.216h-13.139L195.313,100.583z"/>
	<path fill="#404459" d="M225.314,103.946l-3.298,2.92c-1.354-1.75-2.618-2.625-3.789-2.625c-0.579,0-1.06,0.172-1.444,0.518
		c-0.382,0.344-0.572,0.757-0.572,1.238c0,0.448,0.174,0.946,0.523,1.493c0.351,0.547,1.412,1.756,3.186,3.626
		c0.939,0.995,1.556,1.699,1.851,2.116c0.712,0.962,1.224,1.862,1.536,2.698c0.31,0.837,0.466,1.688,0.466,2.551
		c0,1.936-0.688,3.56-2.065,4.873c-1.38,1.312-3.145,1.969-5.3,1.969c-3.28,0-5.956-1.56-8.021-4.676l3.478-2.805
		c1.399,2.132,2.916,3.198,4.544,3.198c0.775,0,1.43-0.25,1.962-0.754c0.529-0.503,0.795-1.111,0.795-1.821
		c0-0.559-0.162-1.127-0.485-1.707c-0.321-0.579-1.244-1.673-2.763-3.28c-1.608-1.695-2.664-2.975-3.168-3.839
		c-0.677-1.17-1.016-2.318-1.016-3.445c0-1.487,0.486-2.822,1.461-4.002c1.224-1.477,2.876-2.216,4.953-2.216
		C221.001,99.975,223.391,101.299,225.314,103.946z"/>
</g>
<rect x="32.624" y="35.71" fill="#404459" width="238.461" height="6.912"/>
</svg>
