<?xml version="1.0" encoding="utf-8"?>
<!-- Generator: Adobe Illustrator 16.0.0, SVG Export Plug-In . SVG Version: 6.00 Build 0)  -->
<!DOCTYPE svg PUBLIC "-//W3C//DTD SVG 1.1//EN" "http://www.w3.org/Graphics/SVG/1.1/DTD/svg11.dtd">
<svg version="1.1" id="Layer_1" xmlns="http://www.w3.org/2000/svg" xmlns:xlink="http://www.w3.org/1999/xlink" x="0px" y="0px"
	 width="300px" height="300px" viewBox="0 0 300 300" enable-background="new 0 0 300 300" xml:space="preserve">
<g>
	<rect x="10.613" y="11.637" fill="#FFFFFF" width="278.387" height="276.726"/>
	
		<rect x="10.613" y="11.637" fill="none" stroke="#70737F" stroke-width="3" stroke-miterlimit="10" width="278.387" height="276.726"/>
</g>
<rect x="27.75" y="27.632" fill="none" stroke="#404459" stroke-width="2" stroke-miterlimit="10" width="241.387" height="6.912"/>
<g>
	<path fill="none" stroke="#404459" stroke-width="2" stroke-miterlimit="10" d="M188.834,267.167c0,5.521-4.006,10-8.945,10
		h-66.435c-4.94,0-8.945-4.479-8.945-10V121.833c0-5.523,4.005-10,8.945-10h66.435c4.939,0,8.945,4.477,8.945,10V267.167z"/>
	<path fill="none" stroke="#404459" stroke-width="2" stroke-miterlimit="10" d="M188.834,261.56c0,5.121-4.006,9.273-8.945,9.273
		h-66.435c-4.94,0-8.945-4.152-8.945-9.273V126.774c0-5.122,4.005-9.274,8.945-9.274h66.435c4.939,0,8.945,4.152,8.945,9.274V261.56
		z"/>
</g>
<g>
	<path d="M137.584,176.381h1.512c0.918,0,1.566,0.08,1.944,0.24c0.467,0.199,0.821,0.477,1.063,0.832
		c0.241,0.355,0.362,0.771,0.362,1.248c0,0.523-0.142,0.997-0.424,1.421c-0.283,0.424-0.662,0.732-1.137,0.926
		s-1.267,0.298-2.374,0.313l-0.5,3.639h-1.624L137.584,176.381z M138.728,179.838c0.877-0.004,1.45-0.096,1.718-0.275
		s0.402-0.447,0.402-0.803c0-0.199-0.052-0.367-0.157-0.504s-0.259-0.232-0.464-0.287s-0.611-0.082-1.219-0.082L138.728,179.838z"/>
	<path d="M148.67,177.582l-1.178,1.043c-0.484-0.625-0.936-0.938-1.354-0.938c-0.207,0-0.379,0.062-0.516,0.185
		s-0.205,0.271-0.205,0.442c0,0.16,0.063,0.338,0.188,0.533s0.504,0.627,1.137,1.295c0.336,0.355,0.557,0.607,0.662,0.756
		c0.254,0.344,0.437,0.665,0.548,0.964s0.167,0.603,0.167,0.911c0,0.691-0.246,1.271-0.738,1.74s-1.123,0.703-1.893,0.703
		c-1.172,0-2.127-0.557-2.865-1.67l1.242-1.002c0.5,0.762,1.041,1.143,1.623,1.143c0.277,0,0.511-0.09,0.7-0.27
		s0.284-0.396,0.284-0.65c0-0.199-0.058-0.402-0.173-0.609s-0.444-0.598-0.987-1.172c-0.574-0.605-0.951-1.063-1.131-1.371
		c-0.242-0.418-0.363-0.828-0.363-1.23c0-0.531,0.174-1.008,0.521-1.43c0.438-0.527,1.027-0.791,1.77-0.791
		C147.129,176.164,147.982,176.637,148.67,177.582z"/>
	<path d="M150.539,176.381h1.366c1.28,0,2.233,0.151,2.857,0.454s1.132,0.778,1.523,1.427s0.587,1.396,0.587,2.244
		c0,0.871-0.208,1.671-0.624,2.399s-0.94,1.26-1.573,1.594S153.164,185,152.039,185h-2.678L150.539,176.381z M151.959,177.898
		l-0.759,5.596h0.532c0.819,0,1.412-0.068,1.779-0.205c0.516-0.195,0.929-0.529,1.24-1.002c0.313-0.473,0.469-1.057,0.469-1.752
		c0-0.57-0.109-1.048-0.329-1.433s-0.529-0.682-0.929-0.891c-0.4-0.209-0.933-0.313-1.597-0.313H151.959z"/>
	<path d="M132.829,190.781h1.365l2.147,8.619h-1.57l-0.457-1.834h-3.419l-0.98,1.834h-1.741L132.829,190.781z M133.917,196.043
		l-0.689-2.839l-1.518,2.839H133.917z"/>
	<path d="M138.785,190.781h1.512c0.918,0,1.566,0.08,1.944,0.24c0.467,0.199,0.821,0.477,1.063,0.832
		c0.241,0.355,0.362,0.771,0.362,1.248c0,0.523-0.142,0.997-0.424,1.421c-0.283,0.424-0.662,0.732-1.137,0.926
		s-1.267,0.298-2.374,0.313l-0.5,3.639h-1.624L138.785,190.781z M139.929,194.238c0.877-0.004,1.45-0.096,1.718-0.275
		s0.402-0.447,0.402-0.803c0-0.199-0.052-0.367-0.157-0.504s-0.259-0.232-0.464-0.287s-0.611-0.082-1.219-0.082L139.929,194.238z"/>
	<path d="M145.506,190.781h1.512c0.918,0,1.566,0.08,1.944,0.24c0.467,0.199,0.821,0.477,1.063,0.832
		c0.241,0.355,0.362,0.771,0.362,1.248c0,0.523-0.142,0.997-0.424,1.421c-0.283,0.424-0.662,0.732-1.137,0.926
		s-1.267,0.298-2.374,0.313l-0.5,3.639h-1.624L145.506,190.781z M146.649,194.238c0.877-0.004,1.45-0.096,1.718-0.275
		s0.402-0.447,0.402-0.803c0-0.199-0.052-0.367-0.157-0.504s-0.259-0.232-0.464-0.287s-0.611-0.082-1.219-0.082L146.649,194.238z"/>
	<path d="M155.52,190.781h1.612l-0.722,5.32c-0.063,0.465-0.094,0.793-0.094,0.984c0,0.324,0.102,0.577,0.303,0.759
		s0.493,0.272,0.877,0.272c0.309,0,0.578-0.068,0.809-0.205c0.172-0.102,0.31-0.271,0.413-0.507s0.204-0.706,0.302-1.409
		l0.713-5.215h1.631l-0.697,5.145c-0.145,1.059-0.334,1.818-0.568,2.279s-0.574,0.812-1.018,1.052s-0.982,0.36-1.619,0.36
		c-0.859,0-1.53-0.229-2.011-0.686s-0.721-1.082-0.721-1.875c0-0.344,0.047-0.852,0.141-1.523L155.52,190.781z"/>
	<path d="M163.189,190.781h1.583l-1.208,8.619h-1.553L163.189,190.781z"/>
</g>
<g>
	<path d="M48.86,47.425h2.613l4.11,16.498h-3.006l-0.875-3.51h-6.545l-1.876,3.51H39.95L48.86,47.425z M50.942,57.496l-1.319-5.434
		l-2.905,5.434H50.942z"/>
	<path d="M60.26,47.425h2.895c1.758,0,2.999,0.153,3.721,0.46c0.894,0.381,1.572,0.912,2.034,1.592
		c0.462,0.681,0.693,1.477,0.693,2.389c0,1.002-0.271,1.908-0.811,2.72c-0.541,0.811-1.267,1.402-2.177,1.772s-2.425,0.57-4.544,0.6
		l-0.957,6.965h-3.107L60.26,47.425z M62.449,54.042c1.68-0.007,2.776-0.183,3.289-0.527c0.513-0.344,0.769-0.856,0.769-1.537
		c0-0.381-0.1-0.703-0.3-0.964c-0.2-0.262-0.497-0.445-0.889-0.549c-0.393-0.105-1.17-0.157-2.333-0.157L62.449,54.042z"/>
	<path d="M73.124,47.425h2.895c1.758,0,2.999,0.153,3.721,0.46c0.894,0.381,1.572,0.912,2.034,1.592
		c0.462,0.681,0.693,1.477,0.693,2.389c0,1.002-0.271,1.908-0.811,2.72c-0.541,0.811-1.267,1.402-2.177,1.772s-2.425,0.57-4.544,0.6
		l-0.957,6.965H70.87L73.124,47.425z M75.313,54.042c1.68-0.007,2.776-0.183,3.289-0.527c0.513-0.344,0.769-0.856,0.769-1.537
		c0-0.381-0.1-0.703-0.3-0.964c-0.2-0.262-0.497-0.445-0.889-0.549c-0.393-0.105-1.17-0.157-2.333-0.157L75.313,54.042z"/>
	<path d="M92.291,47.425h3.086l-1.38,10.184c-0.12,0.89-0.18,1.518-0.18,1.884c0,0.621,0.192,1.104,0.578,1.452
		c0.385,0.348,0.944,0.521,1.677,0.521c0.591,0,1.107-0.131,1.549-0.393c0.329-0.194,0.593-0.518,0.792-0.97
		c0.198-0.452,0.391-1.352,0.578-2.697l1.364-9.981h3.121l-1.334,9.848c-0.277,2.026-0.64,3.48-1.088,4.362
		c-0.449,0.882-1.098,1.553-1.946,2.013c-0.849,0.459-1.883,0.689-3.102,0.689c-1.645,0-2.928-0.438-3.847-1.312
		c-0.92-0.875-1.38-2.071-1.38-3.589c0-0.658,0.09-1.63,0.269-2.916L92.291,47.425z"/>
	<path d="M106.972,47.425h3.029l-2.311,16.498h-2.973L106.972,47.425z"/>
	<path d="M119.97,47.425h2.895c1.758,0,2.999,0.153,3.721,0.46c0.894,0.381,1.572,0.912,2.034,1.592
		c0.462,0.681,0.693,1.477,0.693,2.389c0,1.002-0.271,1.908-0.811,2.72c-0.541,0.811-1.267,1.402-2.177,1.772s-2.425,0.57-4.544,0.6
		l-0.957,6.965h-3.107L119.97,47.425z M122.159,54.042c1.68-0.007,2.776-0.183,3.289-0.527c0.513-0.344,0.769-0.856,0.769-1.537
		c0-0.381-0.1-0.703-0.3-0.964c-0.2-0.262-0.497-0.445-0.889-0.549c-0.393-0.105-1.17-0.157-2.333-0.157L122.159,54.042z"/>
	<path d="M141.189,49.724l-2.254,1.996c-0.927-1.196-1.791-1.794-2.59-1.794c-0.396,0-0.726,0.118-0.987,0.354
		c-0.262,0.235-0.392,0.518-0.392,0.847c0,0.307,0.119,0.646,0.359,1.021c0.239,0.374,0.964,1.2,2.175,2.479
		c0.643,0.681,1.065,1.163,1.268,1.447c0.486,0.658,0.835,1.273,1.048,1.845c0.213,0.572,0.32,1.153,0.32,1.744
		c0,1.323-0.471,2.434-1.413,3.331c-0.942,0.897-2.149,1.346-3.623,1.346c-2.243,0-4.071-1.065-5.484-3.196l2.378-1.918
		c0.957,1.458,1.992,2.187,3.106,2.187c0.531,0,0.978-0.172,1.34-0.516c0.362-0.344,0.544-0.759,0.544-1.245
		c0-0.381-0.11-0.77-0.331-1.167c-0.221-0.396-0.851-1.144-1.89-2.243c-1.099-1.159-1.821-2.033-2.165-2.624
		c-0.463-0.8-0.695-1.585-0.695-2.355c0-1.017,0.333-1.929,0.998-2.736c0.837-1.009,1.966-1.514,3.387-1.514
		C138.239,47.01,139.873,47.915,141.189,49.724z"/>
	<path d="M144.767,47.425h2.614c2.451,0,4.274,0.29,5.47,0.869c1.195,0.58,2.168,1.49,2.916,2.731
		c0.749,1.241,1.123,2.673,1.123,4.295c0,1.667-0.397,3.198-1.194,4.593c-0.796,1.395-1.8,2.411-3.011,3.05
		c-1.212,0.639-2.894,0.959-5.047,0.959h-5.125L144.767,47.425z M147.483,50.33l-1.452,10.71h1.019c1.568,0,2.704-0.131,3.406-0.393
		c0.986-0.374,1.777-1.013,2.375-1.918c0.598-0.904,0.896-2.022,0.896-3.353c0-1.092-0.21-2.006-0.63-2.742
		s-1.014-1.305-1.778-1.705c-0.766-0.4-1.784-0.6-3.055-0.6H147.483z"/>
	<path d="M167.275,47.425h2.615c2.45,0,4.273,0.29,5.469,0.869c1.196,0.58,2.168,1.49,2.917,2.731
		c0.748,1.241,1.123,2.673,1.123,4.295c0,1.667-0.398,3.198-1.194,4.593c-0.797,1.395-1.8,2.411-3.012,3.05
		c-1.211,0.639-2.894,0.959-5.047,0.959h-5.125L167.275,47.425z M169.993,50.33l-1.452,10.71h1.02c1.567,0,2.703-0.131,3.405-0.393
		c0.985-0.374,1.777-1.013,2.375-1.918c0.597-0.904,0.896-2.022,0.896-3.353c0-1.092-0.21-2.006-0.63-2.742
		s-1.013-1.305-1.778-1.705s-1.784-0.6-3.055-0.6H169.993z"/>
	<path d="M183.156,47.425h8.871l-0.38,2.927h-5.757l-0.474,3.409h5.787l-0.377,2.905h-5.813l-0.607,4.374h5.852l-0.374,2.882h-8.983
		L183.156,47.425z"/>
	<path d="M203.669,49.724l-2.255,1.996c-0.927-1.196-1.791-1.794-2.591-1.794c-0.396,0-0.725,0.118-0.986,0.354
		c-0.262,0.235-0.393,0.518-0.393,0.847c0,0.307,0.119,0.646,0.358,1.021s0.965,1.2,2.176,2.479
		c0.644,0.681,1.065,1.163,1.268,1.447c0.486,0.658,0.836,1.273,1.049,1.845c0.213,0.572,0.319,1.153,0.319,1.744
		c0,1.323-0.471,2.434-1.413,3.331c-0.942,0.897-2.149,1.346-3.622,1.346c-2.243,0-4.071-1.065-5.484-3.196l2.377-1.918
		c0.957,1.458,1.993,2.187,3.107,2.187c0.53,0,0.978-0.172,1.34-0.516c0.362-0.344,0.544-0.759,0.544-1.245
		c0-0.381-0.11-0.77-0.331-1.167c-0.221-0.396-0.851-1.144-1.89-2.243c-1.099-1.159-1.82-2.033-2.164-2.624
		c-0.464-0.8-0.695-1.585-0.695-2.355c0-1.017,0.332-1.929,0.998-2.736c0.837-1.009,1.966-1.514,3.387-1.514
		C200.719,47.01,202.353,47.915,203.669,49.724z"/>
	<path d="M207.111,47.425h3.03l-2.312,16.498h-2.973L207.111,47.425z"/>
	<path d="M227.915,50.505l-2.579,1.675c-0.748-0.853-1.469-1.445-2.165-1.778c-0.695-0.333-1.483-0.499-2.366-0.499
		c-1.906,0-3.458,0.767-4.654,2.299c-0.949,1.219-1.424,2.572-1.424,4.06c0,1.466,0.487,2.696,1.463,3.69
		c0.977,0.995,2.178,1.492,3.606,1.492c1.062,0,2.027-0.257,2.898-0.771s1.583-1.285,2.137-2.313h-5.147l0.381-2.927h8.345
		c-0.12,2.729-0.975,4.896-2.563,6.499c-1.589,1.604-3.613,2.406-6.073,2.406c-2.677,0-4.782-0.927-6.314-2.781
		c-1.233-1.488-1.851-3.26-1.851-5.316c0-2.504,0.903-4.669,2.709-6.493s3.957-2.737,6.454-2.737c0.927,0,1.832,0.135,2.714,0.405
		c0.882,0.27,1.679,0.648,2.389,1.135C226.585,49.037,227.265,49.689,227.915,50.505z"/>
	<path d="M232.95,47.425h2.703l5.949,11.215l1.533-11.215h3.021l-2.242,16.498h-2.646l-6.028-11.338l-1.549,11.338h-2.974
		L232.95,47.425z"/>
	<path d="M104.212,77.287l-2.254,1.996c-0.927-1.196-1.791-1.794-2.59-1.794c-0.396,0-0.726,0.118-0.987,0.354
		c-0.262,0.235-0.392,0.518-0.392,0.847c0,0.307,0.119,0.646,0.359,1.021c0.239,0.374,0.964,1.2,2.175,2.479
		c0.643,0.681,1.065,1.163,1.268,1.447c0.486,0.658,0.835,1.273,1.048,1.845c0.213,0.572,0.32,1.153,0.32,1.744
		c0,1.323-0.471,2.434-1.413,3.331c-0.942,0.897-2.149,1.346-3.623,1.346c-2.243,0-4.071-1.065-5.484-3.196l2.378-1.918
		c0.957,1.458,1.992,2.187,3.106,2.187c0.531,0,0.978-0.172,1.34-0.516c0.362-0.344,0.544-0.759,0.544-1.245
		c0-0.381-0.11-0.77-0.331-1.167c-0.221-0.396-0.851-1.144-1.89-2.243c-1.099-1.159-1.821-2.033-2.165-2.624
		c-0.463-0.8-0.695-1.585-0.695-2.355c0-1.017,0.333-1.929,0.998-2.736c0.837-1.009,1.966-1.514,3.387-1.514
		C101.263,74.572,102.896,75.477,104.212,77.287z"/>
	<path d="M107.588,74.987h8.871l-0.38,2.927h-5.756l-0.473,3.409h5.787l-0.377,2.905h-5.813l-0.607,4.374h5.852l-0.375,2.882h-8.983
		L107.588,74.987z"/>
	<path d="M119.902,74.987h2.865c1.769,0,3.014,0.153,3.734,0.459c0.899,0.381,1.578,0.91,2.035,1.586s0.686,1.478,0.686,2.404
		c0,1.144-0.339,2.125-1.019,2.943s-1.705,1.388-3.078,1.709l3.591,7.395h-3.208l-3.521-7.2h-0.253l-0.99,7.2h-3.097L119.902,74.987
		z M122.106,81.582c1.676-0.007,2.767-0.181,3.273-0.521c0.505-0.34,0.759-0.851,0.759-1.531c0-0.389-0.102-0.714-0.305-0.976
		c-0.203-0.262-0.496-0.445-0.879-0.549c-0.384-0.105-1.162-0.157-2.334-0.157L122.106,81.582z"/>
	<path d="M131.196,74.987h3.02l2.953,11.911l6.385-11.911h3.332l-8.831,16.498h-2.769L131.196,74.987z"/>
	<path d="M149.006,74.987h3.029l-2.311,16.498h-2.973L149.006,74.987z"/>
	<path d="M169.619,77.124l-2.254,2.09c-0.486-0.56-1.081-0.992-1.783-1.294c-0.703-0.303-1.466-0.454-2.288-0.454
		c-1.151,0-2.254,0.295-3.309,0.885c-1.054,0.59-1.875,1.371-2.462,2.342s-0.88,2.005-0.88,3.104c0,1.494,0.516,2.735,1.548,3.725
		c1.031,0.99,2.354,1.485,3.97,1.485c1.728,0,3.223-0.501,4.486-1.503l1.828,2.411c-1.877,1.324-4.049,1.985-6.517,1.985
		c-1.734,0-3.209-0.329-4.424-0.987c-1.215-0.658-2.191-1.625-2.928-2.899c-0.736-1.274-1.104-2.656-1.104-4.144
		c0-1.592,0.436-3.12,1.307-4.581c0.871-1.462,2.051-2.613,3.538-3.455c1.488-0.841,3.11-1.262,4.868-1.262
		C165.683,74.572,167.817,75.423,169.619,77.124z"/>
	<path d="M173.276,74.987h8.871l-0.38,2.927h-5.757l-0.474,3.409h5.787l-0.377,2.905h-5.813l-0.607,4.374h5.852l-0.374,2.882h-8.983
		L173.276,74.987z"/>
	<path d="M193.788,77.287l-2.255,1.996c-0.927-1.196-1.791-1.794-2.591-1.794c-0.396,0-0.725,0.118-0.986,0.354
		c-0.262,0.235-0.393,0.518-0.393,0.847c0,0.307,0.119,0.646,0.358,1.021s0.965,1.2,2.176,2.479
		c0.644,0.681,1.065,1.163,1.268,1.447c0.486,0.658,0.836,1.273,1.049,1.845c0.213,0.572,0.319,1.153,0.319,1.744
		c0,1.323-0.471,2.434-1.413,3.331c-0.942,0.897-2.149,1.346-3.622,1.346c-2.243,0-4.071-1.065-5.484-3.196l2.377-1.918
		c0.957,1.458,1.993,2.187,3.107,2.187c0.53,0,0.978-0.172,1.34-0.516c0.362-0.344,0.544-0.759,0.544-1.245
		c0-0.381-0.11-0.77-0.331-1.167c-0.221-0.396-0.851-1.144-1.89-2.243c-1.099-1.159-1.82-2.033-2.164-2.624
		c-0.464-0.8-0.695-1.585-0.695-2.355c0-1.017,0.332-1.929,0.998-2.736c0.837-1.009,1.966-1.514,3.387-1.514
		C190.838,74.572,192.472,75.477,193.788,77.287z"/>
</g>
</svg>
