<?xml version="1.0" encoding="utf-8"?>
<!-- Generator: Adobe Illustrator 16.0.0, SVG Export Plug-In . SVG Version: 6.00 Build 0)  -->
<!DOCTYPE svg PUBLIC "-//W3C//DTD SVG 1.1//EN" "http://www.w3.org/Graphics/SVG/1.1/DTD/svg11.dtd">
<svg version="1.1" id="Layer_1" xmlns="http://www.w3.org/2000/svg" xmlns:xlink="http://www.w3.org/1999/xlink" x="0px" y="0px"
	 width="300px" height="300px" viewBox="0 0 300 300" enable-background="new 0 0 300 300" xml:space="preserve">
<g>
	<rect x="10.613" y="11.637" fill="#FFFFFF" width="278.387" height="276.726"/>
	
		<rect x="10.613" y="11.637" fill="none" stroke="#70737F" stroke-width="3" stroke-miterlimit="10" width="278.387" height="276.726"/>
</g>
<rect x="28.306" y="27.632" fill="none" stroke="#404459" stroke-width="2" stroke-miterlimit="10" width="241.387" height="6.912"/>
<rect x="28.306" y="162.5" fill="none" stroke="#414042" stroke-width="4" stroke-miterlimit="10" width="241.387" height="109"/>
<path fill="none" stroke="#404459" stroke-width="2" stroke-miterlimit="10" d="M269.693,187c0,0-32.193,74.5-112.193,84.5h112.193
	V187z"/>
<g>
	<path d="M87.336,52.167h3.146c1.916,0,3.338,0.207,4.269,0.621s1.681,1.057,2.25,1.93c0.57,0.874,0.855,1.816,0.855,2.827
		c0,0.846-0.201,1.644-0.604,2.393s-0.984,1.376-1.744,1.882c1.813,1.26,2.721,2.933,2.721,5.02c0,1.084-0.288,2.077-0.862,2.978
		c-0.575,0.901-1.285,1.565-2.13,1.993c-0.846,0.427-2.068,0.641-3.668,0.641h-7.004L87.336,52.167z M88.895,68.851l2.283,0.083
		c1.146,0,1.98-0.225,2.503-0.676c0.522-0.45,0.784-1.066,0.784-1.848c0-0.57-0.162-1.08-0.486-1.53
		c-0.324-0.451-0.755-0.768-1.292-0.952c-0.538-0.184-1.568-0.28-3.091-0.29L88.895,68.851z M90.056,60.219h0.682
		c1.018,0,1.709-0.076,2.073-0.228c0.364-0.152,0.673-0.435,0.927-0.848c0.255-0.414,0.382-0.873,0.382-1.379
		c0-0.469-0.113-0.873-0.339-1.213c-0.226-0.34-0.521-0.57-0.887-0.689c-0.366-0.119-1.109-0.179-2.229-0.179L90.056,60.219z"/>
	<path d="M110.604,52.167h3.213l5.054,20.283h-3.696l-1.075-4.316h-8.047l-2.307,4.316h-4.096L110.604,52.167z M113.164,64.549
		l-1.622-6.681l-3.573,6.681H113.164z"/>
	<path d="M124.592,52.167h3.323l7.314,13.789l1.884-13.789h3.716l-2.758,20.283h-3.252l-7.412-13.94l-1.905,13.94h-3.655
		L124.592,52.167z"/>
	<path d="M145.481,52.167h3.323l7.314,13.789l1.885-13.789h3.716l-2.758,20.283h-3.252l-7.412-13.94l-1.905,13.94h-3.655
		L145.481,52.167z"/>
	<path d="M166.14,52.167h10.907l-0.467,3.599h-7.078l-0.581,4.192h7.114l-0.463,3.571h-7.147l-0.746,5.377h7.194l-0.46,3.544
		h-11.045L166.14,52.167z"/>
	<path d="M181.279,52.167h3.522c2.175,0,3.705,0.188,4.592,0.565c1.105,0.469,1.939,1.119,2.501,1.95
		c0.563,0.832,0.844,1.817,0.844,2.957c0,1.406-0.418,2.612-1.253,3.618c-0.834,1.006-2.096,1.707-3.783,2.102l4.415,9.092h-3.943
		l-4.33-8.853h-0.312l-1.217,8.853h-3.808L181.279,52.167z M183.989,60.274c2.061-0.009,3.402-0.223,4.023-0.641
		c0.622-0.418,0.934-1.046,0.934-1.882c0-0.478-0.125-0.878-0.374-1.2c-0.25-0.322-0.61-0.547-1.082-0.676
		c-0.472-0.128-1.428-0.193-2.87-0.193L183.989,60.274z"/>
	<path d="M207.74,54.993l-2.771,2.455c-1.141-1.471-2.202-2.207-3.186-2.207c-0.487,0-0.892,0.145-1.214,0.435
		c-0.321,0.29-0.482,0.637-0.482,1.041c0,0.377,0.147,0.795,0.441,1.255s1.186,1.475,2.675,3.047
		c0.791,0.836,1.311,1.429,1.559,1.778c0.598,0.809,1.027,1.565,1.289,2.269s0.393,1.418,0.393,2.144
		c0,1.627-0.579,2.992-1.737,4.095s-2.643,1.655-4.453,1.655c-2.758,0-5.006-1.31-6.743-3.93l2.924-2.358
		c1.176,1.792,2.449,2.688,3.819,2.688c0.652,0,1.201-0.211,1.647-0.634c0.445-0.422,0.669-0.933,0.669-1.53
		c0-0.469-0.136-0.947-0.407-1.434c-0.271-0.487-1.046-1.406-2.323-2.758c-1.352-1.425-2.238-2.5-2.661-3.227
		c-0.57-0.983-0.854-1.949-0.854-2.896c0-1.25,0.408-2.372,1.227-3.365c1.029-1.241,2.418-1.861,4.164-1.861
		C204.113,51.656,206.122,52.769,207.74,54.993z"/>
	<path d="M93.838,86.054h3.559c2.162,0,3.687,0.188,4.575,0.565c1.099,0.469,1.933,1.122,2.5,1.958s0.852,1.815,0.852,2.937
		c0,1.232-0.333,2.346-0.997,3.344c-0.666,0.998-1.558,1.724-2.677,2.179c-1.119,0.455-2.981,0.701-5.586,0.737l-1.177,8.563h-3.82
		L93.838,86.054z M96.529,94.189c2.065-0.009,3.413-0.225,4.043-0.648s0.946-1.053,0.946-1.889c0-0.469-0.123-0.864-0.369-1.186
		c-0.246-0.322-0.61-0.547-1.093-0.676s-1.439-0.193-2.869-0.193L96.529,94.189z"/>
	<path d="M118.933,85.543c2.786,0,5.083,0.896,6.895,2.689c1.811,1.792,2.716,4.067,2.716,6.825c0,2.115-0.536,4.107-1.606,5.978
		s-2.496,3.307-4.274,4.309s-3.822,1.503-6.129,1.503c-2.887,0-5.192-0.855-6.916-2.565c-1.723-1.709-2.585-3.962-2.585-6.756
		c0-3.171,1.029-5.897,3.088-8.177C112.42,86.812,115.357,85.543,118.933,85.543z M118.795,89.143c-1.453,0-2.778,0.352-3.978,1.055
		s-2.167,1.714-2.903,3.034c-0.735,1.319-1.103,2.682-1.103,4.088c0,1.664,0.51,3.075,1.531,4.233
		c1.02,1.158,2.486,1.737,4.398,1.737c2.215,0,4.098-0.781,5.646-2.344c1.549-1.563,2.323-3.461,2.323-5.694
		c0-1.848-0.544-3.328-1.634-4.44S120.56,89.143,118.795,89.143z"/>
	<path d="M143.643,88.88l-2.771,2.455c-1.14-1.471-2.202-2.207-3.185-2.207c-0.487,0-0.892,0.145-1.213,0.435
		s-0.482,0.637-0.482,1.041c0,0.377,0.146,0.795,0.441,1.255s1.186,1.475,2.675,3.047c0.791,0.836,1.31,1.429,1.558,1.778
		c0.597,0.809,1.027,1.565,1.289,2.269c0.262,0.703,0.393,1.418,0.393,2.144c0,1.627-0.579,2.992-1.737,4.095
		s-2.643,1.655-4.454,1.655c-2.757,0-5.005-1.31-6.743-3.93l2.923-2.358c1.177,1.792,2.45,2.688,3.819,2.688
		c0.653,0,1.202-0.211,1.648-0.634c0.446-0.422,0.669-0.933,0.669-1.53c0-0.469-0.136-0.947-0.407-1.434
		c-0.271-0.487-1.046-1.406-2.324-2.758c-1.351-1.425-2.238-2.5-2.661-3.227c-0.57-0.983-0.855-1.949-0.855-2.896
		c0-1.25,0.409-2.372,1.228-3.365c1.029-1.241,2.417-1.861,4.164-1.861C140.016,85.543,142.025,86.656,143.643,88.88z"/>
	<path d="M145.394,86.054h12.382l-0.441,3.613h-4.228l-2.278,16.67h-3.78l2.278-16.67h-4.401L145.394,86.054z"/>
	<path d="M159.652,86.054h10.906l-0.467,3.599h-7.077l-0.582,4.192h7.115l-0.464,3.571h-7.146l-0.746,5.377h7.194l-0.46,3.544
		H156.88L159.652,86.054z"/>
	<path d="M174.792,86.054h3.522c2.175,0,3.705,0.188,4.592,0.565c1.105,0.469,1.939,1.119,2.501,1.95
		c0.563,0.832,0.844,1.817,0.844,2.957c0,1.406-0.418,2.612-1.253,3.618c-0.834,1.006-2.096,1.707-3.783,2.102l4.415,9.092h-3.943
		l-4.33-8.853h-0.312l-1.217,8.853h-3.808L174.792,86.054z M177.502,94.162c2.061-0.009,3.402-0.223,4.023-0.641
		c0.622-0.418,0.934-1.046,0.934-1.882c0-0.478-0.125-0.878-0.374-1.2c-0.25-0.322-0.61-0.547-1.082-0.676
		c-0.472-0.128-1.428-0.193-2.87-0.193L177.502,94.162z"/>
	<path d="M201.253,88.88l-2.771,2.455c-1.141-1.471-2.202-2.207-3.186-2.207c-0.487,0-0.892,0.145-1.214,0.435
		c-0.321,0.29-0.482,0.637-0.482,1.041c0,0.377,0.147,0.795,0.441,1.255s1.186,1.475,2.675,3.047
		c0.791,0.836,1.311,1.429,1.559,1.778c0.598,0.809,1.027,1.565,1.289,2.269s0.393,1.418,0.393,2.144
		c0,1.627-0.579,2.992-1.737,4.095s-2.643,1.655-4.453,1.655c-2.758,0-5.006-1.31-6.743-3.93l2.924-2.358
		c1.176,1.792,2.449,2.688,3.819,2.688c0.652,0,1.201-0.211,1.647-0.634c0.445-0.422,0.669-0.933,0.669-1.53
		c0-0.469-0.136-0.947-0.407-1.434c-0.271-0.487-1.046-1.406-2.323-2.758c-1.352-1.425-2.238-2.5-2.661-3.227
		c-0.57-0.983-0.854-1.949-0.854-2.896c0-1.25,0.408-2.372,1.227-3.365c1.029-1.241,2.418-1.861,4.164-1.861
		C197.626,85.543,199.635,86.656,201.253,88.88z"/>
	<path d="M91.569,119.941h3.215c3.013,0,5.254,0.356,6.725,1.068c1.47,0.713,2.665,1.832,3.585,3.358s1.381,3.286,1.381,5.281
		c0,2.05-0.49,3.932-1.469,5.646c-0.979,1.715-2.213,2.965-3.702,3.751c-1.489,0.786-3.558,1.179-6.205,1.179h-6.301L91.569,119.941
		z M94.91,123.512l-1.785,13.168h1.253c1.928,0,3.324-0.161,4.187-0.482c1.212-0.459,2.185-1.246,2.92-2.358
		c0.734-1.112,1.102-2.486,1.102-4.123c0-1.342-0.258-2.466-0.774-3.372c-0.517-0.905-1.246-1.604-2.187-2.096
		c-0.941-0.492-2.193-0.738-3.756-0.738H94.91z"/>
	<path d="M111.094,119.941h10.907l-0.467,3.599h-7.077l-0.582,4.192h7.115l-0.463,3.571h-7.146l-0.747,5.377h7.195l-0.46,3.544
		h-11.045L111.094,119.941z"/>
	<path d="M136.313,122.768l-2.771,2.455c-1.14-1.471-2.202-2.207-3.185-2.207c-0.487,0-0.892,0.145-1.213,0.435
		s-0.482,0.637-0.482,1.041c0,0.377,0.146,0.795,0.441,1.255s1.186,1.475,2.675,3.047c0.791,0.836,1.31,1.429,1.558,1.778
		c0.597,0.809,1.027,1.565,1.289,2.269c0.262,0.703,0.393,1.418,0.393,2.144c0,1.627-0.579,2.992-1.737,4.095
		s-2.643,1.655-4.454,1.655c-2.757,0-5.005-1.31-6.743-3.93l2.923-2.358c1.177,1.792,2.45,2.688,3.819,2.688
		c0.653,0,1.202-0.211,1.648-0.634c0.446-0.422,0.669-0.933,0.669-1.53c0-0.469-0.136-0.947-0.407-1.434
		c-0.271-0.487-1.046-1.406-2.324-2.758c-1.351-1.425-2.238-2.5-2.661-3.227c-0.57-0.983-0.855-1.949-0.855-2.896
		c0-1.25,0.409-2.372,1.228-3.365c1.029-1.241,2.417-1.861,4.164-1.861C132.687,119.431,134.696,120.543,136.313,122.768z"/>
	<path d="M140.547,119.941h3.725l-2.841,20.283h-3.655L140.547,119.941z"/>
	<path d="M166.125,123.728l-3.171,2.059c-0.92-1.048-1.807-1.776-2.661-2.186c-0.855-0.409-1.825-0.613-2.91-0.613
		c-2.344,0-4.251,0.942-5.722,2.827c-1.168,1.499-1.752,3.162-1.752,4.992c0,1.802,0.6,3.314,1.8,4.536
		c1.199,1.223,2.677,1.834,4.434,1.834c1.305,0,2.493-0.316,3.564-0.948c1.07-0.632,1.946-1.58,2.626-2.844h-6.329l0.469-3.599
		h10.26c-0.147,3.355-1.198,6.019-3.151,7.991c-1.953,1.972-4.442,2.958-7.467,2.958c-3.291,0-5.879-1.14-7.763-3.419
		c-1.517-1.83-2.275-4.008-2.275-6.536c0-3.08,1.11-5.741,3.33-7.984c2.22-2.243,4.865-3.364,7.936-3.364
		c1.14,0,2.252,0.166,3.337,0.498s2.063,0.797,2.938,1.396C164.489,121.923,165.325,122.724,166.125,123.728z"/>
	<path d="M182.617,122.768l-2.771,2.455c-1.141-1.471-2.202-2.207-3.186-2.207c-0.487,0-0.892,0.145-1.214,0.435
		c-0.321,0.29-0.482,0.637-0.482,1.041c0,0.377,0.147,0.795,0.441,1.255s1.186,1.475,2.675,3.047
		c0.791,0.836,1.311,1.429,1.559,1.778c0.598,0.809,1.027,1.565,1.289,2.269s0.393,1.418,0.393,2.144
		c0,1.627-0.579,2.992-1.737,4.095s-2.643,1.655-4.453,1.655c-2.758,0-5.006-1.31-6.743-3.93l2.924-2.358
		c1.176,1.792,2.449,2.688,3.819,2.688c0.652,0,1.201-0.211,1.647-0.634c0.445-0.422,0.669-0.933,0.669-1.53
		c0-0.469-0.136-0.947-0.407-1.434c-0.271-0.487-1.046-1.406-2.323-2.758c-1.352-1.425-2.238-2.5-2.661-3.227
		c-0.57-0.983-0.854-1.949-0.854-2.896c0-1.25,0.408-2.372,1.227-3.365c1.029-1.241,2.418-1.861,4.164-1.861
		C178.99,119.431,180.999,120.543,182.617,122.768z"/>
	<path d="M186.999,119.941h3.323l7.315,13.789l1.884-13.789h3.716l-2.758,20.283h-3.252l-7.411-13.94l-1.905,13.94h-3.655
		L186.999,119.941z"/>
</g>
<g>
	<path d="M60.055,184.534h2.25c1.369,0,2.387,0.148,3.052,0.443c0.665,0.296,1.202,0.757,1.609,1.381s0.611,1.298,0.611,2.021
		c0,0.604-0.144,1.175-0.432,1.71c-0.288,0.536-0.704,0.984-1.247,1.346c1.297,0.9,1.945,2.097,1.945,3.589
		c0,0.775-0.206,1.485-0.616,2.13c-0.411,0.644-0.918,1.119-1.523,1.425c-0.605,0.306-1.479,0.458-2.623,0.458h-5.009
		L60.055,184.534z M61.169,196.464l1.632,0.06c0.82,0,1.416-0.161,1.79-0.483c0.374-0.322,0.561-0.763,0.561-1.321
		c0-0.407-0.116-0.772-0.347-1.095c-0.231-0.321-0.54-0.548-0.924-0.68s-1.122-0.2-2.21-0.207L61.169,196.464z M62,190.292h0.488
		c0.728,0,1.222-0.054,1.482-0.163c0.26-0.108,0.481-0.311,0.663-0.605c0.182-0.296,0.273-0.625,0.273-0.986
		c0-0.335-0.081-0.624-0.242-0.867c-0.161-0.243-0.373-0.408-0.634-0.493c-0.262-0.086-0.793-0.128-1.593-0.128L62,190.292z"/>
	<path d="M76.692,184.534h2.297l3.613,14.503H79.96l-0.769-3.086h-5.754l-1.65,3.086h-2.929L76.692,184.534z M78.522,193.388
		l-1.159-4.776l-2.555,4.776H78.522z"/>
	<path d="M86.693,184.534h2.376l5.23,9.859l1.347-9.859h2.657l-1.972,14.503h-2.326l-5.299-9.968l-1.362,9.968h-2.614
		L86.693,184.534z"/>
	<path d="M101.63,184.534h2.376l5.23,9.859l1.347-9.859h2.657l-1.972,14.503h-2.326l-5.299-9.968l-1.362,9.968h-2.614
		L101.63,184.534z"/>
	<path d="M116.4,184.534h7.799l-0.334,2.573h-5.061l-0.416,2.997h5.087l-0.332,2.554h-5.11l-0.534,3.845h5.144l-0.329,2.534h-7.897
		L116.4,184.534z"/>
	<path d="M127.226,184.534h2.519c1.555,0,2.649,0.135,3.283,0.404c0.79,0.335,1.387,0.8,1.788,1.395
		c0.402,0.595,0.603,1.299,0.603,2.113c0,1.006-0.298,1.868-0.895,2.587c-0.598,0.72-1.499,1.221-2.706,1.503l3.157,6.501h-2.819
		l-3.096-6.329h-0.224l-0.87,6.329h-2.722L127.226,184.534z M129.163,190.331c1.474-0.006,2.433-0.159,2.877-0.458
		s0.667-0.748,0.667-1.346c0-0.342-0.089-0.628-0.268-0.857c-0.179-0.23-0.436-0.392-0.773-0.483
		c-0.337-0.092-1.021-0.138-2.052-0.138L129.163,190.331z"/>
	<path d="M146.145,186.556l-1.981,1.755c-0.815-1.052-1.574-1.577-2.277-1.577c-0.349,0-0.638,0.104-0.867,0.311
		c-0.23,0.207-0.346,0.455-0.346,0.744c0,0.27,0.105,0.568,0.315,0.896c0.211,0.329,0.849,1.056,1.913,2.18
		c0.565,0.598,0.937,1.021,1.114,1.271c0.427,0.578,0.734,1.119,0.922,1.622c0.187,0.503,0.28,1.014,0.28,1.533
		c0,1.163-0.414,2.139-1.242,2.928s-1.89,1.184-3.185,1.184c-1.972,0-3.578-0.938-4.82-2.811l2.09-1.686
		c0.841,1.281,1.751,1.923,2.73,1.923c0.467,0,0.859-0.151,1.179-0.454c0.318-0.302,0.478-0.667,0.478-1.094
		c0-0.336-0.097-0.678-0.29-1.025c-0.194-0.349-0.748-1.006-1.661-1.973c-0.967-1.019-1.601-1.787-1.903-2.307
		c-0.407-0.703-0.611-1.394-0.611-2.07c0-0.894,0.292-1.696,0.878-2.405c0.735-0.888,1.729-1.331,2.978-1.331
		C143.552,184.17,144.988,184.965,146.145,186.556z"/>
	<path d="M64.704,208.764h2.544c1.545,0,2.636,0.135,3.271,0.404c0.786,0.335,1.381,0.802,1.788,1.4
		c0.406,0.598,0.609,1.298,0.609,2.1c0,0.881-0.238,1.678-0.713,2.391c-0.476,0.714-1.114,1.232-1.914,1.558
		c-0.8,0.326-2.132,0.502-3.994,0.528l-0.842,6.122h-2.731L64.704,208.764z M66.628,214.581c1.477-0.007,2.44-0.161,2.891-0.464
		c0.451-0.302,0.676-0.752,0.676-1.351c0-0.335-0.088-0.618-0.264-0.848c-0.176-0.23-0.437-0.392-0.782-0.483
		c-0.345-0.092-1.028-0.138-2.051-0.138L66.628,214.581z"/>
	<path d="M82.648,208.399c1.992,0,3.635,0.641,4.93,1.922c1.294,1.282,1.942,2.909,1.942,4.881c0,1.512-0.383,2.937-1.148,4.273
		c-0.766,1.338-1.785,2.365-3.056,3.081c-1.272,0.717-2.733,1.075-4.382,1.075c-2.064,0-3.712-0.611-4.944-1.834
		s-1.849-2.833-1.849-4.831c0-2.268,0.736-4.217,2.208-5.847C77.991,209.306,80.091,208.399,82.648,208.399z M82.549,210.973
		c-1.039,0-1.987,0.251-2.844,0.754c-0.858,0.503-1.55,1.226-2.076,2.169s-0.789,1.918-0.789,2.923c0,1.19,0.365,2.199,1.094,3.027
		c0.73,0.828,1.778,1.242,3.146,1.242c1.583,0,2.93-0.559,4.037-1.676c1.107-1.118,1.661-2.475,1.661-4.072
		c0-1.321-0.389-2.379-1.168-3.175C84.832,211.37,83.812,210.973,82.549,210.973z"/>
	<path d="M100.315,210.785l-1.982,1.755c-0.815-1.052-1.574-1.577-2.277-1.577c-0.349,0-0.638,0.104-0.868,0.311
		s-0.345,0.455-0.345,0.744c0,0.27,0.105,0.568,0.316,0.896c0.21,0.329,0.848,1.056,1.913,2.18c0.565,0.598,0.937,1.021,1.114,1.271
		c0.427,0.578,0.735,1.119,0.922,1.622c0.188,0.503,0.281,1.014,0.281,1.533c0,1.163-0.414,2.139-1.242,2.928
		s-1.89,1.184-3.185,1.184c-1.972,0-3.579-0.938-4.821-2.811l2.09-1.686c0.841,1.281,1.751,1.923,2.731,1.923
		c0.466,0,0.859-0.151,1.178-0.454c0.318-0.302,0.478-0.667,0.478-1.094c0-0.336-0.097-0.678-0.291-1.025
		c-0.194-0.349-0.748-1.006-1.661-1.973c-0.966-1.019-1.601-1.787-1.903-2.307c-0.408-0.703-0.611-1.394-0.611-2.07
		c0-0.894,0.292-1.696,0.877-2.405c0.736-0.888,1.729-1.331,2.978-1.331C97.722,208.399,99.158,209.194,100.315,210.785z"/>
	<path d="M101.567,208.764h8.854l-0.315,2.583h-3.023l-1.629,11.92h-2.703l1.629-11.92h-3.147L101.567,208.764z"/>
	<path d="M111.762,208.764h7.799l-0.334,2.573h-5.061l-0.416,2.997h5.087l-0.332,2.554h-5.11l-0.534,3.845h5.144l-0.329,2.534
		h-7.897L111.762,208.764z"/>
	<path d="M122.587,208.764h2.519c1.555,0,2.649,0.135,3.283,0.404c0.79,0.335,1.387,0.8,1.788,1.395
		c0.402,0.595,0.603,1.299,0.603,2.113c0,1.006-0.298,1.868-0.895,2.587c-0.598,0.72-1.499,1.221-2.706,1.503l3.157,6.501h-2.819
		l-3.096-6.329h-0.223l-0.87,6.329h-2.723L122.587,208.764z M124.524,214.561c1.473-0.006,2.433-0.159,2.877-0.458
		s0.667-0.748,0.667-1.346c0-0.342-0.089-0.628-0.268-0.857c-0.179-0.23-0.436-0.392-0.773-0.483
		c-0.337-0.092-1.021-0.138-2.052-0.138L124.524,214.561z"/>
	<path d="M141.506,210.785l-1.981,1.755c-0.815-1.052-1.574-1.577-2.277-1.577c-0.349,0-0.638,0.104-0.867,0.311
		c-0.23,0.207-0.346,0.455-0.346,0.744c0,0.27,0.105,0.568,0.315,0.896c0.211,0.329,0.849,1.056,1.913,2.18
		c0.565,0.598,0.937,1.021,1.114,1.271c0.427,0.578,0.734,1.119,0.922,1.622c0.187,0.503,0.28,1.014,0.28,1.533
		c0,1.163-0.414,2.139-1.242,2.928s-1.89,1.184-3.185,1.184c-1.972,0-3.578-0.938-4.82-2.811l2.09-1.686
		c0.841,1.281,1.751,1.923,2.73,1.923c0.467,0,0.859-0.151,1.179-0.454c0.318-0.302,0.478-0.667,0.478-1.094
		c0-0.336-0.097-0.678-0.29-1.025c-0.194-0.349-0.748-1.006-1.661-1.973c-0.967-1.019-1.601-1.787-1.903-2.307
		c-0.407-0.703-0.611-1.394-0.611-2.07c0-0.894,0.292-1.696,0.878-2.405c0.735-0.888,1.729-1.331,2.978-1.331
		C138.913,208.399,140.35,209.194,141.506,210.785z"/>
	<path d="M63.082,232.994h2.298c2.155,0,3.757,0.255,4.808,0.765c1.051,0.509,1.906,1.31,2.564,2.4s0.987,2.35,0.987,3.776
		c0,1.466-0.35,2.812-1.05,4.037c-0.7,1.226-1.582,2.119-2.647,2.682c-1.065,0.562-2.543,0.843-4.437,0.843H61.1L63.082,232.994z
		 M65.471,235.548l-1.276,9.415h0.896c1.378,0,2.376-0.114,2.994-0.345c0.867-0.328,1.563-0.891,2.087-1.686
		c0.525-0.796,0.788-1.778,0.788-2.948c0-0.96-0.185-1.763-0.554-2.41c-0.37-0.647-0.891-1.147-1.563-1.499
		s-1.568-0.527-2.686-0.527H65.471z"/>
	<path d="M77.042,232.994h7.799l-0.334,2.573h-5.061l-0.416,2.997h5.087l-0.332,2.554h-5.11l-0.534,3.845h5.144l-0.329,2.534h-7.897
		L77.042,232.994z"/>
	<path d="M95.075,235.016l-1.982,1.755c-0.815-1.052-1.574-1.577-2.277-1.577c-0.349,0-0.638,0.104-0.868,0.311
		s-0.345,0.455-0.345,0.744c0,0.27,0.105,0.568,0.316,0.896c0.21,0.329,0.848,1.056,1.913,2.18c0.565,0.598,0.937,1.021,1.114,1.271
		c0.427,0.578,0.735,1.119,0.922,1.622c0.188,0.503,0.281,1.014,0.281,1.533c0,1.163-0.414,2.139-1.242,2.928
		s-1.89,1.184-3.185,1.184c-1.972,0-3.579-0.938-4.821-2.811l2.09-1.686c0.841,1.281,1.751,1.923,2.731,1.923
		c0.466,0,0.859-0.151,1.178-0.454c0.318-0.302,0.478-0.667,0.478-1.094c0-0.336-0.097-0.678-0.291-1.025
		c-0.194-0.349-0.748-1.006-1.661-1.973c-0.966-1.019-1.601-1.787-1.903-2.307c-0.408-0.703-0.611-1.394-0.611-2.07
		c0-0.894,0.292-1.696,0.877-2.405c0.736-0.888,1.729-1.331,2.978-1.331C92.481,232.63,93.917,233.425,95.075,235.016z"/>
	<path d="M98.102,232.994h2.663l-2.032,14.503H96.12L98.102,232.994z"/>
	<path d="M116.39,235.702l-2.268,1.473c-0.657-0.75-1.292-1.271-1.903-1.563c-0.611-0.293-1.305-0.439-2.08-0.439
		c-1.676,0-3.04,0.674-4.092,2.021c-0.834,1.071-1.252,2.261-1.252,3.569c0,1.288,0.429,2.369,1.287,3.243s1.914,1.312,3.169,1.312
		c0.934,0,1.783-0.226,2.549-0.678s1.392-1.13,1.878-2.033h-4.525l0.335-2.573h7.335c-0.105,2.398-0.856,4.303-2.253,5.713
		c-1.397,1.41-3.176,2.115-5.339,2.115c-2.353,0-4.203-0.815-5.551-2.445c-1.084-1.308-1.626-2.866-1.626-4.674
		c0-2.201,0.793-4.104,2.381-5.708s3.479-2.405,5.674-2.405c0.815,0,1.61,0.118,2.386,0.355c0.776,0.237,1.476,0.569,2.1,0.998
		C115.22,234.411,115.818,234.984,116.39,235.702z"/>
	<path d="M128.182,235.016l-1.982,1.755c-0.815-1.052-1.574-1.577-2.277-1.577c-0.349,0-0.638,0.104-0.868,0.311
		s-0.345,0.455-0.345,0.744c0,0.27,0.105,0.568,0.316,0.896c0.21,0.329,0.848,1.056,1.913,2.18c0.565,0.598,0.937,1.021,1.114,1.271
		c0.427,0.578,0.735,1.119,0.922,1.622c0.188,0.503,0.281,1.014,0.281,1.533c0,1.163-0.414,2.139-1.242,2.928
		s-1.89,1.184-3.185,1.184c-1.972,0-3.579-0.938-4.821-2.811l2.09-1.686c0.841,1.281,1.751,1.923,2.731,1.923
		c0.466,0,0.859-0.151,1.178-0.454c0.318-0.302,0.478-0.667,0.478-1.094c0-0.336-0.097-0.678-0.291-1.025
		c-0.194-0.349-0.748-1.006-1.661-1.973c-0.966-1.019-1.601-1.787-1.903-2.307c-0.408-0.703-0.611-1.394-0.611-2.07
		c0-0.894,0.292-1.696,0.877-2.405c0.736-0.888,1.729-1.331,2.978-1.331C125.588,232.63,127.024,233.425,128.182,235.016z"/>
	<path d="M131.315,232.994h2.377l5.229,9.859l1.348-9.859h2.656l-1.972,14.503h-2.325l-5.299-9.968l-1.362,9.968h-2.613
		L131.315,232.994z"/>
</g>
</svg>
