<?xml version="1.0" encoding="utf-8"?>
<!-- Generator: Adobe Illustrator 16.0.0, SVG Export Plug-In . SVG Version: 6.00 Build 0)  -->
<!DOCTYPE svg PUBLIC "-//W3C//DTD SVG 1.1//EN" "http://www.w3.org/Graphics/SVG/1.1/DTD/svg11.dtd">
<svg version="1.1" id="Layer_1" xmlns="http://www.w3.org/2000/svg" xmlns:xlink="http://www.w3.org/1999/xlink" x="0px" y="0px"
	 width="300px" height="300px" viewBox="0 0 300 300" enable-background="new 0 0 300 300" xml:space="preserve">
<g>
	<rect x="10.613" y="11.637" fill="#FFFFFF" width="278.387" height="276.726"/>
	
		<rect x="10.613" y="11.637" fill="none" stroke="#70737F" stroke-width="3" stroke-miterlimit="10" width="278.387" height="276.726"/>
</g>
<rect x="27.75" y="27.632" fill="none" stroke="#404459" stroke-width="2" stroke-miterlimit="10" width="241.387" height="6.912"/>
<g>
	<path d="M61.452,47.608h2.836c1.727,0,3.009,0.186,3.848,0.559c0.839,0.373,1.515,0.953,2.029,1.74s0.771,1.637,0.771,2.548
		c0,0.763-0.182,1.481-0.545,2.157s-0.887,1.241-1.572,1.696c1.635,1.135,2.453,2.644,2.453,4.524c0,0.978-0.259,1.873-0.777,2.685
		c-0.518,0.812-1.158,1.411-1.92,1.796s-1.864,0.578-3.306,0.578h-6.314L61.452,47.608z M62.856,62.647l2.058,0.075
		c1.033,0,1.785-0.203,2.256-0.609c0.471-0.406,0.707-0.961,0.707-1.666c0-0.514-0.146-0.974-0.438-1.38
		c-0.292-0.406-0.68-0.692-1.165-0.857s-1.414-0.253-2.787-0.261L62.856,62.647z M63.903,54.866h0.614
		c0.918,0,1.541-0.068,1.869-0.205c0.328-0.137,0.606-0.391,0.836-0.764s0.344-0.787,0.344-1.243c0-0.422-0.102-0.787-0.305-1.094
		c-0.204-0.306-0.47-0.514-0.8-0.621c-0.33-0.108-1-0.162-2.009-0.162L63.903,54.866z"/>
	<path d="M84.595,47.148c2.511,0,4.582,0.808,6.215,2.424c1.632,1.616,2.448,3.667,2.448,6.152c0,1.906-0.483,3.702-1.448,5.388
		c-0.965,1.686-2.25,2.981-3.853,3.884c-1.604,0.903-3.445,1.355-5.525,1.355c-2.602,0-4.68-0.771-6.233-2.312
		c-1.554-1.541-2.331-3.571-2.331-6.09c0-2.858,0.928-5.315,2.784-7.371C78.724,48.292,81.372,47.148,84.595,47.148z M84.471,50.392
		c-1.309,0-2.504,0.317-3.585,0.951c-1.082,0.634-1.954,1.545-2.617,2.734c-0.663,1.189-0.994,2.417-0.994,3.685
		c0,1.5,0.46,2.772,1.38,3.816c0.919,1.044,2.241,1.566,3.965,1.566c1.997,0,3.693-0.704,5.09-2.113
		c1.396-1.409,2.094-3.12,2.094-5.133c0-1.666-0.491-3-1.473-4.002C87.348,50.893,86.062,50.392,84.471,50.392z"/>
	<path d="M105.973,47.148c2.511,0,4.582,0.808,6.215,2.424c1.632,1.616,2.448,3.667,2.448,6.152c0,1.906-0.483,3.702-1.448,5.388
		c-0.965,1.686-2.25,2.981-3.853,3.884c-1.604,0.903-3.445,1.355-5.525,1.355c-2.602,0-4.68-0.771-6.233-2.312
		c-1.554-1.541-2.331-3.571-2.331-6.09c0-2.858,0.928-5.315,2.784-7.371C100.102,48.292,102.75,47.148,105.973,47.148z
		 M105.849,50.392c-1.309,0-2.504,0.317-3.585,0.951c-1.082,0.634-1.954,1.545-2.617,2.734c-0.663,1.189-0.994,2.417-0.994,3.685
		c0,1.5,0.46,2.772,1.38,3.816c0.919,1.044,2.241,1.566,3.965,1.566c1.997,0,3.693-0.704,5.09-2.113
		c1.396-1.409,2.094-3.12,2.094-5.133c0-1.666-0.491-3-1.473-4.002C108.726,50.893,107.44,50.392,105.849,50.392z"/>
	<path d="M119.024,47.608h3.445l-0.853,6.151l5.832-6.151h4.26l-7.969,8.355l6.295,9.928h-3.839l-5.138-8.104l-1.124,8.104h-3.407
		L119.024,47.608z"/>
	<path d="M157.456,49.975l-2.499,2.316c-0.538-0.621-1.197-1.099-1.976-1.434c-0.779-0.335-1.625-0.503-2.536-0.503
		c-1.276,0-2.499,0.327-3.667,0.981c-1.168,0.654-2.078,1.519-2.729,2.595s-0.976,2.223-0.976,3.439
		c0,1.656,0.572,3.032,1.715,4.129c1.144,1.097,2.61,1.645,4.4,1.645c1.915,0,3.572-0.555,4.972-1.666l2.025,2.672
		c-2.08,1.467-4.486,2.2-7.221,2.2c-1.922,0-3.557-0.365-4.903-1.094c-1.347-0.729-2.428-1.8-3.244-3.213
		c-0.816-1.413-1.224-2.944-1.224-4.593c0-1.765,0.482-3.457,1.448-5.077s2.272-2.896,3.921-3.829
		c1.649-0.932,3.447-1.398,5.395-1.398C153.093,47.148,155.459,48.09,157.456,49.975z"/>
	<path d="M170.109,47.148c2.51,0,4.582,0.808,6.214,2.424c1.633,1.616,2.449,3.667,2.449,6.152c0,1.906-0.483,3.702-1.448,5.388
		c-0.966,1.686-2.25,2.981-3.854,3.884c-1.604,0.903-3.444,1.355-5.524,1.355c-2.603,0-4.68-0.771-6.233-2.312
		c-1.554-1.541-2.33-3.571-2.33-6.09c0-2.858,0.928-5.315,2.784-7.371C164.238,48.292,166.886,47.148,170.109,47.148z
		 M169.984,50.392c-1.31,0-2.504,0.317-3.586,0.951c-1.081,0.634-1.953,1.545-2.616,2.734s-0.994,2.417-0.994,3.685
		c0,1.5,0.46,2.772,1.38,3.816s2.241,1.566,3.965,1.566c1.997,0,3.693-0.704,5.09-2.113c1.396-1.409,2.094-3.12,2.094-5.133
		c0-1.666-0.49-3-1.473-4.002C172.862,50.893,171.575,50.392,169.984,50.392z"/>
	<path d="M181.046,47.608h3.347l3.272,13.2l7.076-13.2h3.692l-9.788,18.283h-3.067L181.046,47.608z"/>
	<path d="M200.709,47.608h9.832l-0.422,3.244h-6.379l-0.524,3.779h6.413l-0.418,3.219h-6.442l-0.672,4.847h6.484l-0.414,3.194
		h-9.956L200.709,47.608z"/>
	<path d="M214.356,47.608h3.176c1.96,0,3.339,0.17,4.139,0.509c0.996,0.422,1.748,1.008,2.254,1.758
		c0.507,0.75,0.761,1.638,0.761,2.665c0,1.268-0.377,2.354-1.129,3.262c-0.753,0.907-1.89,1.538-3.411,1.895l3.98,8.195h-3.555
		l-3.903-7.979h-0.28l-1.098,7.979h-3.432L214.356,47.608z M216.799,54.916c1.857-0.008,3.067-0.201,3.627-0.578
		c0.561-0.377,0.842-0.943,0.842-1.697c0-0.431-0.113-0.791-0.338-1.082c-0.225-0.29-0.55-0.493-0.975-0.609
		c-0.425-0.116-1.287-0.174-2.587-0.174L216.799,54.916z"/>
	<path d="M238.208,50.156l-2.498,2.212c-1.028-1.326-1.985-1.989-2.871-1.989c-0.439,0-0.805,0.13-1.094,0.392
		c-0.291,0.261-0.436,0.574-0.436,0.938c0,0.34,0.133,0.717,0.397,1.131c0.266,0.415,1.069,1.33,2.412,2.747
		c0.712,0.754,1.181,1.289,1.404,1.603c0.538,0.729,0.926,1.411,1.162,2.045s0.354,1.278,0.354,1.933
		c0,1.467-0.522,2.697-1.566,3.691c-1.044,0.995-2.383,1.492-4.015,1.492c-2.486,0-4.512-1.181-6.078-3.542l2.635-2.125
		c1.061,1.616,2.208,2.424,3.443,2.424c0.588,0,1.083-0.19,1.485-0.572c0.401-0.381,0.603-0.841,0.603-1.379
		c0-0.423-0.122-0.854-0.366-1.293c-0.245-0.439-0.943-1.268-2.095-2.486c-1.218-1.284-2.018-2.253-2.398-2.908
		c-0.515-0.887-0.771-1.757-0.771-2.61c0-1.126,0.368-2.138,1.105-3.033c0.928-1.119,2.18-1.678,3.754-1.678
		C234.939,47.148,236.749,48.15,238.208,50.156z"/>
	<path d="M52.801,78.154h2.898c2.716,0,4.736,0.321,6.062,0.963c1.325,0.643,2.402,1.651,3.232,3.027s1.245,2.962,1.245,4.76
		c0,1.848-0.441,3.544-1.324,5.09c-0.882,1.545-1.995,2.672-3.337,3.381c-1.343,0.708-3.207,1.063-5.593,1.063h-5.68L52.801,78.154z
		 M55.813,81.373l-1.609,11.87h1.13c1.738,0,2.996-0.145,3.774-0.435c1.092-0.414,1.97-1.123,2.632-2.125
		c0.662-1.002,0.993-2.241,0.993-3.716c0-1.209-0.233-2.223-0.698-3.039c-0.465-0.816-1.123-1.446-1.971-1.889
		c-0.849-0.443-1.977-0.665-3.386-0.665H55.813z"/>
	<path d="M70.401,78.154h9.832l-0.421,3.244h-6.38l-0.524,3.779h6.414l-0.418,3.219h-6.442l-0.673,4.847h6.485l-0.415,3.194h-9.956
		L70.401,78.154z"/>
	<path d="M93.134,80.702l-2.499,2.212c-1.027-1.326-1.984-1.989-2.871-1.989c-0.439,0-0.804,0.13-1.094,0.392
		c-0.29,0.261-0.435,0.574-0.435,0.938c0,0.34,0.132,0.717,0.398,1.131c0.265,0.415,1.069,1.33,2.411,2.747
		c0.712,0.754,1.181,1.289,1.405,1.603c0.538,0.729,0.926,1.411,1.162,2.045c0.236,0.634,0.354,1.278,0.354,1.933
		c0,1.467-0.522,2.697-1.566,3.691c-1.044,0.995-2.382,1.492-4.015,1.492c-2.486,0-4.512-1.181-6.078-3.542l2.635-2.125
		c1.061,1.616,2.208,2.424,3.443,2.424c0.588,0,1.083-0.19,1.485-0.572c0.401-0.381,0.603-0.841,0.603-1.379
		c0-0.423-0.122-0.854-0.367-1.293c-0.245-0.439-0.942-1.268-2.094-2.486c-1.218-1.284-2.018-2.253-2.399-2.908
		c-0.514-0.887-0.771-1.757-0.771-2.61c0-1.126,0.369-2.138,1.106-3.033c0.928-1.119,2.179-1.678,3.753-1.678
		C89.865,77.694,91.675,78.696,93.134,80.702z"/>
	<path d="M96.95,78.154h3.357l-2.561,18.283h-3.295L96.95,78.154z"/>
	<path d="M120.006,81.567l-2.858,1.856c-0.829-0.945-1.628-1.602-2.399-1.97s-1.645-0.553-2.623-0.553
		c-2.113,0-3.833,0.85-5.158,2.548c-1.052,1.351-1.579,2.851-1.579,4.5c0,1.624,0.541,2.987,1.622,4.089s2.413,1.653,3.996,1.653
		c1.176,0,2.248-0.285,3.213-0.854c0.965-0.569,1.754-1.424,2.368-2.563h-5.705l0.423-3.244h9.247
		c-0.132,3.024-1.079,5.425-2.84,7.203s-4.004,2.666-6.73,2.666c-2.967,0-5.299-1.027-6.998-3.083
		c-1.367-1.649-2.051-3.613-2.051-5.892c0-2.776,1-5.174,3.001-7.196s4.385-3.033,7.153-3.033c1.027,0,2.03,0.149,3.008,0.448
		c0.978,0.299,1.86,0.718,2.647,1.258C118.531,79.94,119.285,80.663,120.006,81.567z"/>
	<path d="M125.584,78.154h2.996l6.594,12.429l1.698-12.429h3.349l-2.485,18.283h-2.932l-6.681-12.566l-1.717,12.566h-3.295
		L125.584,78.154z"/>
	<path d="M160.823,80.702l-2.498,2.212c-1.027-1.326-1.984-1.989-2.871-1.989c-0.439,0-0.804,0.13-1.094,0.392
		c-0.29,0.261-0.436,0.574-0.436,0.938c0,0.34,0.133,0.717,0.398,1.131c0.265,0.415,1.068,1.33,2.411,2.747
		c0.712,0.754,1.181,1.289,1.404,1.603c0.539,0.729,0.926,1.411,1.162,2.045s0.354,1.278,0.354,1.933
		c0,1.467-0.522,2.697-1.566,3.691c-1.044,0.995-2.382,1.492-4.015,1.492c-2.485,0-4.512-1.181-6.078-3.542l2.635-2.125
		c1.061,1.616,2.208,2.424,3.443,2.424c0.588,0,1.083-0.19,1.485-0.572c0.401-0.381,0.603-0.841,0.603-1.379
		c0-0.423-0.122-0.854-0.366-1.293c-0.245-0.439-0.942-1.268-2.095-2.486c-1.218-1.284-2.018-2.253-2.398-2.908
		c-0.514-0.887-0.771-1.757-0.771-2.61c0-1.126,0.369-2.138,1.107-3.033c0.928-1.119,2.179-1.678,3.753-1.678
		C157.555,77.694,159.365,78.696,160.823,80.702z"/>
	<path d="M164.564,78.154h9.832l-0.422,3.244h-6.379l-0.524,3.779h6.413l-0.418,3.219h-6.442l-0.672,4.847h6.484l-0.414,3.194
		h-9.956L164.564,78.154z"/>
	<path d="M178.212,78.154h3.176c1.96,0,3.339,0.17,4.139,0.509c0.996,0.422,1.748,1.008,2.254,1.758
		c0.507,0.75,0.761,1.638,0.761,2.665c0,1.268-0.377,2.354-1.129,3.262c-0.753,0.907-1.89,1.538-3.411,1.895l3.98,8.195h-3.555
		l-3.903-7.979h-0.28l-1.098,7.979h-3.432L178.212,78.154z M180.654,85.462c1.857-0.008,3.067-0.201,3.627-0.578
		c0.561-0.377,0.842-0.943,0.842-1.697c0-0.431-0.113-0.791-0.338-1.082c-0.225-0.29-0.55-0.493-0.975-0.609
		c-0.425-0.116-1.287-0.174-2.587-0.174L180.654,85.462z"/>
	<path d="M190.729,78.154h3.347l3.272,13.2l7.076-13.2h3.692l-9.788,18.283h-3.067L190.729,78.154z"/>
	<path d="M210.466,78.154h3.357l-2.561,18.283h-3.295L210.466,78.154z"/>
	<path d="M233.312,80.521l-2.498,2.316c-0.539-0.621-1.198-1.099-1.977-1.434c-0.779-0.335-1.624-0.503-2.536-0.503
		c-1.275,0-2.498,0.327-3.666,0.981c-1.169,0.654-2.078,1.519-2.729,2.595s-0.976,2.223-0.976,3.439
		c0,1.656,0.571,3.032,1.715,4.129c1.144,1.097,2.61,1.645,4.4,1.645c1.914,0,3.571-0.555,4.972-1.666l2.026,2.672
		c-2.08,1.467-4.487,2.2-7.222,2.2c-1.923,0-3.557-0.365-4.903-1.094s-2.428-1.8-3.244-3.213s-1.225-2.944-1.225-4.593
		c0-1.765,0.482-3.457,1.448-5.077c0.965-1.62,2.272-2.896,3.922-3.829c1.648-0.932,3.446-1.398,5.394-1.398
		C228.948,77.694,231.314,78.636,233.312,80.521z"/>
	<path d="M237.363,78.154h9.832l-0.422,3.244h-6.379l-0.524,3.779h6.413l-0.418,3.219h-6.442l-0.672,4.847h6.484l-0.414,3.194
		h-9.956L237.363,78.154z"/>
</g>
<g>
	<rect x="95.943" y="125.667" fill="#414042" width="7.333" height="7"/>
	<rect x="95.943" y="137.333" fill="#414042" width="7.333" height="7"/>
	<rect x="95.943" y="149" fill="#414042" width="7.333" height="7"/>
	<g>
		<g>
			<path d="M118.059,169.664h2.508l3.945,15.835h-2.885l-0.839-3.369h-6.283l-1.801,3.369h-3.198L118.059,169.664z M120.057,179.331
				l-1.266-5.216l-2.789,5.216H120.057z"/>
			<path d="M128.883,169.664h2.962l-1.325,9.774c-0.115,0.854-0.172,1.457-0.172,1.809c0,0.596,0.185,1.061,0.555,1.394
				c0.37,0.334,0.906,0.501,1.61,0.501c0.567,0,1.063-0.126,1.486-0.377c0.316-0.187,0.569-0.497,0.76-0.931
				c0.19-0.435,0.375-1.298,0.555-2.59l1.309-9.58h2.996l-1.281,9.452c-0.265,1.944-0.614,3.341-1.044,4.188
				c-0.431,0.847-1.054,1.49-1.868,1.932c-0.815,0.441-1.807,0.662-2.977,0.662c-1.579,0-2.81-0.42-3.693-1.26
				s-1.324-1.987-1.324-3.444c0-0.632,0.086-1.564,0.258-2.799L128.883,169.664z"/>
			<path d="M141.037,169.664h9.667l-0.345,2.82h-3.301l-1.778,13.015h-2.952l1.779-13.015h-3.437L141.037,169.664z"/>
			<path d="M152.339,169.664h2.983l-0.825,5.975h5.433l0.817-5.975h2.993l-2.186,15.835h-2.972l0.982-7.191h-5.437l-0.992,7.191
				h-2.96L152.339,169.664z"/>
			<path d="M174.612,169.266c2.175,0,3.969,0.699,5.383,2.099c1.413,1.399,2.12,3.176,2.12,5.329c0,1.65-0.418,3.206-1.254,4.667
				c-0.836,1.46-1.948,2.581-3.337,3.363s-2.983,1.174-4.785,1.174c-2.254,0-4.053-0.668-5.398-2.002
				c-1.346-1.335-2.019-3.094-2.019-5.275c0-2.476,0.804-4.604,2.411-6.384C169.527,170.256,171.82,169.266,174.612,169.266z
				 M174.505,172.075c-1.134,0-2.169,0.274-3.105,0.823s-1.692,1.339-2.267,2.368c-0.574,1.03-0.861,2.094-0.861,3.192
				c0,1.299,0.398,2.4,1.195,3.305s1.941,1.356,3.434,1.356c1.729,0,3.199-0.61,4.408-1.83c1.21-1.22,1.814-2.702,1.814-4.446
				c0-1.442-0.426-2.598-1.275-3.466C176.997,172.51,175.883,172.075,174.505,172.075z"/>
			<path d="M186.034,169.664h2.75c1.697,0,2.893,0.146,3.584,0.44c0.863,0.366,1.515,0.874,1.953,1.523
				c0.438,0.648,0.658,1.418,0.658,2.308c0,1.098-0.326,2.039-0.978,2.824c-0.651,0.786-1.637,1.333-2.954,1.641l3.447,7.099h-3.079
				l-3.38-6.911h-0.243l-0.95,6.911h-2.973L186.034,169.664z M188.149,175.993c1.608-0.007,2.656-0.174,3.142-0.5
				c0.485-0.327,0.729-0.816,0.729-1.47c0-0.373-0.098-0.686-0.293-0.937c-0.194-0.251-0.476-0.427-0.844-0.527
				s-1.115-0.15-2.241-0.15L188.149,175.993z"/>
			<path d="M123.698,196.12h2.594l5.711,10.765l1.471-10.765h2.901l-2.153,15.835h-2.539l-5.786-10.884l-1.487,10.884h-2.854
				L123.698,196.12z"/>
			<path d="M145.397,196.12h2.508l3.945,15.835h-2.884l-0.84-3.369h-6.283l-1.801,3.369h-3.198L145.397,196.12z M147.395,205.787
				l-1.267-5.216l-2.789,5.216H147.395z"/>
			<path d="M157.441,196.12h2.696l2.687,11.034l5.474-11.034h2.563l0.215,15.835h-2.777l-0.129-9.474l-4.7,9.474h-2.27l-2.412-9.947
				l-2.527,9.947h-2.842L157.441,196.12z"/>
			<path d="M175.974,196.12h8.515l-0.364,2.81h-5.525l-0.454,3.272h5.555l-0.362,2.788h-5.579l-0.583,4.198h5.617l-0.359,2.767
				h-8.623L175.974,196.12z"/>
		</g>
		
			<rect x="92.11" y="113.667" fill="none" stroke="#414042" stroke-width="4" stroke-miterlimit="10" width="112.667" height="161.333"/>
		<rect x="95.943" y="160.666" fill="#414042" width="7.333" height="7"/>
		<rect x="95.943" y="172.332" fill="#414042" width="7.333" height="7"/>
		<rect x="95.943" y="183.998" fill="#414042" width="7.333" height="7"/>
		<rect x="95.943" y="195.664" fill="#414042" width="7.333" height="7"/>
		<rect x="95.943" y="207.33" fill="#414042" width="7.333" height="7"/>
		<rect x="95.943" y="218.996" fill="#414042" width="7.333" height="7"/>
		<rect x="95.943" y="230.662" fill="#414042" width="7.333" height="7"/>
	</g>
	<rect x="95.943" y="242.328" fill="#414042" width="7.333" height="7"/>
	<rect x="95.943" y="253.994" fill="#414042" width="7.333" height="7"/>
</g>
</svg>
