<?xml version="1.0" encoding="utf-8"?>
<!-- Generator: Adobe Illustrator 16.0.0, SVG Export Plug-In . SVG Version: 6.00 Build 0)  -->
<!DOCTYPE svg PUBLIC "-//W3C//DTD SVG 1.1//EN" "http://www.w3.org/Graphics/SVG/1.1/DTD/svg11.dtd">
<svg version="1.1" id="Layer_1" xmlns="http://www.w3.org/2000/svg" xmlns:xlink="http://www.w3.org/1999/xlink" x="0px" y="0px"
	 width="300px" height="300px" viewBox="0 0 300 300" enable-background="new 0 0 300 300" xml:space="preserve">
<g>
	<rect x="10.613" y="11.637" fill="#FFFFFF" width="278.387" height="276.726"/>
	
		<rect x="10.613" y="11.637" fill="none" stroke="#70737F" stroke-width="3" stroke-miterlimit="10" width="278.387" height="276.726"/>
</g>
<rect x="32.624" y="29.796" fill="none" stroke="#404459" stroke-width="2" stroke-miterlimit="10" width="238.461" height="6.912"/>
<rect x="91.126" y="128.984" transform="matrix(1 -0.0044 0.0044 1 -0.8612 0.6844)" fill="none" stroke="#404459" stroke-width="2" stroke-miterlimit="10" width="130.006" height="136.674"/>
<line fill="none" stroke="#404459" stroke-width="2" stroke-miterlimit="10" x1="90.559" y1="162.73" x2="126.026" y2="198.198"/>
<line fill="none" stroke="#404459" stroke-width="2" stroke-miterlimit="10" x1="126.026" y1="198.198" x2="92.313" y2="231.912"/>
<rect x="105" y="150" fill="none" stroke="#404459" stroke-width="2" stroke-miterlimit="10" width="102.982" height="7.667"/>
<rect x="105" y="240" fill="none" stroke="#404459" stroke-width="2" stroke-miterlimit="10" width="102.982" height="7.667"/>
<rect x="112.212" y="168" fill="none" stroke="#404459" stroke-width="2" stroke-miterlimit="10" width="102.981" height="7.667"/>
<rect x="112.212" y="224.245" fill="none" stroke="#404459" stroke-width="2" stroke-miterlimit="10" width="102.981" height="7.667"/>
<g>
	<path d="M38.504,48.111h2.706c1.647,0,2.871,0.178,3.671,0.534c0.8,0.355,1.445,0.909,1.936,1.66s0.735,1.561,0.735,2.431
		c0,0.728-0.173,1.413-0.52,2.057c-0.346,0.645-0.846,1.184-1.5,1.619c1.56,1.083,2.339,2.522,2.339,4.316
		c0,0.933-0.247,1.787-0.741,2.562c-0.494,0.774-1.105,1.346-1.833,1.713c-0.727,0.368-1.778,0.551-3.154,0.551h-6.024
		L38.504,48.111z M39.844,62.459l1.963,0.071c0.986,0,1.703-0.193,2.153-0.581c0.449-0.387,0.674-0.917,0.674-1.589
		c0-0.49-0.14-0.929-0.418-1.316s-0.649-0.66-1.111-0.818c-0.463-0.158-1.349-0.241-2.658-0.249L39.844,62.459z M40.843,55.036
		h0.586c0.875,0,1.47-0.065,1.783-0.195c0.313-0.131,0.579-0.374,0.798-0.729c0.219-0.356,0.328-0.751,0.328-1.186
		c0-0.403-0.097-0.751-0.291-1.044c-0.194-0.292-0.449-0.49-0.763-0.593c-0.314-0.103-0.953-0.154-1.916-0.154L40.843,55.036z"/>
	<path d="M52.769,48.111h3.03c1.87,0,3.186,0.162,3.948,0.486c0.951,0.403,1.668,0.962,2.151,1.677
		c0.483,0.715,0.725,1.563,0.725,2.542c0,1.209-0.359,2.247-1.077,3.112s-1.803,1.467-3.254,1.807l3.797,7.819h-3.391l-3.724-7.613
		h-0.268l-1.046,7.613h-3.274L52.769,48.111z M55.099,55.083c1.772-0.008,2.926-0.191,3.46-0.551
		c0.535-0.359,0.802-0.899,0.802-1.619c0-0.411-0.107-0.755-0.322-1.032c-0.215-0.276-0.524-0.47-0.93-0.581
		c-0.405-0.111-1.228-0.166-2.468-0.166L55.099,55.083z"/>
	<path d="M74.67,47.672c2.396,0,4.372,0.771,5.929,2.313c1.557,1.542,2.336,3.498,2.336,5.87c0,1.818-0.46,3.532-1.381,5.14
		c-0.921,1.609-2.146,2.844-3.676,3.706c-1.529,0.862-3.287,1.293-5.271,1.293c-2.482,0-4.465-0.735-5.947-2.206
		c-1.482-1.471-2.224-3.407-2.224-5.811c0-2.728,0.885-5.071,2.656-7.032C69.069,48.764,71.595,47.672,74.67,47.672z M74.552,50.768
		c-1.249,0-2.389,0.302-3.421,0.907c-1.032,0.605-1.864,1.475-2.496,2.609c-0.632,1.135-0.949,2.307-0.949,3.516
		c0,1.431,0.439,2.644,1.316,3.64s2.138,1.494,3.783,1.494c1.905,0,3.523-0.672,4.856-2.016c1.332-1.344,1.998-2.977,1.998-4.897
		c0-1.589-0.469-2.862-1.405-3.818C77.297,51.246,76.07,50.768,74.552,50.768z"/>
	<path d="M101.932,50.37l-2.383,2.21c-0.514-0.592-1.143-1.048-1.885-1.368c-0.743-0.32-1.55-0.48-2.419-0.48
		c-1.218,0-2.384,0.312-3.499,0.936c-1.114,0.624-1.982,1.45-2.603,2.476c-0.621,1.027-0.931,2.121-0.931,3.282
		c0,1.579,0.545,2.892,1.636,3.938s2.49,1.57,4.198,1.57c1.826,0,3.407-0.529,4.743-1.589l1.933,2.549
		c-1.984,1.399-4.281,2.099-6.889,2.099c-1.834,0-3.394-0.348-4.678-1.044c-1.285-0.695-2.316-1.717-3.095-3.065
		c-0.779-1.348-1.168-2.809-1.168-4.381c0-1.684,0.46-3.298,1.381-4.844c0.921-1.545,2.168-2.763,3.741-3.652
		c1.573-0.889,3.289-1.334,5.146-1.334C97.77,47.672,100.026,48.572,101.932,50.37z"/>
	<path d="M105.987,48.111h3.286l-0.908,6.581h5.984l0.899-6.581h3.298l-2.407,17.443h-3.274l1.083-7.921h-5.989l-1.093,7.921h-3.262
		L105.987,48.111z"/>
	<path d="M122.41,48.111h3.263l-1.459,10.767c-0.126,0.941-0.189,1.605-0.189,1.992c0,0.656,0.204,1.168,0.611,1.535
		c0.407,0.368,0.999,0.552,1.774,0.552c0.625,0,1.17-0.138,1.637-0.415c0.348-0.206,0.627-0.547,0.837-1.026
		c0.209-0.478,0.413-1.429,0.611-2.852l1.442-10.553h3.3l-1.41,10.412c-0.293,2.142-0.676,3.68-1.151,4.613
		c-0.474,0.933-1.16,1.642-2.058,2.128c-0.897,0.486-1.99,0.729-3.279,0.729c-1.739,0-3.095-0.463-4.067-1.388
		c-0.973-0.925-1.459-2.189-1.459-3.794c0-0.695,0.095-1.723,0.285-3.083L122.41,48.111z"/>
	<path d="M138.252,48.111h3.03c1.87,0,3.186,0.162,3.948,0.486c0.951,0.403,1.668,0.962,2.151,1.677
		c0.483,0.715,0.725,1.563,0.725,2.542c0,1.209-0.359,2.247-1.077,3.112s-1.803,1.467-3.254,1.807l3.797,7.819h-3.391l-3.724-7.613
		h-0.268l-1.046,7.613h-3.274L138.252,48.111z M140.583,55.083c1.772-0.008,2.926-0.191,3.46-0.551
		c0.535-0.359,0.802-0.899,0.802-1.619c0-0.411-0.107-0.755-0.322-1.032c-0.215-0.276-0.524-0.47-0.93-0.581
		c-0.405-0.111-1.228-0.166-2.468-0.166L140.583,55.083z"/>
	<path d="M151.948,48.111h9.38l-0.402,3.095h-6.086l-0.5,3.605h6.118l-0.398,3.071h-6.146l-0.642,4.625h6.188l-0.396,3.047h-9.499
		L151.948,48.111z"/>
	<path d="M171.585,48.111h2.765c2.591,0,4.519,0.306,5.782,0.919c1.265,0.613,2.292,1.575,3.084,2.887
		c0.791,1.313,1.188,2.826,1.188,4.542c0,1.763-0.421,3.382-1.264,4.856c-0.842,1.475-1.902,2.549-3.184,3.226
		c-1.28,0.676-3.06,1.014-5.336,1.014h-5.419L171.585,48.111z M174.457,51.183l-1.535,11.324H174c1.658,0,2.858-0.138,3.601-0.415
		c1.042-0.396,1.879-1.071,2.511-2.028s0.947-2.138,0.947-3.545c0-1.154-0.222-2.121-0.666-2.899
		c-0.443-0.778-1.07-1.379-1.88-1.802s-1.886-0.634-3.229-0.634H174.457z"/>
	<path d="M188.376,48.111h9.38l-0.402,3.095h-6.086l-0.5,3.605h6.118l-0.398,3.071h-6.146l-0.642,4.625h6.188l-0.396,3.047h-9.499
		L188.376,48.111z"/>
	<path d="M210.063,50.542l-2.384,2.111c-0.98-1.265-1.894-1.897-2.739-1.897c-0.419,0-0.767,0.125-1.043,0.374
		c-0.277,0.249-0.415,0.548-0.415,0.896c0,0.324,0.126,0.684,0.379,1.079s1.021,1.269,2.301,2.621c0.68,0.719,1.127,1.229,1.34,1.53
		c0.514,0.695,0.884,1.346,1.108,1.95c0.226,0.605,0.338,1.22,0.338,1.844c0,1.399-0.497,2.573-1.493,3.521
		c-0.996,0.949-2.273,1.423-3.83,1.423c-2.372,0-4.305-1.127-5.799-3.38l2.514-2.027c1.012,1.542,2.106,2.312,3.285,2.312
		c0.561,0,1.033-0.182,1.417-0.545c0.383-0.363,0.574-0.802,0.574-1.316c0-0.403-0.116-0.814-0.35-1.233s-0.899-1.209-1.998-2.372
		c-1.162-1.225-1.925-2.15-2.288-2.775c-0.49-0.846-0.735-1.676-0.735-2.49c0-1.075,0.352-2.04,1.056-2.893
		c0.885-1.067,2.079-1.601,3.581-1.601C206.944,47.672,208.672,48.629,210.063,50.542z"/>
	<path d="M213.704,48.111h3.203l-2.443,17.443h-3.144L213.704,48.111z"/>
	<path d="M235.701,51.368l-2.728,1.771c-0.791-0.901-1.554-1.528-2.289-1.879c-0.735-0.352-1.569-0.528-2.502-0.528
		c-2.016,0-3.656,0.811-4.921,2.431c-1.004,1.289-1.506,2.72-1.506,4.292c0,1.55,0.516,2.85,1.548,3.901
		c1.031,1.052,2.302,1.577,3.812,1.577c1.123,0,2.145-0.271,3.065-0.815c0.921-0.543,1.674-1.358,2.259-2.445h-5.442l0.403-3.095
		h8.822c-0.127,2.886-1.03,5.176-2.71,6.872c-1.68,1.696-3.82,2.544-6.421,2.544c-2.83,0-5.056-0.98-6.676-2.941
		c-1.305-1.573-1.957-3.447-1.957-5.621c0-2.648,0.955-4.937,2.864-6.866s4.184-2.894,6.824-2.894c0.979,0,1.937,0.143,2.869,0.428
		c0.933,0.286,1.774,0.686,2.526,1.201C234.294,49.815,235.013,50.505,235.701,51.368z"/>
	<path d="M241.023,48.111h2.857l6.291,11.858l1.62-11.858h3.195l-2.371,17.443h-2.797l-6.374-11.988l-1.638,11.988h-3.144
		L241.023,48.111z"/>
	<path d="M267.847,50.542l-2.384,2.111c-0.98-1.265-1.894-1.897-2.739-1.897c-0.419,0-0.767,0.125-1.043,0.374
		c-0.277,0.249-0.415,0.548-0.415,0.896c0,0.324,0.126,0.684,0.379,1.079s1.021,1.269,2.301,2.621c0.68,0.719,1.127,1.229,1.34,1.53
		c0.514,0.695,0.884,1.346,1.108,1.95c0.226,0.605,0.338,1.22,0.338,1.844c0,1.399-0.497,2.573-1.493,3.521
		c-0.996,0.949-2.273,1.423-3.83,1.423c-2.372,0-4.305-1.127-5.799-3.38l2.514-2.027c1.012,1.542,2.106,2.312,3.285,2.312
		c0.561,0,1.033-0.182,1.417-0.545c0.383-0.363,0.574-0.802,0.574-1.316c0-0.403-0.116-0.814-0.35-1.233s-0.899-1.209-1.998-2.372
		c-1.162-1.225-1.925-2.15-2.288-2.775c-0.49-0.846-0.735-1.676-0.735-2.49c0-1.075,0.352-2.04,1.056-2.893
		c0.885-1.067,2.079-1.601,3.581-1.601C264.728,47.672,266.455,48.629,267.847,50.542z"/>
	<path d="M116.559,79.684l-2.383,2.111c-0.98-1.265-1.894-1.897-2.739-1.897c-0.419,0-0.767,0.125-1.043,0.374
		c-0.277,0.249-0.415,0.548-0.415,0.896c0,0.324,0.126,0.684,0.379,1.079c0.253,0.396,1.02,1.269,2.3,2.621
		c0.68,0.719,1.126,1.229,1.34,1.53c0.514,0.695,0.883,1.346,1.109,1.95c0.225,0.605,0.338,1.22,0.338,1.844
		c0,1.399-0.498,2.573-1.494,3.521c-0.996,0.949-2.273,1.423-3.83,1.423c-2.372,0-4.304-1.127-5.798-3.38l2.514-2.027
		c1.012,1.542,2.107,2.312,3.285,2.312c0.561,0,1.034-0.182,1.417-0.545c0.383-0.363,0.575-0.802,0.575-1.316
		c0-0.403-0.117-0.814-0.35-1.233c-0.233-0.419-0.899-1.209-1.998-2.372c-1.162-1.225-1.925-2.15-2.289-2.775
		c-0.491-0.846-0.735-1.676-0.735-2.49c0-1.075,0.352-2.04,1.055-2.893c0.885-1.067,2.079-1.601,3.581-1.601
		C113.44,76.814,115.167,77.771,116.559,79.684z"/>
	<path d="M120.127,77.253h9.379l-0.401,3.095h-6.086l-0.5,3.605h6.119l-0.398,3.071h-6.146l-0.642,4.625h6.187l-0.396,3.047h-9.498
		L120.127,77.253z"/>
	<path d="M133.147,77.253h3.03c1.87,0,3.186,0.162,3.948,0.486c0.951,0.403,1.668,0.962,2.151,1.677
		c0.483,0.715,0.725,1.563,0.725,2.542c0,1.209-0.359,2.247-1.077,3.112s-1.803,1.467-3.254,1.807l3.797,7.819h-3.391l-3.724-7.613
		h-0.268l-1.046,7.613h-3.274L133.147,77.253z M135.478,84.226c1.772-0.008,2.926-0.191,3.46-0.551
		c0.535-0.359,0.802-0.899,0.802-1.619c0-0.411-0.107-0.755-0.322-1.032c-0.215-0.276-0.524-0.47-0.93-0.581
		c-0.405-0.111-1.228-0.166-2.468-0.166L135.478,84.226z"/>
	<path d="M145.088,77.253h3.193l3.121,12.593l6.751-12.593h3.522l-9.337,17.443h-2.927L145.088,77.253z"/>
	<path d="M163.919,77.253h3.203l-2.443,17.443h-3.144L163.919,77.253z"/>
	<path d="M185.714,79.512l-2.384,2.21c-0.514-0.592-1.142-1.048-1.885-1.368s-1.55-0.48-2.419-0.48
		c-1.218,0-2.384,0.312-3.498,0.936c-1.115,0.624-1.982,1.45-2.604,2.476c-0.62,1.027-0.931,2.121-0.931,3.282
		c0,1.579,0.546,2.892,1.637,3.938s2.49,1.57,4.197,1.57c1.826,0,3.407-0.529,4.743-1.589l1.934,2.549
		c-1.984,1.399-4.281,2.099-6.89,2.099c-1.834,0-3.394-0.348-4.678-1.044c-1.285-0.695-2.316-1.717-3.096-3.065
		c-0.778-1.348-1.168-2.809-1.168-4.381c0-1.684,0.461-3.298,1.382-4.844c0.921-1.545,2.168-2.763,3.741-3.652
		c1.573-0.889,3.288-1.334,5.146-1.334C181.552,76.814,183.809,77.714,185.714,79.512z"/>
	<path d="M189.579,77.253h9.38l-0.402,3.095h-6.086l-0.5,3.605h6.118l-0.398,3.071h-6.146l-0.642,4.625h6.188l-0.396,3.047h-9.499
		L189.579,77.253z"/>
</g>
</svg>
