<?xml version="1.0" encoding="utf-8"?>
<!-- Generator: Adobe Illustrator 16.0.0, SVG Export Plug-In . SVG Version: 6.00 Build 0)  -->
<!DOCTYPE svg PUBLIC "-//W3C//DTD SVG 1.1//EN" "http://www.w3.org/Graphics/SVG/1.1/DTD/svg11.dtd">
<svg version="1.1" id="Layer_1" xmlns="http://www.w3.org/2000/svg" xmlns:xlink="http://www.w3.org/1999/xlink" x="0px" y="0px"
	 width="300px" height="300px" viewBox="0 0 300 300" enable-background="new 0 0 300 300" xml:space="preserve">
<g>
	<rect x="10.613" y="11.637" fill="#FFFFFF" width="278.387" height="276.726"/>
	
		<rect x="10.613" y="11.637" fill="none" stroke="#70737F" stroke-width="3" stroke-miterlimit="10" width="278.387" height="276.726"/>
</g>
<rect x="28.306" y="27.632" fill="none" stroke="#404459" stroke-width="2" stroke-miterlimit="10" width="241.387" height="6.912"/>
<g>
	
		<rect x="89.166" y="145.5" fill="none" stroke="#414042" stroke-width="4" stroke-miterlimit="10" width="121.668" height="121.667"/>
	<circle fill="none" stroke="#414042" stroke-width="4" stroke-miterlimit="10" cx="150" cy="206.334" r="48.5"/>
	<circle fill="none" stroke="#414042" stroke-width="4" stroke-miterlimit="10" cx="150" cy="206.334" r="8.5"/>
</g>
<g>
	<path d="M66.802,47.025h2.964c2.778,0,4.845,0.329,6.201,0.985c1.355,0.657,2.458,1.689,3.306,3.096
		c0.849,1.407,1.273,3.031,1.273,4.87c0,1.891-0.451,3.626-1.354,5.207s-2.041,2.733-3.414,3.458
		c-1.373,0.725-3.28,1.087-5.722,1.087h-5.811L66.802,47.025z M69.882,50.318l-1.646,12.143h1.156c1.778,0,3.065-0.148,3.861-0.445
		c1.118-0.424,2.015-1.148,2.692-2.174c0.677-1.026,1.016-2.293,1.016-3.802c0-1.238-0.238-2.274-0.714-3.109
		s-1.148-1.479-2.016-1.933c-0.868-0.454-2.022-0.68-3.463-0.68H69.882z"/>
	<path d="M82.923,47.025h3.424l3.347,13.503l7.239-13.503h3.777L90.698,65.729H87.56L82.923,47.025z"/>
	<path d="M103.268,47.025h2.964c2.778,0,4.845,0.329,6.201,0.985c1.355,0.657,2.458,1.689,3.306,3.096
		c0.849,1.407,1.273,3.031,1.273,4.87c0,1.891-0.451,3.626-1.354,5.207s-2.041,2.733-3.414,3.458
		c-1.373,0.725-3.28,1.087-5.722,1.087h-5.811L103.268,47.025z M106.348,50.318l-1.646,12.143h1.156
		c1.778,0,3.065-0.148,3.861-0.445c1.118-0.424,2.015-1.148,2.692-2.174c0.677-1.026,1.016-2.293,1.016-3.802
		c0-1.238-0.238-2.274-0.714-3.109s-1.148-1.479-2.016-1.933c-0.868-0.454-2.022-0.68-3.463-0.68H106.348z"/>
	<path d="M144.718,49.447l-2.556,2.37c-0.551-0.635-1.225-1.124-2.022-1.467s-1.661-0.515-2.594-0.515
		c-1.305,0-2.556,0.334-3.75,1.003c-1.195,0.669-2.126,1.554-2.791,2.655c-0.666,1.101-0.998,2.274-0.998,3.519
		c0,1.694,0.584,3.102,1.754,4.224s2.67,1.683,4.501,1.683c1.958,0,3.653-0.568,5.086-1.704l2.073,2.733
		c-2.128,1.5-4.59,2.25-7.387,2.25c-1.967,0-3.639-0.373-5.016-1.119s-2.484-1.841-3.319-3.287s-1.252-3.011-1.252-4.698
		c0-1.806,0.494-3.537,1.481-5.194s2.325-2.963,4.012-3.917c1.687-0.954,3.526-1.43,5.518-1.43
		C140.255,46.555,142.675,47.519,144.718,49.447z"/>
	<path d="M157.662,46.555c2.568,0,4.688,0.826,6.357,2.479c1.67,1.653,2.505,3.75,2.505,6.293c0,1.95-0.494,3.787-1.481,5.512
		s-2.302,3.049-3.941,3.973c-1.641,0.924-3.524,1.386-5.652,1.386c-2.662,0-4.787-0.788-6.376-2.365s-2.384-3.653-2.384-6.23
		c0-2.924,0.949-5.438,2.848-7.54C151.656,47.724,154.364,46.555,157.662,46.555z M157.535,49.873c-1.34,0-2.563,0.324-3.669,0.973
		s-1.998,1.581-2.677,2.797c-0.678,1.216-1.017,2.473-1.017,3.77c0,1.534,0.471,2.835,1.412,3.903
		c0.941,1.068,2.293,1.602,4.056,1.602c2.043,0,3.779-0.72,5.207-2.162c1.429-1.441,2.143-3.191,2.143-5.251
		c0-1.704-0.502-3.068-1.507-4.094C160.479,50.386,159.162,49.873,157.535,49.873z"/>
	<path d="M168.85,47.025h3.425l3.347,13.503l7.239-13.503h3.777l-10.013,18.704h-3.139L168.85,47.025z"/>
	<path d="M188.966,47.025h10.058l-0.431,3.319h-6.526l-0.536,3.865h6.561l-0.428,3.293h-6.59l-0.688,4.959h6.635l-0.425,3.268
		H186.41L188.966,47.025z"/>
	<path d="M202.927,47.025h3.248c2.005,0,3.416,0.174,4.233,0.521c1.02,0.432,1.789,1.031,2.307,1.798
		c0.519,0.767,0.777,1.675,0.777,2.726c0,1.297-0.385,2.409-1.154,3.336s-1.933,1.574-3.489,1.938l4.071,8.384h-3.636l-3.993-8.163
		h-0.287l-1.122,8.163h-3.511L202.927,47.025z M205.425,54.501c1.9-0.008,3.138-0.206,3.711-0.591s0.86-0.964,0.86-1.736
		c0-0.44-0.115-0.809-0.346-1.106c-0.229-0.296-0.562-0.504-0.997-0.623c-0.435-0.119-1.316-0.178-2.646-0.178L205.425,54.501z"/>
	<path d="M227.326,49.631l-2.556,2.264c-1.051-1.356-2.03-2.035-2.937-2.035c-0.449,0-0.822,0.134-1.119,0.4
		c-0.297,0.267-0.445,0.587-0.445,0.96c0,0.348,0.136,0.733,0.407,1.157s1.094,1.36,2.467,2.81c0.729,0.771,1.208,1.318,1.437,1.64
		c0.551,0.746,0.947,1.443,1.188,2.092c0.242,0.648,0.362,1.308,0.362,1.977c0,1.5-0.533,2.759-1.602,3.776
		c-1.068,1.017-2.438,1.525-4.107,1.525c-2.543,0-4.615-1.208-6.217-3.624l2.695-2.174c1.085,1.653,2.259,2.479,3.521,2.479
		c0.603,0,1.108-0.195,1.52-0.585c0.411-0.39,0.617-0.86,0.617-1.411c0-0.433-0.125-0.873-0.375-1.322s-0.965-1.297-2.143-2.543
		c-1.246-1.314-2.064-2.306-2.454-2.976c-0.525-0.907-0.788-1.797-0.788-2.67c0-1.153,0.377-2.187,1.132-3.103
		c0.949-1.144,2.229-1.716,3.84-1.716C223.982,46.555,225.834,47.58,227.326,49.631z"/>
	<path d="M47.806,78.273h2.964c2.778,0,4.845,0.329,6.201,0.985c1.355,0.657,2.458,1.689,3.306,3.096
		c0.849,1.407,1.273,3.031,1.273,4.87c0,1.891-0.451,3.626-1.354,5.207s-2.041,2.733-3.414,3.458
		c-1.373,0.725-3.28,1.087-5.722,1.087H45.25L47.806,78.273z M50.886,81.566L49.24,93.709h1.156c1.778,0,3.065-0.148,3.861-0.445
		c1.118-0.424,2.015-1.148,2.692-2.174c0.677-1.026,1.016-2.293,1.016-3.802c0-1.238-0.238-2.274-0.714-3.109
		s-1.148-1.479-2.016-1.933c-0.868-0.454-2.022-0.68-3.463-0.68H50.886z"/>
	<path d="M65.81,78.273h10.058l-0.431,3.319H68.91l-0.537,3.865h6.561l-0.427,3.293h-6.59l-0.688,4.959h6.634l-0.424,3.268H63.254
		L65.81,78.273z"/>
	<path d="M89.065,80.879l-2.556,2.264c-1.051-1.356-2.03-2.035-2.938-2.035c-0.449,0-0.822,0.134-1.119,0.4
		c-0.297,0.267-0.445,0.587-0.445,0.96c0,0.348,0.136,0.733,0.407,1.157c0.271,0.424,1.093,1.36,2.466,2.81
		c0.729,0.771,1.208,1.318,1.437,1.64c0.551,0.746,0.947,1.443,1.189,2.092c0.241,0.648,0.362,1.308,0.362,1.977
		c0,1.5-0.534,2.759-1.602,3.776c-1.068,1.017-2.437,1.525-4.107,1.525c-2.543,0-4.616-1.208-6.218-3.624l2.696-2.174
		c1.085,1.653,2.259,2.479,3.522,2.479c0.602,0,1.108-0.195,1.52-0.585c0.411-0.39,0.617-0.86,0.617-1.411
		c0-0.433-0.125-0.873-0.375-1.322s-0.964-1.297-2.142-2.543c-1.246-1.314-2.064-2.306-2.454-2.976
		c-0.526-0.907-0.788-1.797-0.788-2.67c0-1.153,0.377-2.187,1.131-3.103c0.949-1.144,2.229-1.716,3.84-1.716
		C85.721,77.803,87.573,78.828,89.065,80.879z"/>
	<path d="M92.968,78.273h3.435l-2.62,18.704h-3.371L92.968,78.273z"/>
	<path d="M116.555,81.766l-2.925,1.898c-0.848-0.966-1.666-1.638-2.454-2.015c-0.789-0.377-1.683-0.566-2.683-0.566
		c-2.162,0-3.92,0.869-5.276,2.606c-1.077,1.382-1.615,2.916-1.615,4.603c0,1.661,0.553,3.056,1.659,4.183
		c1.106,1.127,2.469,1.691,4.088,1.691c1.203,0,2.299-0.291,3.287-0.874c0.987-0.583,1.795-1.457,2.422-2.623h-5.836l0.433-3.318
		h9.459c-0.136,3.094-1.104,5.55-2.905,7.368s-4.096,2.727-6.885,2.727c-3.035,0-5.421-1.051-7.159-3.153
		c-1.398-1.687-2.098-3.696-2.098-6.027c0-2.84,1.024-5.293,3.071-7.362c2.047-2.068,4.486-3.103,7.317-3.103
		c1.051,0,2.077,0.153,3.077,0.458c1,0.306,1.903,0.735,2.708,1.287S115.817,80.84,116.555,81.766z"/>
	<path d="M122.262,78.273h3.064l6.745,12.715l1.737-12.715h3.426l-2.543,18.704h-2.999l-6.834-12.854l-1.757,12.854h-3.371
		L122.262,78.273z"/>
	<path d="M158.311,80.879l-2.556,2.264c-1.052-1.356-2.03-2.035-2.938-2.035c-0.449,0-0.822,0.134-1.119,0.4
		c-0.297,0.267-0.445,0.587-0.445,0.96c0,0.348,0.136,0.733,0.407,1.157s1.094,1.36,2.467,2.81c0.729,0.771,1.208,1.318,1.437,1.64
		c0.551,0.746,0.947,1.443,1.189,2.092c0.241,0.648,0.362,1.308,0.362,1.977c0,1.5-0.534,2.759-1.603,3.776
		c-1.068,1.017-2.437,1.525-4.106,1.525c-2.543,0-4.616-1.208-6.218-3.624l2.696-2.174c1.085,1.653,2.259,2.479,3.522,2.479
		c0.602,0,1.107-0.195,1.52-0.585c0.411-0.39,0.616-0.86,0.616-1.411c0-0.433-0.125-0.873-0.375-1.322s-0.965-1.297-2.143-2.543
		c-1.246-1.314-2.064-2.306-2.454-2.976c-0.526-0.907-0.788-1.797-0.788-2.67c0-1.153,0.377-2.187,1.131-3.103
		c0.949-1.144,2.23-1.716,3.84-1.716C154.966,77.803,156.818,78.828,158.311,80.879z"/>
	<path d="M162.138,78.273h10.058l-0.431,3.319h-6.526l-0.536,3.865h6.561l-0.428,3.293h-6.59l-0.688,4.959h6.635l-0.425,3.268
		h-10.185L162.138,78.273z"/>
	<path d="M176.099,78.273h3.248c2.005,0,3.416,0.174,4.233,0.521c1.02,0.432,1.789,1.031,2.307,1.798
		c0.519,0.767,0.777,1.675,0.777,2.726c0,1.297-0.385,2.409-1.154,3.336s-1.933,1.574-3.489,1.938l4.071,8.384h-3.636l-3.993-8.163
		h-0.287l-1.122,8.163h-3.511L176.099,78.273z M178.597,85.75c1.9-0.008,3.138-0.206,3.711-0.591s0.86-0.964,0.86-1.736
		c0-0.44-0.115-0.809-0.346-1.106c-0.229-0.296-0.562-0.504-0.997-0.623c-0.435-0.119-1.316-0.178-2.646-0.178L178.597,85.75z"/>
	<path d="M188.901,78.273h3.425l3.347,13.503l7.239-13.503h3.777l-10.013,18.704h-3.139L188.901,78.273z"/>
	<path d="M209.093,78.273h3.435l-2.62,18.704h-3.37L209.093,78.273z"/>
	<path d="M232.463,80.695l-2.556,2.37c-0.551-0.635-1.225-1.124-2.021-1.467s-1.661-0.515-2.594-0.515
		c-1.306,0-2.556,0.334-3.751,1.003c-1.195,0.669-2.125,1.554-2.791,2.655c-0.665,1.101-0.998,2.274-0.998,3.519
		c0,1.694,0.585,3.102,1.755,4.224s2.67,1.683,4.501,1.683c1.958,0,3.653-0.568,5.086-1.704l2.072,2.733
		c-2.127,1.5-4.59,2.25-7.387,2.25c-1.967,0-3.639-0.373-5.017-1.119c-1.377-0.746-2.483-1.841-3.318-3.287
		s-1.252-3.011-1.252-4.698c0-1.806,0.493-3.537,1.481-5.194c0.987-1.657,2.324-2.963,4.011-3.917
		c1.688-0.954,3.526-1.43,5.519-1.43C228,77.803,230.42,78.767,232.463,80.695z"/>
	<path d="M236.608,78.273h10.058l-0.431,3.319h-6.526l-0.536,3.865h6.561l-0.428,3.293h-6.59l-0.688,4.959h6.635l-0.425,3.268
		h-10.185L236.608,78.273z"/>
</g>
</svg>
