<?xml version="1.0" encoding="utf-8"?>
<!-- Generator: Adobe Illustrator 16.0.0, SVG Export Plug-In . SVG Version: 6.00 Build 0)  -->
<!DOCTYPE svg PUBLIC "-//W3C//DTD SVG 1.1//EN" "http://www.w3.org/Graphics/SVG/1.1/DTD/svg11.dtd">
<svg version="1.1" id="Layer_1" xmlns="http://www.w3.org/2000/svg" xmlns:xlink="http://www.w3.org/1999/xlink" x="0px" y="0px"
	 width="300px" height="300px" viewBox="0 0 300 300" enable-background="new 0 0 300 300" xml:space="preserve">
<g>
	<rect x="10.613" y="11.637" fill="#FFFFFF" width="278.387" height="276.726"/>
	
		<rect x="10.613" y="11.637" fill="none" stroke="#70737F" stroke-width="3" stroke-miterlimit="10" width="278.387" height="276.726"/>
</g>
<rect x="22" y="89.044" fill="none" stroke="#404459" stroke-width="2" stroke-miterlimit="10" width="130.807" height="6.912"/>
<rect x="22" y="183.044" fill="none" stroke="#404459" stroke-width="2" stroke-miterlimit="10" width="130.807" height="6.912"/>
<rect x="169" y="23.5" fill="none" stroke="#404459" stroke-width="2" stroke-miterlimit="10" width="112.113" height="253"/>
<g>
	<path d="M30.35,111.296h2.208l-1.685,12.025h-2.167L30.35,111.296z"/>
	<path d="M35.123,111.296h1.97l4.337,8.175l1.117-8.175h2.203l-1.635,12.025h-1.928l-4.394-8.265l-1.129,8.265h-2.167
		L35.123,111.296z"/>
	<path d="M47.386,111.296h5.862l-0.277,2.134h-3.585l-0.36,2.485h3.623l-0.275,2.118h-3.624l-0.731,5.289h-2.274L47.386,111.296z"/>
	<path d="M61.063,110.994c1.651,0,3.014,0.532,4.087,1.594c1.074,1.063,1.61,2.412,1.61,4.047c0,1.253-0.317,2.435-0.952,3.544
		c-0.635,1.109-1.48,1.96-2.535,2.555c-1.054,0.594-2.266,0.891-3.634,0.891c-1.711,0-3.078-0.507-4.1-1.521
		s-1.533-2.349-1.533-4.005c0-1.88,0.61-3.496,1.831-4.848C57.202,111.746,58.943,110.994,61.063,110.994z M60.981,113.127
		c-0.861,0-1.647,0.208-2.358,0.625s-1.285,1.017-1.721,1.798c-0.436,0.782-0.654,1.59-0.654,2.424c0,0.987,0.303,1.823,0.908,2.51
		c0.605,0.687,1.474,1.03,2.608,1.03c1.313,0,2.429-0.463,3.348-1.39c0.918-0.927,1.377-2.052,1.377-3.376
		c0-1.095-0.323-1.973-0.969-2.632C62.874,113.458,62.028,113.127,60.981,113.127z"/>
	<path d="M79.997,113.542l-1.88,1.221c-0.545-0.622-1.071-1.053-1.578-1.296s-1.082-0.364-1.725-0.364
		c-1.39,0-2.521,0.559-3.393,1.676c-0.692,0.889-1.038,1.875-1.038,2.959c0,1.068,0.355,1.965,1.067,2.689
		c0.711,0.725,1.587,1.087,2.628,1.087c0.773,0,1.478-0.188,2.113-0.562c0.635-0.375,1.154-0.937,1.557-1.686h-3.752l0.278-2.134
		h6.083c-0.087,1.989-0.71,3.568-1.868,4.737s-2.634,1.753-4.427,1.753c-1.951,0-3.485-0.675-4.603-2.027
		c-0.899-1.084-1.349-2.376-1.349-3.875c0-1.826,0.658-3.403,1.974-4.733c1.316-1.33,2.884-1.995,4.705-1.995
		c0.676,0,1.335,0.099,1.979,0.295c0.643,0.197,1.223,0.473,1.741,0.828C79.026,112.471,79.522,112.946,79.997,113.542z"/>
	<path d="M83.798,111.296h2.089c1.289,0,2.196,0.112,2.722,0.335c0.656,0.278,1.15,0.663,1.483,1.156
		c0.333,0.493,0.5,1.077,0.5,1.752c0,0.834-0.248,1.549-0.742,2.146c-0.495,0.596-1.243,1.012-2.244,1.246l2.618,5.391h-2.338
		l-2.567-5.249h-0.185l-0.722,5.249h-2.257L83.798,111.296z M85.404,116.103c1.222-0.005,2.017-0.132,2.386-0.38
		s0.553-0.62,0.553-1.116c0-0.284-0.074-0.521-0.222-0.711s-0.362-0.324-0.641-0.4c-0.28-0.077-0.847-0.115-1.702-0.115
		L85.404,116.103z"/>
	<path d="M97.471,111.296h1.905l2.996,12.025h-2.191l-0.638-2.559h-4.771l-1.368,2.559h-2.428L97.471,111.296z M98.988,118.638
		l-0.961-3.961l-2.118,3.961H98.988z"/>
	<path d="M105.781,111.296h2.11c1.281,0,2.186,0.112,2.712,0.335c0.651,0.278,1.146,0.665,1.482,1.161s0.505,1.076,0.505,1.741
		c0,0.73-0.197,1.391-0.591,1.982c-0.394,0.591-0.923,1.022-1.586,1.292c-0.664,0.27-1.768,0.416-3.312,0.438l-0.698,5.077h-2.265
		L105.781,111.296z M107.376,116.12c1.225-0.005,2.023-0.133,2.397-0.384c0.374-0.25,0.561-0.624,0.561-1.12
		c0-0.278-0.073-0.512-0.218-0.703c-0.146-0.19-0.362-0.324-0.648-0.4s-0.853-0.114-1.701-0.114L107.376,116.12z"/>
	<path d="M115.133,111.296h2.265l-0.626,4.537h4.125l0.62-4.537h2.273l-1.66,12.025h-2.257l0.747-5.461h-4.129l-0.753,5.461h-2.249
		L115.133,111.296z"/>
	<path d="M126.439,111.296h2.208l-1.685,12.025h-2.167L126.439,111.296z"/>
	<path d="M141.465,112.854l-1.644,1.523c-0.354-0.408-0.788-0.723-1.3-0.943c-0.512-0.22-1.068-0.331-1.667-0.331
		c-0.839,0-1.643,0.215-2.412,0.645s-1.367,1-1.794,1.707c-0.428,0.708-0.642,1.462-0.642,2.262c0,1.089,0.376,1.994,1.128,2.716
		c0.752,0.721,1.717,1.082,2.894,1.082c1.259,0,2.349-0.365,3.27-1.096l1.333,1.758c-1.368,0.965-2.951,1.447-4.75,1.447
		c-1.264,0-2.339-0.24-3.225-0.719c-0.886-0.479-1.597-1.184-2.134-2.113c-0.537-0.929-0.805-1.936-0.805-3.021
		c0-1.161,0.317-2.274,0.952-3.339s1.495-1.905,2.579-2.518s2.267-0.92,3.548-0.92C138.595,110.994,140.151,111.614,141.465,112.854
		z"/>
	<path d="M150.375,112.972l-1.643,1.455c-0.676-0.872-1.305-1.308-1.889-1.308c-0.289,0-0.528,0.086-0.719,0.258
		c-0.191,0.171-0.286,0.377-0.286,0.617c0,0.224,0.087,0.471,0.262,0.744c0.174,0.273,0.703,0.875,1.586,1.807
		c0.469,0.496,0.776,0.847,0.924,1.054c0.354,0.48,0.609,0.928,0.764,1.345c0.155,0.417,0.233,0.841,0.233,1.271
		c0,0.964-0.343,1.774-1.03,2.428c-0.687,0.654-1.567,0.981-2.641,0.981c-1.635,0-2.968-0.776-3.998-2.33l1.733-1.398
		c0.698,1.063,1.453,1.594,2.265,1.594c0.387,0,0.712-0.125,0.977-0.376c0.264-0.251,0.396-0.553,0.396-0.908
		c0-0.278-0.081-0.561-0.241-0.85c-0.161-0.289-0.62-0.834-1.377-1.635c-0.801-0.845-1.327-1.482-1.578-1.913
		c-0.338-0.583-0.507-1.156-0.507-1.717c0-0.741,0.243-1.406,0.728-1.995c0.61-0.736,1.434-1.104,2.469-1.104
		C148.226,110.994,149.416,111.653,150.375,112.972z"/>
	<path d="M61.582,131.387h1.906c1.786,0,3.115,0.211,3.987,0.633c0.871,0.422,1.58,1.086,2.125,1.991
		c0.546,0.905,0.819,1.949,0.819,3.131c0,1.215-0.291,2.331-0.871,3.348c-0.581,1.016-1.312,1.757-2.195,2.224
		c-0.883,0.466-2.109,0.699-3.679,0.699h-3.736L61.582,131.387z M63.563,133.504l-1.059,7.807h0.743c1.143,0,1.97-0.095,2.482-0.286
		c0.719-0.272,1.296-0.738,1.731-1.398c0.435-0.659,0.653-1.474,0.653-2.444c0-0.795-0.153-1.462-0.459-1.999
		c-0.306-0.537-0.738-0.951-1.296-1.243s-1.3-0.438-2.227-0.438H63.563z"/>
	<path d="M73.158,131.387h6.466l-0.277,2.134h-4.196l-0.345,2.485h4.218l-0.275,2.118h-4.237l-0.443,3.188h4.266l-0.273,2.101
		h-6.548L73.158,131.387z"/>
	<path d="M88.11,133.063l-1.643,1.455c-0.676-0.872-1.305-1.308-1.889-1.308c-0.289,0-0.528,0.086-0.719,0.258
		c-0.191,0.171-0.286,0.377-0.286,0.617c0,0.224,0.087,0.471,0.262,0.744c0.174,0.273,0.703,0.875,1.586,1.807
		c0.469,0.496,0.776,0.847,0.924,1.054c0.354,0.48,0.609,0.928,0.764,1.345c0.155,0.417,0.233,0.841,0.233,1.271
		c0,0.964-0.343,1.774-1.03,2.428c-0.687,0.654-1.567,0.981-2.641,0.981c-1.635,0-2.968-0.776-3.998-2.33l1.733-1.398
		c0.698,1.063,1.453,1.594,2.265,1.594c0.387,0,0.712-0.125,0.977-0.376c0.264-0.251,0.396-0.553,0.396-0.908
		c0-0.278-0.081-0.561-0.241-0.85c-0.161-0.289-0.62-0.834-1.377-1.635c-0.801-0.845-1.327-1.482-1.578-1.913
		c-0.338-0.583-0.507-1.156-0.507-1.717c0-0.741,0.243-1.406,0.728-1.995c0.61-0.736,1.434-1.104,2.469-1.104
		C85.96,131.084,87.15,131.744,88.11,133.063z"/>
	<path d="M90.62,131.387h2.208l-1.685,12.025h-2.167L90.62,131.387z"/>
	<path d="M105.785,133.633l-1.88,1.221c-0.545-0.622-1.071-1.053-1.578-1.296s-1.082-0.364-1.725-0.364
		c-1.39,0-2.521,0.559-3.393,1.676c-0.692,0.889-1.038,1.875-1.038,2.959c0,1.068,0.355,1.965,1.067,2.689
		c0.711,0.725,1.587,1.087,2.628,1.087c0.773,0,1.478-0.188,2.113-0.562c0.635-0.375,1.154-0.937,1.557-1.686h-3.752l0.278-2.134
		h6.083c-0.087,1.989-0.71,3.568-1.868,4.737s-2.634,1.753-4.427,1.753c-1.951,0-3.485-0.675-4.603-2.027
		c-0.899-1.084-1.349-2.376-1.349-3.875c0-1.826,0.658-3.403,1.974-4.733c1.316-1.33,2.884-1.995,4.705-1.995
		c0.676,0,1.335,0.099,1.979,0.295c0.643,0.197,1.223,0.473,1.741,0.828C104.814,132.562,105.311,133.037,105.785,133.633z"/>
	<path d="M109.454,131.387h1.97l4.337,8.175l1.117-8.175h2.203l-1.635,12.025h-1.928l-4.394-8.265l-1.129,8.265h-2.167
		L109.454,131.387z"/>
	<path d="M65.167,153.154l-1.643,1.455c-0.676-0.872-1.305-1.309-1.889-1.309c-0.289,0-0.528,0.086-0.719,0.258
		s-0.286,0.378-0.286,0.617c0,0.224,0.087,0.472,0.262,0.744c0.174,0.272,0.703,0.875,1.586,1.807
		c0.469,0.496,0.776,0.848,0.924,1.055c0.354,0.479,0.609,0.928,0.764,1.345s0.233,0.841,0.233,1.271
		c0,0.964-0.343,1.773-1.03,2.428c-0.687,0.654-1.567,0.98-2.641,0.98c-1.635,0-2.968-0.776-3.998-2.329l1.733-1.398
		c0.698,1.063,1.453,1.595,2.265,1.595c0.387,0,0.712-0.126,0.977-0.376c0.264-0.251,0.396-0.554,0.396-0.908
		c0-0.277-0.081-0.561-0.241-0.85c-0.161-0.289-0.62-0.834-1.377-1.636c-0.801-0.845-1.327-1.481-1.578-1.912
		c-0.338-0.584-0.507-1.155-0.507-1.717c0-0.741,0.243-1.406,0.728-1.995c0.61-0.735,1.434-1.104,2.469-1.104
		C63.017,151.176,64.208,151.835,65.167,153.154z"/>
	<path d="M67.628,151.479h6.466l-0.277,2.134h-4.196l-0.345,2.484h4.218l-0.275,2.118h-4.237l-0.443,3.188h4.266l-0.273,2.102
		h-6.548L67.628,151.479z"/>
	<path d="M76.604,151.479h2.089c1.289,0,2.196,0.111,2.722,0.335c0.656,0.277,1.15,0.663,1.483,1.156
		c0.333,0.493,0.5,1.077,0.5,1.752c0,0.834-0.248,1.549-0.742,2.146c-0.495,0.597-1.243,1.012-2.244,1.246l2.618,5.391h-2.338
		l-2.567-5.249h-0.185l-0.722,5.249H74.96L76.604,151.479z M78.21,156.285c1.222-0.006,2.017-0.132,2.386-0.38
		s0.553-0.62,0.553-1.116c0-0.283-0.074-0.521-0.222-0.711c-0.148-0.191-0.362-0.324-0.641-0.4c-0.28-0.077-0.847-0.115-1.702-0.115
		L78.21,156.285z"/>
	<path d="M84.835,151.479h2.202l2.152,8.682l4.654-8.682h2.429l-6.438,12.025h-2.018L84.835,151.479z"/>
	<path d="M97.818,151.479h2.208l-1.685,12.025h-2.167L97.818,151.479z"/>
	<path d="M112.844,153.035l-1.644,1.523c-0.354-0.408-0.788-0.723-1.3-0.943c-0.512-0.22-1.068-0.33-1.667-0.33
		c-0.839,0-1.643,0.215-2.412,0.645c-0.769,0.431-1.367,1-1.794,1.707c-0.428,0.708-0.642,1.462-0.642,2.263
		c0,1.089,0.376,1.994,1.128,2.716c0.752,0.721,1.717,1.082,2.894,1.082c1.259,0,2.349-0.365,3.27-1.096l1.333,1.758
		c-1.368,0.965-2.951,1.446-4.75,1.446c-1.264,0-2.339-0.239-3.225-0.719c-0.886-0.479-1.597-1.185-2.134-2.113
		c-0.537-0.93-0.805-1.937-0.805-3.021c0-1.161,0.317-2.274,0.952-3.34s1.495-1.904,2.579-2.518s2.267-0.92,3.548-0.92
		C109.975,151.176,111.53,151.796,112.844,153.035z"/>
	<path d="M115.509,151.479h6.466l-0.277,2.134h-4.196l-0.345,2.484h4.218l-0.275,2.118h-4.237l-0.443,3.188h4.266l-0.273,2.102
		h-6.548L115.509,151.479z"/>
</g>
<circle fill="#414042" cx="226.057" cy="61.5" r="26"/>
<circle fill="#414042" cx="226.057" cy="139.5" r="26"/>
<circle fill="#414042" cx="226.057" cy="217.5" r="26"/>
<rect x="222" y="66" fill="#414042" width="10" height="136.5"/>
</svg>
