<?xml version="1.0" encoding="utf-8"?>
<!-- Generator: Adobe Illustrator 16.0.0, SVG Export Plug-In . SVG Version: 6.00 Build 0)  -->
<!DOCTYPE svg PUBLIC "-//W3C//DTD SVG 1.1//EN" "http://www.w3.org/Graphics/SVG/1.1/DTD/svg11.dtd">
<svg version="1.1" id="Layer_1" xmlns="http://www.w3.org/2000/svg" xmlns:xlink="http://www.w3.org/1999/xlink" x="0px" y="0px"
	 width="300px" height="300px" viewBox="0 0 300 300" enable-background="new 0 0 300 300" xml:space="preserve">
<g>
	<rect x="10.613" y="11.637" fill="#FFFFFF" width="278.387" height="276.726"/>
	
		<rect x="10.613" y="11.637" fill="none" stroke="#70737F" stroke-width="3" stroke-miterlimit="10" width="278.387" height="276.726"/>
</g>
<rect x="26.404" y="27.632" fill="none" stroke="#404459" stroke-width="2" stroke-miterlimit="10" width="241.387" height="6.912"/>
<rect x="26.404" y="42.088" fill="none" stroke="#404459" stroke-width="2" stroke-miterlimit="10" width="241.387" height="6.912"/>
<rect x="26.404" y="56.544" fill="none" stroke="#404459" stroke-width="2" stroke-miterlimit="10" width="241.387" height="6.912"/>
<rect x="26.404" y="71" fill="none" stroke="#404459" stroke-width="2" stroke-miterlimit="10" width="241.387" height="6.912"/>
<rect x="26.404" y="223.387" fill="none" stroke="#404459" stroke-width="2" stroke-miterlimit="10" width="241.387" height="6.912"/>
<rect x="26.404" y="237.843" fill="none" stroke="#404459" stroke-width="2" stroke-miterlimit="10" width="241.387" height="6.912"/>
<rect x="26.404" y="252.299" fill="none" stroke="#404459" stroke-width="2" stroke-miterlimit="10" width="241.387" height="6.912"/>
<rect x="26.404" y="266.755" fill="none" stroke="#404459" stroke-width="2" stroke-miterlimit="10" width="241.387" height="6.912"/>
<g>
	<path d="M59.14,93.751h4.396l4.381,17.993l8.926-17.993h4.178l0.351,25.823h-4.529l-0.211-15.448l-7.664,15.448h-3.701
		l-3.934-16.221l-4.121,16.221h-4.635L59.14,93.751z"/>
	<path d="M98.445,93.751h4.09l6.434,25.823h-4.705l-1.369-5.495H92.65l-2.938,5.495h-5.215L98.445,93.751z M101.703,109.516
		l-2.064-8.505l-4.548,8.505H101.703z"/>
	<path d="M138.566,98.573l-4.038,2.621c-1.17-1.334-2.3-2.261-3.388-2.782c-1.088-0.521-2.323-0.781-3.704-0.781
		c-2.984,0-5.413,1.2-7.285,3.599c-1.486,1.908-2.229,4.026-2.229,6.355c0,2.294,0.764,4.219,2.291,5.775
		c1.527,1.557,3.409,2.335,5.644,2.335c1.662,0,3.174-0.402,4.538-1.207s2.478-2.011,3.344-3.621h-8.058l0.597-4.582h13.061
		c-0.188,4.272-1.524,7.663-4.011,10.173c-2.487,2.51-5.656,3.765-9.506,3.765c-4.19,0-7.484-1.451-9.883-4.354
		c-1.931-2.329-2.896-5.103-2.896-8.321c0-3.92,1.413-7.309,4.239-10.164c2.827-2.855,6.194-4.284,10.103-4.284
		c1.451,0,2.867,0.211,4.248,0.633c1.381,0.423,2.627,1.015,3.739,1.777C136.483,96.274,137.548,97.295,138.566,98.573z"/>
	<path d="M155.233,93.751h4.091l6.434,25.823h-4.705l-1.369-5.495h-10.245l-2.938,5.495h-5.215L155.233,93.751z M158.492,109.516
		l-2.064-8.505l-4.549,8.505H158.492z"/>
	<path d="M171.516,93.751h14.578l-10.245,21.329h8.113l-0.597,4.494h-14.746l10.259-21.276h-7.994L171.516,93.751z"/>
	<path d="M190.826,93.751h4.741l-3.617,25.823h-4.653L190.826,93.751z"/>
	<path d="M201.075,93.751h4.231l9.313,17.555l2.398-17.555h4.73l-3.511,25.823h-4.141l-9.436-17.748l-2.425,17.748h-4.653
		L201.075,93.751z"/>
	<path d="M227.375,93.751h13.886l-0.595,4.582h-9.011l-0.74,5.336h9.058l-0.59,4.547h-9.099l-0.95,6.846h9.159l-0.585,4.512h-14.062
		L227.375,93.751z"/>
	<path d="M112.375,140.237l-3.529,3.271c-0.761-0.876-1.691-1.552-2.791-2.025c-1.1-0.473-2.294-0.71-3.581-0.71
		c-1.802,0-3.528,0.462-5.179,1.386c-1.65,0.924-2.935,2.146-3.853,3.665c-0.919,1.521-1.378,3.14-1.378,4.858
		c0,2.338,0.808,4.281,2.423,5.831c1.615,1.549,3.687,2.323,6.214,2.323c2.703,0,5.044-0.783,7.022-2.352l2.861,3.773
		c-2.938,2.072-6.337,3.107-10.199,3.107c-2.715,0-5.024-0.515-6.925-1.545c-1.902-1.029-3.429-2.542-4.582-4.538
		c-1.153-1.995-1.729-4.157-1.729-6.486c0-2.492,0.682-4.883,2.045-7.171s3.209-4.09,5.539-5.407
		c2.329-1.316,4.869-1.975,7.619-1.975C106.213,136.244,109.554,137.575,112.375,140.237z"/>
	<path d="M130.245,136.244c3.546,0,6.472,1.142,8.777,3.424c2.305,2.281,3.458,5.178,3.458,8.689c0,2.691-0.682,5.229-2.045,7.609
		c-1.364,2.382-3.178,4.211-5.442,5.486c-2.265,1.275-4.866,1.913-7.803,1.913c-3.675,0-6.609-1.088-8.804-3.265
		s-3.292-5.044-3.292-8.603c0-4.037,1.311-7.507,3.932-10.409C121.953,137.859,125.692,136.244,130.245,136.244z M130.069,140.826
		c-1.849,0-3.537,0.447-5.064,1.343s-2.759,2.183-3.695,3.862c-0.937,1.68-1.404,3.414-1.404,5.205c0,2.118,0.649,3.914,1.949,5.389
		c1.299,1.475,3.166,2.212,5.6,2.212c2.82,0,5.217-0.994,7.189-2.984c1.972-1.989,2.958-4.406,2.958-7.25
		c0-2.352-0.694-4.236-2.081-5.652S132.316,140.826,130.069,140.826z"/>
	<path d="M145.692,136.894h4.728l4.621,18.644l9.994-18.644h5.215l-13.823,25.823h-4.334L145.692,136.894z"/>
	<path d="M173.465,136.894h13.886l-0.595,4.582h-9.011l-0.74,5.337h9.058l-0.59,4.547h-9.099l-0.95,6.846h9.159l-0.586,4.512
		h-14.061L173.465,136.894z"/>
	<path d="M192.739,136.894h4.485c2.769,0,4.717,0.24,5.845,0.72c1.408,0.597,2.47,1.424,3.185,2.483
		c0.716,1.059,1.073,2.313,1.073,3.763c0,1.79-0.531,3.325-1.594,4.606s-2.669,2.173-4.817,2.676l5.622,11.575h-5.021l-5.512-11.271
		h-0.397l-1.549,11.271h-4.848L192.739,136.894z M196.189,147.216c2.624-0.012,4.331-0.283,5.123-0.816
		c0.791-0.532,1.188-1.331,1.188-2.396c0-0.608-0.159-1.118-0.477-1.527c-0.317-0.41-0.776-0.696-1.377-0.86
		c-0.6-0.164-1.818-0.246-3.653-0.246L196.189,147.216z"/>
	<path d="M87.148,180.036h4.093c3.836,0,6.689,0.454,8.561,1.36c1.871,0.907,3.393,2.332,4.565,4.275
		c1.172,1.942,1.758,4.184,1.758,6.723c0,2.61-0.623,5.007-1.87,7.189c-1.246,2.183-2.817,3.773-4.713,4.774
		s-4.529,1.501-7.899,1.501H83.62L87.148,180.036z M91.401,184.583l-2.272,16.765h1.596c2.455,0,4.231-0.204,5.33-0.614
		c1.543-0.585,2.782-1.586,3.717-3.002c0.935-1.416,1.403-3.165,1.403-5.249c0-1.708-0.329-3.139-0.986-4.292
		c-0.657-1.152-1.585-2.042-2.783-2.668c-1.199-0.626-2.792-0.939-4.782-0.939H91.401z"/>
	<path d="M112.006,180.036h13.886l-0.595,4.582h-9.01l-0.741,5.337h9.058l-0.59,4.547h-9.099l-0.95,6.846h9.16l-0.586,4.512h-14.061
		L112.006,180.036z"/>
	<path d="M144.113,183.635l-3.528,3.125c-1.451-1.872-2.803-2.809-4.055-2.809c-0.621,0-1.135,0.185-1.545,0.553
		c-0.41,0.369-0.614,0.811-0.614,1.325c0,0.48,0.187,1.013,0.562,1.598c0.375,0.586,1.51,1.879,3.406,3.88
		c1.006,1.065,1.667,1.82,1.984,2.265c0.76,1.029,1.308,1.992,1.641,2.888s0.5,1.806,0.5,2.729c0,2.071-0.737,3.81-2.212,5.214
		s-3.365,2.106-5.67,2.106c-3.511,0-6.372-1.668-8.584-5.003l3.722-3.002c1.498,2.282,3.119,3.423,4.862,3.423
		c0.831,0,1.53-0.269,2.098-0.808c0.567-0.538,0.851-1.188,0.851-1.948c0-0.597-0.173-1.205-0.518-1.825
		c-0.346-0.62-1.332-1.791-2.958-3.512c-1.721-1.813-2.85-3.183-3.388-4.107c-0.726-1.252-1.088-2.48-1.088-3.687
		c0-1.592,0.521-3.02,1.563-4.283c1.311-1.58,3.078-2.37,5.301-2.37C139.497,179.387,142.053,180.803,144.113,183.635z"/>
	<path d="M149.503,180.036h4.741l-3.617,25.823h-4.653L149.503,180.036z"/>
	<path d="M182.066,184.858l-4.038,2.621c-1.17-1.334-2.3-2.262-3.388-2.782c-1.089-0.521-2.323-0.781-3.704-0.781
		c-2.984,0-5.413,1.2-7.285,3.599c-1.486,1.908-2.229,4.026-2.229,6.354c0,2.294,0.764,4.22,2.291,5.775
		c1.527,1.557,3.408,2.335,5.644,2.335c1.662,0,3.175-0.401,4.538-1.207c1.363-0.804,2.478-2.011,3.344-3.62h-8.058l0.598-4.582
		h13.061c-0.188,4.272-1.524,7.663-4.012,10.173c-2.486,2.511-5.655,3.766-9.506,3.766c-4.189,0-7.484-1.451-9.883-4.354
		c-1.932-2.329-2.896-5.103-2.896-8.321c0-3.92,1.413-7.308,4.239-10.164c2.826-2.855,6.193-4.283,10.103-4.283
		c1.451,0,2.867,0.211,4.248,0.634c1.381,0.422,2.627,1.015,3.739,1.776C179.983,182.56,181.048,183.58,182.066,184.858z"/>
	<path d="M189.946,180.036h4.23l9.313,17.555l2.398-17.555h4.73l-3.51,25.823h-4.141l-9.436-17.748l-2.425,17.748h-4.654
		L189.946,180.036z"/>
</g>
</svg>
