<?xml version="1.0" encoding="utf-8"?>
<!-- Generator: Adobe Illustrator 16.0.0, SVG Export Plug-In . SVG Version: 6.00 Build 0)  -->
<!DOCTYPE svg PUBLIC "-//W3C//DTD SVG 1.1//EN" "http://www.w3.org/Graphics/SVG/1.1/DTD/svg11.dtd">
<svg version="1.1" id="Layer_1" xmlns="http://www.w3.org/2000/svg" xmlns:xlink="http://www.w3.org/1999/xlink" x="0px" y="0px"
	 width="300px" height="300px" viewBox="0 0 300 300" enable-background="new 0 0 300 300" xml:space="preserve">
<g>
	<rect x="10.613" y="11.637" fill="#FFFFFF" width="278.387" height="276.726"/>
	
		<rect x="10.613" y="11.637" fill="none" stroke="#70737F" stroke-width="3" stroke-miterlimit="10" width="278.387" height="276.726"/>
</g>
<rect x="32.624" y="29.796" fill="none" stroke="#404459" stroke-width="2" stroke-miterlimit="10" width="238.461" height="6.912"/>
<polygon fill="none" stroke="#404459" stroke-width="2" stroke-miterlimit="10" points="149.905,265.373 55.19,265.941 
	54.756,129.269 149.468,128.701 "/>
<rect x="61.93" y="150" fill="none" stroke="#404459" stroke-width="2" stroke-miterlimit="10" width="75.028" height="7.667"/>
<rect x="61.93" y="240" fill="none" stroke="#404459" stroke-width="2" stroke-miterlimit="10" width="75.028" height="7.667"/>
<rect x="67.184" y="168" fill="none" stroke="#404459" stroke-width="2" stroke-miterlimit="10" width="75.027" height="7.667"/>
<rect x="67.184" y="224.245" fill="none" stroke="#404459" stroke-width="2" stroke-miterlimit="10" width="75.027" height="7.667"/>
<polygon fill="none" stroke="#404459" stroke-width="2" stroke-miterlimit="10" points="149.905,265.373 244.619,265.941 
	245.055,129.269 150.342,128.701 "/>
<rect x="162.593" y="150" fill="none" stroke="#404459" stroke-width="2" stroke-miterlimit="10" width="75.027" height="7.667"/>
<rect x="162.593" y="240" fill="none" stroke="#404459" stroke-width="2" stroke-miterlimit="10" width="75.027" height="7.667"/>
<rect x="157.34" y="168" fill="none" stroke="#404459" stroke-width="2" stroke-miterlimit="10" width="75.026" height="7.667"/>
<rect x="157.34" y="224.245" fill="none" stroke="#404459" stroke-width="2" stroke-miterlimit="10" width="75.026" height="7.667"/>
<g>
	<path d="M49.146,49.708h2.621l2.612,10.727L59.7,49.708h2.491L62.4,65.103h-2.7l-0.125-9.209l-4.569,9.209h-2.207l-2.345-9.67
		l-2.457,9.67h-2.763L49.146,49.708z"/>
	<path d="M67.162,49.708h8.278l-0.354,2.731h-5.372l-0.441,3.182h5.4l-0.352,2.71h-5.424l-0.566,4.082h5.46l-0.35,2.689h-8.382
		L67.162,49.708z"/>
	<path d="M78.484,49.708h2.522l5.552,10.465l1.43-10.465h2.82l-2.093,15.395h-2.468l-5.625-10.581l-1.445,10.581h-2.775
		L78.484,49.708z"/>
	<path d="M94.246,49.708h2.88l-1.288,9.503c-0.112,0.83-0.167,1.416-0.167,1.758c0,0.579,0.18,1.031,0.54,1.355
		c0.359,0.324,0.881,0.486,1.565,0.486c0.551,0,1.033-0.122,1.445-0.366c0.307-0.181,0.553-0.483,0.738-0.905
		c0.185-0.422,0.365-1.261,0.54-2.517l1.272-9.314h2.913l-1.245,9.189c-0.258,1.891-0.597,3.248-1.015,4.071
		c-0.419,0.823-1.024,1.449-1.816,1.878c-0.792,0.429-1.757,0.644-2.895,0.644c-1.535,0-2.732-0.408-3.59-1.225
		c-0.858-0.816-1.288-1.932-1.288-3.349c0-0.614,0.084-1.521,0.251-2.721L94.246,49.708z"/>
	<path d="M127.181,51.701l-2.104,1.951c-0.454-0.522-1.008-0.925-1.664-1.208s-1.368-0.423-2.135-0.423
		c-1.075,0-2.104,0.275-3.087,0.826c-0.984,0.551-1.75,1.279-2.297,2.185c-0.547,0.906-0.821,1.872-0.821,2.896
		c0,1.394,0.481,2.553,1.444,3.476c0.963,0.924,2.198,1.385,3.705,1.385c1.612,0,3.007-0.467,4.186-1.402l1.706,2.25
		c-1.751,1.235-3.778,1.853-6.081,1.853c-1.619,0-2.995-0.307-4.128-0.921s-2.044-1.516-2.731-2.706
		c-0.688-1.189-1.031-2.478-1.031-3.867c0-1.486,0.406-2.911,1.219-4.275c0.813-1.364,1.913-2.438,3.302-3.224
		c1.388-0.785,2.902-1.177,4.542-1.177C123.507,49.321,125.499,50.114,127.181,51.701z"/>
	<path d="M136.008,49.708h2.438l3.835,15.395h-2.805l-0.816-3.276h-6.107l-1.751,3.276h-3.108L136.008,49.708z M137.951,59.106
		l-1.23-5.07l-2.711,5.07H137.951z"/>
	<path d="M146.793,49.708h2.673c1.651,0,2.812,0.143,3.485,0.429c0.84,0.356,1.473,0.849,1.898,1.48
		c0.427,0.631,0.641,1.379,0.641,2.244c0,1.067-0.317,1.982-0.951,2.746c-0.633,0.764-1.591,1.295-2.871,1.595l3.351,6.9h-2.993
		l-3.286-6.719h-0.236l-0.924,6.719h-2.89L146.793,49.708z M148.85,55.862c1.564-0.007,2.582-0.169,3.055-0.487
		c0.472-0.317,0.708-0.793,0.708-1.429c0-0.362-0.095-0.666-0.284-0.91s-0.463-0.415-0.821-0.513
		c-0.357-0.097-1.084-0.146-2.178-0.146L148.85,55.862z"/>
	<path d="M159.068,49.708h2.44c2.286,0,3.987,0.271,5.104,0.811c1.115,0.541,2.022,1.39,2.722,2.548
		c0.698,1.158,1.048,2.494,1.048,4.008c0,1.556-0.372,2.984-1.115,4.286c-0.742,1.301-1.68,2.25-2.81,2.846
		c-1.13,0.597-2.7,0.895-4.709,0.895h-4.783L159.068,49.708z M161.604,52.418l-1.355,9.995h0.951c1.464,0,2.522-0.122,3.178-0.366
		c0.92-0.349,1.658-0.945,2.216-1.79c0.558-0.844,0.837-1.887,0.837-3.129c0-1.019-0.196-1.872-0.588-2.559
		c-0.393-0.688-0.945-1.218-1.66-1.591c-0.714-0.373-1.664-0.56-2.851-0.56H161.604z"/>
	<path d="M180.072,49.708h2.44c2.286,0,3.987,0.271,5.104,0.811c1.115,0.541,2.022,1.39,2.722,2.548
		c0.698,1.158,1.048,2.494,1.048,4.008c0,1.556-0.372,2.984-1.115,4.286c-0.742,1.301-1.68,2.25-2.81,2.846
		c-1.13,0.597-2.7,0.895-4.709,0.895h-4.783L180.072,49.708z M182.608,52.418l-1.355,9.995h0.951c1.464,0,2.522-0.122,3.178-0.366
		c0.92-0.349,1.658-0.945,2.216-1.79c0.558-0.844,0.837-1.887,0.837-3.129c0-1.019-0.196-1.872-0.588-2.559
		c-0.393-0.688-0.945-1.218-1.66-1.591c-0.714-0.373-1.664-0.56-2.851-0.56H182.608z"/>
	<path d="M194.892,49.708h8.278l-0.354,2.731h-5.372l-0.441,3.182h5.4l-0.352,2.71h-5.425l-0.566,4.082h5.461l-0.35,2.689h-8.383
		L194.892,49.708z"/>
	<path d="M214.033,51.854l-2.104,1.863c-0.865-1.116-1.671-1.674-2.418-1.674c-0.37,0-0.677,0.11-0.921,0.33
		s-0.366,0.483-0.366,0.79c0,0.286,0.111,0.604,0.335,0.952c0.224,0.349,0.9,1.12,2.03,2.313c0.6,0.635,0.994,1.085,1.183,1.35
		c0.453,0.614,0.779,1.188,0.979,1.722s0.298,1.076,0.298,1.627c0,1.235-0.439,2.271-1.318,3.108s-2.006,1.256-3.38,1.256
		c-2.094,0-3.799-0.994-5.118-2.982l2.219-1.79c0.894,1.36,1.859,2.041,2.899,2.041c0.495,0,0.912-0.161,1.25-0.481
		c0.339-0.321,0.508-0.708,0.508-1.162c0-0.356-0.103-0.719-0.309-1.088s-0.794-1.067-1.764-2.093
		c-1.025-1.081-1.699-1.897-2.02-2.449c-0.433-0.747-0.649-1.479-0.649-2.198c0-0.949,0.311-1.8,0.932-2.554
		c0.781-0.942,1.835-1.413,3.161-1.413C211.28,49.321,212.805,50.165,214.033,51.854z"/>
	<path d="M217.246,49.708h2.826l-2.156,15.395h-2.773L217.246,49.708z"/>
	<path d="M236.659,52.583l-2.407,1.563c-0.697-0.795-1.37-1.349-2.02-1.659c-0.648-0.31-1.385-0.465-2.208-0.465
		c-1.779,0-3.227,0.715-4.343,2.145c-0.887,1.138-1.329,2.4-1.329,3.789c0,1.368,0.455,2.516,1.365,3.443s2.032,1.392,3.364,1.392
		c0.991,0,1.893-0.24,2.706-0.719c0.813-0.479,1.477-1.199,1.993-2.159h-4.804l0.356-2.731h7.786
		c-0.112,2.547-0.909,4.568-2.392,6.065s-3.372,2.245-5.667,2.245c-2.498,0-4.462-0.865-5.892-2.595
		c-1.151-1.389-1.728-3.042-1.728-4.961c0-2.337,0.843-4.357,2.527-6.059c1.686-1.703,3.692-2.554,6.023-2.554
		c0.865,0,1.709,0.126,2.532,0.377c0.823,0.252,1.566,0.605,2.229,1.06C235.417,51.212,236.053,51.82,236.659,52.583z"/>
	<path d="M241.356,49.708h2.522l5.552,10.465l1.43-10.465h2.82l-2.093,15.395h-2.469l-5.625-10.581l-1.445,10.581h-2.774
		L241.356,49.708z"/>
	<path d="M113.084,77.573l-2.104,1.863c-0.865-1.116-1.671-1.674-2.417-1.674c-0.37,0-0.677,0.11-0.921,0.33
		s-0.366,0.483-0.366,0.79c0,0.286,0.111,0.604,0.335,0.952c0.223,0.349,0.9,1.12,2.03,2.313c0.6,0.635,0.994,1.085,1.183,1.35
		c0.454,0.614,0.78,1.188,0.979,1.722s0.298,1.076,0.298,1.627c0,1.235-0.439,2.271-1.319,3.108
		c-0.879,0.837-2.006,1.256-3.38,1.256c-2.093,0-3.799-0.994-5.117-2.982l2.218-1.79c0.893,1.36,1.859,2.041,2.899,2.041
		c0.496,0,0.912-0.161,1.251-0.481c0.338-0.321,0.507-0.708,0.507-1.162c0-0.356-0.103-0.719-0.309-1.088
		c-0.206-0.37-0.794-1.067-1.764-2.093c-1.025-1.081-1.699-1.897-2.02-2.449c-0.433-0.747-0.649-1.479-0.649-2.198
		c0-0.949,0.31-1.8,0.931-2.554c0.782-0.942,1.835-1.413,3.161-1.413C110.332,75.041,111.856,75.885,113.084,77.573z"/>
	<path d="M116.234,75.428h8.278l-0.354,2.731h-5.372l-0.441,3.182h5.4l-0.352,2.71h-5.424l-0.566,4.082h5.46l-0.35,2.689h-8.382
		L116.234,75.428z"/>
	<path d="M127.725,75.428h2.673c1.651,0,2.812,0.143,3.485,0.429c0.839,0.356,1.472,0.849,1.898,1.48
		c0.427,0.631,0.64,1.379,0.64,2.244c0,1.067-0.317,1.982-0.951,2.746c-0.633,0.764-1.591,1.295-2.872,1.595l3.351,6.9h-2.993
		l-3.286-6.719h-0.236l-0.924,6.719h-2.89L127.725,75.428z M129.782,81.582c1.564-0.007,2.582-0.169,3.054-0.487
		c0.472-0.317,0.708-0.793,0.708-1.429c0-0.362-0.095-0.666-0.284-0.91s-0.463-0.415-0.821-0.513
		c-0.358-0.097-1.084-0.146-2.178-0.146L129.782,81.582z"/>
	<path d="M138.263,75.428h2.818l2.755,11.114l5.958-11.114h3.109l-8.242,15.395h-2.583L138.263,75.428z"/>
	<path d="M154.883,75.428h2.827l-2.156,15.395h-2.774L154.883,75.428z"/>
	<path d="M174.118,77.421l-2.104,1.951c-0.454-0.522-1.008-0.925-1.664-1.208s-1.367-0.423-2.135-0.423
		c-1.074,0-2.104,0.275-3.088,0.826c-0.983,0.551-1.749,1.279-2.297,2.185c-0.548,0.906-0.821,1.872-0.821,2.896
		c0,1.394,0.481,2.553,1.444,3.476c0.963,0.924,2.197,1.385,3.705,1.385c1.611,0,3.007-0.467,4.186-1.402l1.706,2.25
		c-1.751,1.235-3.778,1.853-6.08,1.853c-1.619,0-2.995-0.307-4.129-0.921s-2.044-1.516-2.731-2.706
		c-0.688-1.189-1.031-2.478-1.031-3.867c0-1.486,0.406-2.911,1.22-4.275c0.813-1.364,1.913-2.438,3.302-3.224
		c1.388-0.785,2.902-1.177,4.542-1.177C170.444,75.041,172.437,75.834,174.118,77.421z"/>
	<path d="M177.529,75.428h8.278l-0.354,2.731h-5.372l-0.441,3.182h5.4l-0.352,2.71h-5.425l-0.566,4.082h5.461l-0.35,2.689h-8.383
		L177.529,75.428z"/>
	<path d="M196.671,77.573l-2.104,1.863c-0.865-1.116-1.671-1.674-2.418-1.674c-0.37,0-0.677,0.11-0.921,0.33
		s-0.366,0.483-0.366,0.79c0,0.286,0.111,0.604,0.335,0.952c0.224,0.349,0.9,1.12,2.03,2.313c0.6,0.635,0.994,1.085,1.183,1.35
		c0.453,0.614,0.779,1.188,0.979,1.722s0.298,1.076,0.298,1.627c0,1.235-0.439,2.271-1.318,3.108s-2.006,1.256-3.38,1.256
		c-2.094,0-3.799-0.994-5.118-2.982l2.219-1.79c0.894,1.36,1.859,2.041,2.899,2.041c0.495,0,0.912-0.161,1.25-0.481
		c0.339-0.321,0.508-0.708,0.508-1.162c0-0.356-0.103-0.719-0.309-1.088s-0.794-1.067-1.764-2.093
		c-1.025-1.081-1.699-1.897-2.02-2.449c-0.433-0.747-0.649-1.479-0.649-2.198c0-0.949,0.311-1.8,0.932-2.554
		c0.781-0.942,1.835-1.413,3.161-1.413C193.918,75.041,195.442,75.885,196.671,77.573z"/>
</g>
</svg>
