<?xml version="1.0" encoding="utf-8"?>
<!-- Generator: Adobe Illustrator 16.0.0, SVG Export Plug-In . SVG Version: 6.00 Build 0)  -->
<!DOCTYPE svg PUBLIC "-//W3C//DTD SVG 1.1//EN" "http://www.w3.org/Graphics/SVG/1.1/DTD/svg11.dtd">
<svg version="1.1" id="Layer_1" xmlns="http://www.w3.org/2000/svg" xmlns:xlink="http://www.w3.org/1999/xlink" x="0px" y="0px"
	 width="300px" height="300px" viewBox="0 0 300 300" enable-background="new 0 0 300 300" xml:space="preserve">
<g>
	<rect x="10.613" y="11.637" fill="#FFFFFF" width="278.387" height="276.726"/>
	
		<rect x="10.613" y="11.637" fill="none" stroke="#70737F" stroke-width="3" stroke-miterlimit="10" width="278.387" height="276.726"/>
</g>
<rect x="29.193" y="29.796" fill="none" stroke="#404459" stroke-width="2" stroke-miterlimit="10" width="238.46" height="6.912"/>
<g>
	<path fill="#E7E7E7" d="M212.419,127H86.49C76.563,127,68,134.704,68,144.631v92.345C68,246.904,76.563,255,86.49,255h80.348
		L200,277.844V255h12.419c9.928,0,18.581-8.096,18.581-18.023v-92.345C231,134.704,222.347,127,212.419,127z"/>
	<linearGradient id="SVGID_1_" gradientUnits="userSpaceOnUse" x1="74.6035" y1="114.4438" x2="219.1939" y2="261.9293">
		<stop  offset="0" style="stop-color:#E5E5E5"/>
		<stop  offset="0.9565" style="stop-color:#DCDCDC"/>
		<stop  offset="1" style="stop-color:#DCDCDC"/>
	</linearGradient>
	<path fill="url(#SVGID_1_)" stroke="#58595B" stroke-miterlimit="10" d="M210.349,124.5H84.42c-9.928,0-18.92,7.847-18.92,17.775
		v92.345c0,9.928,8.992,17.88,18.92,17.88h80.348l32.732,22.988V252.5h12.849c9.928,0,18.151-7.952,18.151-17.88v-92.345
		C228.5,132.347,220.276,124.5,210.349,124.5z"/>
	<g>
		<polygon fill="#BBBBBB" points="103.65,234.381 191.118,234.381 191.128,177.915 103.66,177.915 		"/>
		<path fill="#E7E7E7" d="M193.967,181h-0.003l-39.695-36c0,0-5.54-5.741-11.488,0.181L106.513,181h-0.004L107,237.007l0,0v0.015
			L106.52,237h87.425l0.018,0.084L193.967,181z"/>
		<polygon fill="#767676" points="103.66,178 103.65,235 191.118,235 191.128,178 		"/>
		<path fill="#767676" d="M151.421,142.234c0,0-5.54-5.807-11.489,0.114L103.66,178h87.468L151.421,142.234z"/>
		<path opacity="0.7" fill="#8D8D8D" d="M150.941,146.314c0,0-4.879-5.195-10.119,0.021l-31.943,31.41l77.029,0.015L150.941,146.314
			z"/>
		<rect x="111.406" y="154.313" fill="#E7E7E7" width="72.115" height="61.348"/>
		<rect x="109.957" y="152.448" fill="#FFFFFF" width="72.115" height="61.348"/>
		<rect x="115.798" y="162.388" opacity="0.6" fill="#E7E7E7" width="60.431" height="2.661"/>
		<rect x="115.798" y="170.463" opacity="0.6" fill="#E7E7E7" width="60.431" height="2.662"/>
		<rect x="115.798" y="178.539" opacity="0.6" fill="#E7E7E7" width="60.431" height="2.661"/>
		<rect x="115.798" y="186.615" opacity="0.6" fill="#E7E7E7" width="60.431" height="2.661"/>
		<rect x="115.798" y="194.691" opacity="0.6" fill="#E7E7E7" width="60.431" height="2.66"/>
		<path fill="#7F7F7F" d="M151.69,194.129c0,0-2.027,0.781-2.553,1.371c-1.187,1.339-3.123,7.15-3.123,7.15l4.038,3.83l41.066,27.9
			l0.01-56.466L151.69,194.129z"/>
		<g>
			<path fill="#858585" d="M145.274,203.1L145.274,203.1C145.276,203.106,145.277,203.108,145.274,203.1z"/>
			<path fill="#7F7F7F" d="M142.076,195.998c-0.531-0.586-2.571-1.335-2.571-1.335l-35.845-16.748l-0.01,56.466l37.629-27.393
				l3.994-3.889C145.205,202.912,143.153,197.188,142.076,195.998z"/>
		</g>
		<path fill="#8D8D8D" d="M162.103,199.356c-1.126-1.994-3.109-2.134-3.109-2.134L145.752,197h-0.108l-13.214,0.249
			c0,0-1.838,0.019-2.842,2.368l-25.937,34.726l42.37-0.136l45.099,0.164L162.103,199.356z"/>
	</g>
	<g>
		<circle fill="#E7E7E7" cx="195.417" cy="133.325" r="20.297"/>
		<circle fill="#7F7F7F" cx="193.89" cy="131.098" r="20.297"/>
		<g>
			<path fill="#FFFFFF" d="M197.372,118.413v25.578c0,1.344-1.127,2.384-2.428,2.384c-1.344,0-2.385-1.041-2.385-2.384v-21.33
				l-1.733,0.998c-0.391,0.26-0.824,0.347-1.214,0.347c-0.824,0-1.604-0.433-2.038-1.214c-0.736-1.083-0.347-2.601,0.78-3.251
				l5.332-3.165c0.044-0.043,0.131-0.043,0.174-0.087c0.087,0,0.13-0.086,0.217-0.129c0.087,0,0.173-0.044,0.26-0.044
				c0.044-0.043,0.131-0.043,0.174-0.043c0.087-0.043,0.217-0.043,0.304-0.043c0.043,0,0.086,0,0.13,0h0.044c0.13,0,0.216,0,0.303,0
				c0.044,0.043,0.13,0.043,0.174,0.043c0.13,0,0.173,0.043,0.26,0.087c0.043,0,0.13,0,0.173,0.043
				c0.131,0.086,0.174,0.13,0.261,0.13c0.043,0.043,0.087,0.086,0.173,0.129c0.043,0.044,0.131,0.087,0.174,0.13
				c0.087,0.043,0.13,0.13,0.173,0.173c0.044,0.043,0.088,0.087,0.131,0.173c0.043,0.043,0.13,0.13,0.173,0.173l0.044,0.087
				c0,0.043,0.043,0.087,0.043,0.13c0.044,0.086,0.087,0.13,0.087,0.217c0.043,0.086,0.043,0.173,0.087,0.216
				c0,0.087,0.043,0.174,0.043,0.217c0,0.13,0,0.217,0.087,0.304C197.372,118.326,197.372,118.37,197.372,118.413z"/>
		</g>
	</g>
</g>
<g>
	<path d="M47.863,48.271h2.574l5.665,10.679l1.459-10.679h2.878L58.304,63.98h-2.519l-5.74-10.797L48.569,63.98h-2.831
		L47.863,48.271z"/>
	<path d="M63.863,48.271h8.447l-0.362,2.787h-5.481l-0.451,3.247h5.511l-0.359,2.766h-5.536l-0.578,4.165h5.572l-0.356,2.745h-8.555
		L63.863,48.271z"/>
	<path d="M73.944,48.271h2.693l0.911,10.177l4.803-10.177h2.222l1.872,9.911l3.497-9.911h2.853L87.232,63.98h-2.411l-1.976-10.402
		L77.937,63.98h-2.57L73.944,48.271z"/>
	<path d="M103.078,50.46l-2.147,1.901c-0.883-1.139-1.705-1.708-2.467-1.708c-0.377,0-0.69,0.112-0.94,0.336
		c-0.249,0.224-0.374,0.493-0.374,0.806c0,0.292,0.114,0.616,0.342,0.972c0.228,0.356,0.918,1.143,2.072,2.36
		c0.612,0.648,1.015,1.107,1.207,1.378c0.463,0.626,0.796,1.212,0.999,1.757c0.203,0.544,0.305,1.098,0.305,1.661
		c0,1.26-0.449,2.317-1.346,3.172c-0.897,0.854-2.047,1.281-3.45,1.281c-2.136,0-3.876-1.015-5.222-3.043l2.264-1.826
		c0.911,1.388,1.897,2.083,2.958,2.083c0.505,0,0.931-0.164,1.276-0.491c0.345-0.328,0.518-0.723,0.518-1.186
		c0-0.363-0.105-0.733-0.315-1.111s-0.81-1.089-1.799-2.136c-1.046-1.104-1.734-1.937-2.061-2.499
		c-0.441-0.762-0.662-1.509-0.662-2.243c0-0.968,0.316-1.837,0.95-2.606c0.797-0.961,1.873-1.442,3.226-1.442
		C100.269,47.875,101.825,48.737,103.078,50.46z"/>
	<path d="M106.506,48.271h2.967l-1.799,13.007h4.876l-0.341,2.702h-7.85L106.506,48.271z"/>
	<path d="M115.915,48.271h8.447L124,51.058h-5.481l-0.451,3.247h5.511l-0.359,2.766h-5.536l-0.578,4.165h5.572l-0.356,2.745h-8.555
		L115.915,48.271z"/>
	<path d="M125.43,48.271h9.59l-0.342,2.798h-3.274L129.64,63.98h-2.928l1.765-12.912h-3.409L125.43,48.271z"/>
	<path d="M134.615,48.271h9.59l-0.342,2.798h-3.274l-1.765,12.912h-2.928l1.765-12.912h-3.409L134.615,48.271z"/>
	<path d="M145.658,48.271h8.448l-0.361,2.787h-5.482l-0.451,3.247h5.511l-0.359,2.766h-5.536l-0.578,4.165h5.572l-0.356,2.745
		h-8.555L145.658,48.271z"/>
	<path d="M157.385,48.271h2.728c1.685,0,2.87,0.146,3.557,0.438c0.856,0.363,1.502,0.866,1.938,1.51
		c0.435,0.645,0.652,1.407,0.652,2.29c0,1.089-0.323,2.023-0.97,2.802c-0.646,0.779-1.623,1.322-2.931,1.627l3.42,7.042h-3.054
		l-3.354-6.856h-0.242l-0.942,6.856h-2.948L157.385,48.271z M159.483,54.55c1.596-0.007,2.635-0.172,3.116-0.497
		c0.481-0.324,0.723-0.81,0.723-1.458c0-0.37-0.097-0.68-0.29-0.929s-0.473-0.424-0.837-0.523c-0.365-0.1-1.106-0.149-2.224-0.149
		L159.483,54.55z"/>
	<path d="M176.031,48.271h2.489c2.334,0,4.07,0.276,5.209,0.828c1.138,0.552,2.063,1.418,2.776,2.6
		c0.713,1.182,1.069,2.545,1.069,4.09c0,1.588-0.379,3.046-1.137,4.374c-0.759,1.328-1.715,2.296-2.868,2.905
		s-2.755,0.913-4.806,0.913h-4.88L176.031,48.271z M178.618,51.037l-1.383,10.199h0.971c1.493,0,2.574-0.125,3.243-0.374
		c0.938-0.356,1.692-0.964,2.262-1.826c0.568-0.861,0.853-1.926,0.853-3.193c0-1.04-0.199-1.91-0.6-2.611
		c-0.399-0.701-0.965-1.242-1.693-1.624c-0.729-0.38-1.698-0.571-2.909-0.571H178.618z"/>
	<path d="M191.153,48.271h8.447l-0.361,2.787h-5.482l-0.45,3.247h5.511l-0.359,2.766h-5.535l-0.578,4.165h5.572l-0.356,2.745h-8.554
		L191.153,48.271z"/>
	<path d="M210.687,50.46l-2.146,1.901c-0.883-1.139-1.705-1.708-2.467-1.708c-0.378,0-0.691,0.112-0.94,0.336
		s-0.374,0.493-0.374,0.806c0,0.292,0.114,0.616,0.342,0.972c0.229,0.356,0.919,1.143,2.072,2.36
		c0.612,0.648,1.015,1.107,1.207,1.378c0.462,0.626,0.795,1.212,0.998,1.757c0.203,0.544,0.305,1.098,0.305,1.661
		c0,1.26-0.448,2.317-1.346,3.172c-0.897,0.854-2.047,1.281-3.449,1.281c-2.137,0-3.877-1.015-5.223-3.043l2.264-1.826
		c0.912,1.388,1.897,2.083,2.959,2.083c0.505,0,0.931-0.164,1.275-0.491c0.346-0.328,0.519-0.723,0.519-1.186
		c0-0.363-0.105-0.733-0.315-1.111s-0.81-1.089-1.799-2.136c-1.047-1.104-1.734-1.937-2.062-2.499
		c-0.441-0.762-0.662-1.509-0.662-2.243c0-0.968,0.316-1.837,0.95-2.606c0.798-0.961,1.873-1.442,3.226-1.442
		C207.878,47.875,209.434,48.737,210.687,50.46z"/>
	<path d="M213.964,48.271h2.885l-2.2,15.709h-2.831L213.964,48.271z"/>
	<path d="M233.775,51.204l-2.456,1.595c-0.712-0.812-1.399-1.376-2.062-1.692c-0.662-0.317-1.413-0.476-2.253-0.476
		c-1.815,0-3.293,0.73-4.433,2.189c-0.903,1.161-1.355,2.449-1.355,3.866c0,1.396,0.464,2.566,1.394,3.513
		c0.929,0.947,2.073,1.42,3.434,1.42c1.011,0,1.931-0.245,2.761-0.734c0.829-0.49,1.507-1.224,2.034-2.203h-4.902l0.363-2.788h7.945
		c-0.113,2.599-0.927,4.662-2.439,6.189c-1.514,1.527-3.441,2.291-5.783,2.291c-2.549,0-4.554-0.883-6.013-2.648
		c-1.175-1.417-1.763-3.104-1.763-5.062c0-2.385,0.86-4.446,2.579-6.184c1.72-1.737,3.769-2.606,6.146-2.606
		c0.883,0,1.744,0.128,2.585,0.385c0.84,0.257,1.598,0.618,2.274,1.081C232.508,49.806,233.156,50.427,233.775,51.204z"/>
	<path d="M238.568,48.271h2.574l5.665,10.679l1.46-10.679h2.877l-2.136,15.709h-2.519l-5.74-10.797l-1.476,10.797h-2.831
		L238.568,48.271z"/>
	<path d="M116.636,76.706l-2.147,1.901c-0.883-1.139-1.705-1.708-2.467-1.708c-0.377,0-0.69,0.112-0.94,0.336
		c-0.249,0.224-0.374,0.493-0.374,0.806c0,0.292,0.114,0.616,0.342,0.972c0.228,0.356,0.918,1.143,2.072,2.36
		c0.612,0.648,1.015,1.107,1.207,1.378c0.463,0.626,0.796,1.212,0.999,1.757c0.203,0.544,0.305,1.098,0.305,1.661
		c0,1.26-0.449,2.317-1.346,3.172c-0.897,0.854-2.047,1.281-3.45,1.281c-2.136,0-3.876-1.015-5.222-3.043l2.264-1.826
		c0.911,1.388,1.897,2.083,2.958,2.083c0.505,0,0.931-0.164,1.276-0.491c0.345-0.328,0.518-0.723,0.518-1.186
		c0-0.363-0.105-0.733-0.315-1.111s-0.81-1.089-1.799-2.136c-1.046-1.104-1.734-1.937-2.061-2.499
		c-0.441-0.762-0.662-1.509-0.662-2.243c0-0.968,0.316-1.837,0.95-2.606c0.797-0.961,1.873-1.442,3.226-1.442
		C113.827,74.122,115.382,74.983,116.636,76.706z"/>
	<path d="M119.85,74.517h8.447l-0.362,2.787h-5.481l-0.451,3.247h5.511l-0.359,2.766h-5.536l-0.578,4.165h5.572l-0.356,2.745h-8.555
		L119.85,74.517z"/>
	<path d="M131.576,74.517h2.729c1.685,0,2.87,0.146,3.556,0.438c0.856,0.363,1.502,0.866,1.938,1.51
		c0.435,0.645,0.653,1.407,0.653,2.29c0,1.089-0.323,2.023-0.97,2.802c-0.647,0.779-1.624,1.322-2.931,1.627l3.42,7.042h-3.055
		l-3.354-6.856h-0.241l-0.943,6.856h-2.949L131.576,74.517z M133.675,80.796c1.596-0.007,2.635-0.172,3.117-0.497
		c0.482-0.324,0.723-0.81,0.723-1.458c0-0.37-0.097-0.68-0.29-0.929c-0.193-0.249-0.472-0.424-0.837-0.523s-1.106-0.149-2.223-0.149
		L133.675,80.796z"/>
	<path d="M142.331,74.517h2.876l2.811,11.341l6.081-11.341h3.172l-8.41,15.709h-2.636L142.331,74.517z"/>
	<path d="M159.29,74.517h2.885l-2.2,15.709h-2.831L159.29,74.517z"/>
	<path d="M178.919,76.551l-2.146,1.991c-0.463-0.533-1.028-0.944-1.698-1.232c-0.669-0.288-1.396-0.432-2.179-0.432
		c-1.096,0-2.146,0.281-3.15,0.843c-1.004,0.562-1.785,1.306-2.344,2.23c-0.559,0.925-0.839,1.91-0.839,2.956
		c0,1.422,0.492,2.605,1.475,3.547s2.242,1.414,3.78,1.414c1.645,0,3.068-0.477,4.271-1.431l1.741,2.296
		c-1.787,1.26-3.855,1.89-6.205,1.89c-1.651,0-3.056-0.313-4.213-0.939c-1.157-0.626-2.086-1.547-2.787-2.761
		c-0.702-1.214-1.053-2.529-1.053-3.946c0-1.517,0.415-2.971,1.244-4.363c0.83-1.392,1.953-2.488,3.37-3.289
		c1.416-0.801,2.962-1.202,4.635-1.202C175.171,74.122,177.203,74.932,178.919,76.551z"/>
	<path d="M182.401,74.517h8.447l-0.361,2.787h-5.482l-0.45,3.247h5.511l-0.359,2.766h-5.535l-0.578,4.165h5.572l-0.356,2.745h-8.554
		L182.401,74.517z"/>
</g>
</svg>
