<?xml version="1.0" encoding="utf-8"?>
<!-- Generator: Adobe Illustrator 16.0.0, SVG Export Plug-In . SVG Version: 6.00 Build 0)  -->
<!DOCTYPE svg PUBLIC "-//W3C//DTD SVG 1.1//EN" "http://www.w3.org/Graphics/SVG/1.1/DTD/svg11.dtd">
<svg version="1.1" id="Layer_1" xmlns="http://www.w3.org/2000/svg" xmlns:xlink="http://www.w3.org/1999/xlink" x="0px" y="0px"
	 width="300px" height="300px" viewBox="0 0 300 300" enable-background="new 0 0 300 300" xml:space="preserve">
<g>
	<rect x="10.613" y="11.637" fill="#FFFFFF" width="278.387" height="276.726"/>
	
		<rect x="10.613" y="11.637" fill="none" stroke="#70737F" stroke-width="3" stroke-miterlimit="10" width="278.387" height="276.726"/>
</g>
<rect x="30.576" y="29.796" fill="none" stroke="#404459" stroke-width="2" stroke-miterlimit="10" width="238.461" height="6.912"/>
<polygon fill="none" stroke="#404459" stroke-width="2" stroke-miterlimit="10" points="220.643,265.306 79.28,266.065 
	78.972,139.998 220.33,139.238 "/>
<circle fill="none" stroke="#404459" stroke-width="2" stroke-miterlimit="10" cx="149.807" cy="202.652" r="53.204"/>
<g>
	<path d="M136.917,167.774h12.65c7.683,0,13.105,0.671,16.264,2.01c3.906,1.667,6.87,3.987,8.889,6.961s3.028,6.454,3.028,10.44
		c0,4.38-1.183,8.342-3.546,11.887c-2.364,3.547-5.536,6.128-9.515,7.745c-3.978,1.617-10.598,2.492-19.858,2.622l-4.184,30.44
		h-13.582L136.917,167.774z M146.482,196.695c7.341-0.032,12.133-0.801,14.375-2.304c2.24-1.503,3.362-3.741,3.362-6.716
		c0-1.666-0.438-3.071-1.312-4.216c-0.875-1.143-2.169-1.943-3.885-2.401c-1.716-0.457-5.115-0.687-10.197-0.687L146.482,196.695z"
		/>
</g>
<g>
	<path d="M31.314,49.463h3.417c2.076,0,3.541,0.181,4.394,0.543c1.055,0.45,1.856,1.077,2.401,1.88
		c0.545,0.803,0.818,1.743,0.818,2.82c0,1.183-0.319,2.253-0.958,3.211c-0.639,0.958-1.495,1.655-2.57,2.092
		s-2.863,0.673-5.364,0.708l-1.13,8.223h-3.669L31.314,49.463z M33.898,57.275c1.983-0.008,3.277-0.216,3.883-0.622
		c0.605-0.406,0.908-1.011,0.908-1.814c0-0.45-0.118-0.83-0.354-1.139c-0.236-0.309-0.586-0.525-1.049-0.649
		s-1.382-0.186-2.754-0.186L33.898,57.275z"/>
	<path d="M55.413,48.973c2.675,0,4.881,0.86,6.621,2.582c1.739,1.721,2.608,3.906,2.608,6.554c0,2.03-0.514,3.944-1.542,5.74
		c-1.028,1.796-2.396,3.176-4.105,4.138c-1.708,0.962-3.67,1.443-5.885,1.443c-2.772,0-4.985-0.821-6.641-2.463
		c-1.655-1.642-2.482-3.804-2.482-6.488c0-3.045,0.988-5.663,2.966-7.852C49.159,50.191,51.979,48.973,55.413,48.973z
		 M55.281,52.429c-1.395,0-2.668,0.338-3.82,1.013c-1.152,0.675-2.081,1.646-2.787,2.913s-1.059,2.575-1.059,3.926
		c0,1.598,0.49,2.953,1.47,4.065s2.388,1.668,4.224,1.668c2.127,0,3.935-0.75,5.422-2.251c1.487-1.5,2.231-3.323,2.231-5.468
		c0-1.774-0.523-3.196-1.569-4.264C58.346,52.963,56.976,52.429,55.281,52.429z"/>
	<path d="M79.141,52.177l-2.662,2.357c-1.095-1.412-2.114-2.119-3.059-2.119c-0.468,0-0.856,0.139-1.166,0.417
		c-0.309,0.278-0.463,0.611-0.463,1c0,0.362,0.141,0.764,0.424,1.205c0.282,0.441,1.139,1.417,2.569,2.926
		c0.759,0.803,1.258,1.373,1.496,1.708c0.574,0.777,0.986,1.503,1.238,2.178c0.251,0.675,0.377,1.361,0.377,2.059
		c0,1.563-0.556,2.874-1.668,3.933c-1.112,1.06-2.538,1.589-4.277,1.589c-2.648,0-4.807-1.258-6.475-3.773l2.807-2.264
		c1.13,1.721,2.353,2.582,3.668,2.582c0.626,0,1.154-0.203,1.582-0.609c0.428-0.406,0.642-0.896,0.642-1.47
		c0-0.45-0.13-0.909-0.391-1.377c-0.26-0.468-1.004-1.351-2.231-2.648c-1.297-1.368-2.149-2.401-2.555-3.098
		c-0.548-0.944-0.821-1.871-0.821-2.781c0-1.2,0.393-2.277,1.179-3.23c0.988-1.192,2.321-1.788,3.999-1.788
		C75.659,48.973,77.587,50.041,79.141,52.177z"/>
	<path d="M80.822,49.463h11.891l-0.424,3.469h-4.06L86.042,68.94h-3.631l2.188-16.008h-4.227L80.822,49.463z"/>
	<path d="M111.343,51.985l-2.661,2.468c-0.574-0.661-1.276-1.17-2.105-1.528c-0.83-0.357-1.73-0.536-2.701-0.536
		c-1.359,0-2.662,0.349-3.906,1.045c-1.245,0.697-2.213,1.619-2.906,2.765c-0.693,1.147-1.04,2.368-1.04,3.665
		c0,1.764,0.609,3.229,1.827,4.398c1.218,1.168,2.781,1.753,4.688,1.753c2.039,0,3.805-0.591,5.296-1.774l2.158,2.847
		c-2.216,1.562-4.78,2.343-7.693,2.343c-2.048,0-3.789-0.388-5.224-1.165s-2.586-1.917-3.456-3.423
		c-0.87-1.505-1.304-3.136-1.304-4.893c0-1.88,0.514-3.683,1.542-5.409s2.421-3.085,4.178-4.079
		c1.756-0.993,3.672-1.489,5.747-1.489C106.695,48.973,109.215,49.977,111.343,51.985z"/>
	<path d="M122.512,49.463h3.085l4.853,19.478h-3.549l-1.033-4.145h-7.728l-2.216,4.145h-3.933L122.512,49.463z M124.969,61.354
		l-1.557-6.415l-3.431,6.415H124.969z"/>
	<path d="M136.157,49.463h3.382c2.088,0,3.558,0.181,4.409,0.542c1.062,0.45,1.862,1.074,2.402,1.873
		c0.54,0.798,0.81,1.745,0.81,2.839c0,1.35-0.401,2.508-1.202,3.474c-0.802,0.966-2.013,1.639-3.634,2.018l4.24,8.731h-3.787
		l-4.158-8.5h-0.299l-1.168,8.5h-3.656L136.157,49.463z M138.759,57.249c1.979-0.009,3.267-0.214,3.864-0.616
		c0.597-0.401,0.896-1.004,0.896-1.807c0-0.459-0.12-0.843-0.359-1.152c-0.24-0.309-0.586-0.525-1.039-0.648
		s-1.372-0.186-2.756-0.186L138.759,57.249z"/>
	<path d="M151.688,49.463h3.087c2.894,0,5.046,0.342,6.458,1.026c1.411,0.684,2.559,1.759,3.442,3.224s1.326,3.156,1.326,5.071
		c0,1.968-0.47,3.776-1.41,5.422c-0.939,1.646-2.125,2.847-3.555,3.602c-1.431,0.755-3.416,1.132-5.959,1.132h-6.051L151.688,49.463
		z M154.896,52.893l-1.714,12.645h1.203c1.852,0,3.191-0.154,4.021-0.463c1.164-0.441,2.099-1.196,2.804-2.264
		c0.705-1.068,1.059-2.388,1.059-3.959c0-1.289-0.248-2.368-0.744-3.237c-0.496-0.869-1.196-1.54-2.1-2.013
		c-0.903-0.472-2.106-0.708-3.606-0.708H154.896z"/>
	<path d="M178.263,49.463h3.087c2.894,0,5.046,0.342,6.458,1.026c1.411,0.684,2.559,1.759,3.442,3.224s1.326,3.156,1.326,5.071
		c0,1.968-0.47,3.776-1.41,5.422c-0.939,1.646-2.125,2.847-3.555,3.602c-1.431,0.755-3.416,1.132-5.959,1.132h-6.051L178.263,49.463
		z M181.471,52.893l-1.714,12.645h1.203c1.852,0,3.191-0.154,4.021-0.463c1.164-0.441,2.099-1.196,2.804-2.264
		c0.705-1.068,1.059-2.388,1.059-3.959c0-1.289-0.248-2.368-0.744-3.237c-0.496-0.869-1.196-1.54-2.1-2.013
		c-0.903-0.472-2.106-0.708-3.606-0.708H181.471z"/>
	<path d="M197.013,49.463h10.474l-0.449,3.456h-6.796l-0.559,4.025h6.832l-0.445,3.429h-6.862l-0.717,5.164h6.908l-0.441,3.403
		h-10.606L197.013,49.463z"/>
	<path d="M221.23,52.177l-2.662,2.357c-1.095-1.412-2.114-2.119-3.059-2.119c-0.468,0-0.856,0.139-1.165,0.417
		c-0.31,0.278-0.464,0.611-0.464,1c0,0.362,0.142,0.764,0.424,1.205s1.139,1.417,2.569,2.926c0.759,0.803,1.258,1.373,1.496,1.708
		c0.573,0.777,0.986,1.503,1.238,2.178c0.251,0.675,0.377,1.361,0.377,2.059c0,1.563-0.556,2.874-1.668,3.933
		c-1.112,1.06-2.538,1.589-4.277,1.589c-2.648,0-4.807-1.258-6.475-3.773l2.807-2.264c1.13,1.721,2.353,2.582,3.668,2.582
		c0.627,0,1.154-0.203,1.582-0.609c0.429-0.406,0.643-0.896,0.643-1.47c0-0.45-0.13-0.909-0.391-1.377s-1.004-1.351-2.231-2.648
		c-1.297-1.368-2.149-2.401-2.555-3.098c-0.548-0.944-0.821-1.871-0.821-2.781c0-1.2,0.393-2.277,1.179-3.23
		c0.988-1.192,2.321-1.788,3.998-1.788C217.748,48.973,219.676,50.041,221.23,52.177z"/>
	<path d="M225.295,49.463h3.577l-2.729,19.478h-3.51L225.295,49.463z"/>
	<path d="M249.857,53.1l-3.046,1.977c-0.883-1.006-1.734-1.706-2.556-2.099c-0.82-0.393-1.752-0.589-2.794-0.589
		c-2.251,0-4.082,0.905-5.494,2.714c-1.121,1.439-1.682,3.037-1.682,4.793c0,1.73,0.576,3.182,1.728,4.356
		c1.152,1.174,2.57,1.761,4.257,1.761c1.253,0,2.395-0.303,3.423-0.91s1.869-1.517,2.522-2.731h-6.078l0.45-3.456h9.852
		c-0.142,3.222-1.149,5.78-3.025,7.673c-1.876,1.893-4.266,2.84-7.17,2.84c-3.16,0-5.646-1.094-7.454-3.284
		c-1.457-1.756-2.186-3.849-2.186-6.276c0-2.957,1.066-5.512,3.198-7.667c2.132-2.153,4.671-3.23,7.62-3.23
		c1.094,0,2.162,0.159,3.204,0.478c1.041,0.319,1.981,0.765,2.82,1.34S249.089,52.136,249.857,53.1z"/>
	<path d="M255.8,49.463h3.191l7.024,13.241l1.809-13.241h3.568l-2.648,19.478h-3.123l-7.116-13.387l-1.829,13.387h-3.511
		L255.8,49.463z"/>
	<path d="M110.588,84.718l-2.662,2.357c-1.095-1.412-2.114-2.119-3.059-2.119c-0.468,0-0.856,0.139-1.166,0.417
		c-0.309,0.278-0.463,0.611-0.463,1c0,0.362,0.141,0.764,0.424,1.205c0.282,0.441,1.139,1.417,2.569,2.926
		c0.759,0.803,1.258,1.373,1.496,1.708c0.574,0.777,0.986,1.503,1.238,2.178c0.251,0.675,0.377,1.361,0.377,2.059
		c0,1.563-0.556,2.874-1.668,3.933c-1.112,1.06-2.538,1.589-4.277,1.589c-2.648,0-4.807-1.258-6.475-3.773l2.807-2.264
		c1.13,1.721,2.353,2.582,3.668,2.582c0.626,0,1.154-0.203,1.582-0.609c0.428-0.406,0.642-0.896,0.642-1.47
		c0-0.45-0.13-0.909-0.391-1.377c-0.26-0.468-1.004-1.351-2.231-2.648c-1.297-1.368-2.149-2.401-2.555-3.098
		c-0.548-0.944-0.821-1.871-0.821-2.781c0-1.2,0.393-2.277,1.179-3.23c0.988-1.192,2.321-1.788,3.999-1.788
		C107.106,81.514,109.034,82.582,110.588,84.718z"/>
	<path d="M114.574,82.004h10.474l-0.449,3.456h-6.796l-0.559,4.025h6.832l-0.445,3.429h-6.863l-0.717,5.164h6.909l-0.442,3.403
		h-10.606L114.574,82.004z"/>
	<path d="M129.112,82.004h3.382c2.088,0,3.558,0.181,4.409,0.542c1.062,0.45,1.862,1.074,2.402,1.873
		c0.54,0.798,0.81,1.745,0.81,2.839c0,1.35-0.401,2.508-1.202,3.474c-0.802,0.966-2.013,1.639-3.634,2.018l4.24,8.731h-3.787
		l-4.158-8.5h-0.299l-1.168,8.5h-3.656L129.112,82.004z M131.714,89.79c1.979-0.009,3.267-0.214,3.864-0.616
		c0.597-0.401,0.896-1.004,0.896-1.807c0-0.459-0.12-0.843-0.359-1.152c-0.24-0.309-0.586-0.525-1.039-0.648
		s-1.372-0.186-2.756-0.186L131.714,89.79z"/>
	<path d="M142.445,82.004h3.566l3.485,14.062l7.539-14.062h3.934l-10.427,19.478h-3.269L142.445,82.004z"/>
	<path d="M163.473,82.004h3.577l-2.729,19.478h-3.51L163.473,82.004z"/>
	<path d="M187.81,84.526l-2.661,2.468c-0.574-0.661-1.275-1.17-2.105-1.528c-0.83-0.357-1.73-0.536-2.701-0.536
		c-1.359,0-2.661,0.349-3.906,1.045c-1.244,0.697-2.213,1.619-2.906,2.765c-0.693,1.147-1.039,2.368-1.039,3.665
		c0,1.764,0.609,3.229,1.827,4.398s2.78,1.753,4.688,1.753c2.039,0,3.805-0.591,5.296-1.774l2.158,2.847
		c-2.216,1.562-4.779,2.343-7.692,2.343c-2.048,0-3.789-0.388-5.224-1.165s-2.587-1.917-3.456-3.423
		c-0.87-1.505-1.305-3.136-1.305-4.893c0-1.88,0.515-3.683,1.543-5.409s2.421-3.085,4.178-4.079
		c1.756-0.993,3.672-1.489,5.746-1.489C183.162,81.514,185.683,82.518,187.81,84.526z"/>
	<path d="M192.127,82.004h10.474l-0.449,3.456h-6.796l-0.559,4.025h6.832l-0.445,3.429h-6.862l-0.717,5.164h6.908l-0.441,3.403
		h-10.606L192.127,82.004z"/>
</g>
</svg>
