<?xml version="1.0" encoding="utf-8"?>
<!-- Generator: Adobe Illustrator 16.0.0, SVG Export Plug-In . SVG Version: 6.00 Build 0)  -->
<!DOCTYPE svg PUBLIC "-//W3C//DTD SVG 1.1//EN" "http://www.w3.org/Graphics/SVG/1.1/DTD/svg11.dtd">
<svg version="1.1" id="Layer_1" xmlns="http://www.w3.org/2000/svg" xmlns:xlink="http://www.w3.org/1999/xlink" x="0px" y="0px"
	 width="300px" height="300px" viewBox="0 0 300 300" enable-background="new 0 0 300 300" xml:space="preserve">
<g>
	<rect x="10.613" y="11.637" fill="#FFFFFF" width="278.387" height="276.726"/>
	
		<rect x="10.613" y="11.637" fill="none" stroke="#70737F" stroke-width="3" stroke-miterlimit="10" width="278.387" height="276.726"/>
</g>
<rect x="28.306" y="27.632" fill="none" stroke="#404459" stroke-width="2" stroke-miterlimit="10" width="241.387" height="6.912"/>
<g>
	<path d="M46.913,47.431h2.452c1.489,0,2.54,0.13,3.152,0.39c0.757,0.323,1.332,0.773,1.723,1.349
		c0.391,0.577,0.587,1.251,0.587,2.024c0,0.849-0.229,1.617-0.688,2.304c-0.458,0.687-1.073,1.188-1.844,1.501
		c-0.771,0.313-2.054,0.483-3.849,0.508l-0.811,5.9h-2.632L46.913,47.431z M48.767,53.037c1.423-0.006,2.352-0.155,2.787-0.447
		c0.434-0.291,0.651-0.725,0.651-1.302c0-0.323-0.084-0.595-0.254-0.817s-0.42-0.377-0.753-0.465
		c-0.333-0.089-0.992-0.133-1.977-0.133L48.767,53.037z"/>
	<path d="M57.944,47.431h2.427c1.499,0,2.553,0.13,3.164,0.39c0.762,0.323,1.336,0.771,1.724,1.344s0.581,1.252,0.581,2.037
		c0,0.969-0.288,1.8-0.863,2.493c-0.575,0.693-1.444,1.176-2.607,1.448l3.043,6.265h-2.717l-2.983-6.1h-0.215l-0.839,6.1h-2.624
		L57.944,47.431z M59.811,53.018c1.42-0.006,2.344-0.153,2.773-0.442c0.428-0.288,0.643-0.72,0.643-1.297
		c0-0.329-0.086-0.605-0.258-0.827s-0.42-0.377-0.745-0.465c-0.325-0.089-0.984-0.133-1.978-0.133L59.811,53.018z"/>
	<path d="M68.918,47.431h7.516l-0.322,2.48h-4.877l-0.401,2.888h4.902l-0.319,2.461h-4.924l-0.514,3.706h4.958l-0.317,2.442h-7.61
		L68.918,47.431z"/>
	<path d="M86.296,49.378l-1.91,1.691c-0.785-1.013-1.517-1.52-2.195-1.52c-0.335,0-0.614,0.1-0.836,0.299
		c-0.222,0.2-0.333,0.439-0.333,0.718c0,0.26,0.101,0.548,0.304,0.864c0.203,0.317,0.817,1.017,1.843,2.1
		c0.544,0.576,0.902,0.985,1.073,1.226c0.412,0.558,0.708,1.078,0.889,1.563c0.181,0.484,0.271,0.977,0.271,1.478
		c0,1.121-0.399,2.062-1.197,2.822c-0.798,0.76-1.821,1.14-3.069,1.14c-1.9,0-3.449-0.903-4.646-2.708l2.014-1.625
		c0.811,1.235,1.688,1.853,2.632,1.853c0.45,0,0.828-0.146,1.136-0.437c0.307-0.291,0.46-0.643,0.46-1.055
		c0-0.323-0.093-0.652-0.28-0.988c-0.187-0.336-0.72-0.969-1.601-1.9c-0.931-0.982-1.542-1.723-1.834-2.224
		c-0.393-0.678-0.589-1.343-0.589-1.995c0-0.861,0.282-1.634,0.846-2.318c0.709-0.855,1.666-1.283,2.869-1.283
		C83.797,47.079,85.181,47.846,86.296,49.378z"/>
	<path d="M89.156,47.431h7.516l-0.322,2.48h-4.877l-0.401,2.888h4.902l-0.319,2.461H90.73l-0.514,3.706h4.958l-0.317,2.442h-7.61
		L89.156,47.431z"/>
	<path d="M99.435,47.431h2.29l5.041,9.501l1.298-9.501h2.561l-1.9,13.977h-2.241l-5.107-9.606l-1.313,9.606h-2.519L99.435,47.431z"
		/>
	<path d="M112.016,47.431h8.532l-0.304,2.489h-2.913l-1.569,11.487h-2.605l1.57-11.487h-3.033L112.016,47.431z"/>
	<path d="M126.757,47.431h2.214l3.482,13.977h-2.546l-0.741-2.974h-5.545l-1.59,2.974h-2.822L126.757,47.431z M128.521,55.963
		l-1.118-4.603l-2.461,4.603H128.521z"/>
	<path d="M134.582,47.431h8.532l-0.304,2.489h-2.913l-1.569,11.487h-2.605l1.57-11.487h-3.033L134.582,47.431z"/>
	<path d="M144.463,47.431h2.566l-1.958,13.977h-2.519L144.463,47.431z"/>
	<path d="M156.425,47.079c1.919,0,3.503,0.618,4.75,1.853c1.248,1.235,1.872,2.803,1.872,4.703c0,1.457-0.369,2.83-1.106,4.119
		c-0.738,1.289-1.72,2.279-2.945,2.969s-2.634,1.036-4.224,1.036c-1.989,0-3.577-0.589-4.765-1.767s-1.781-2.73-1.781-4.656
		c0-2.186,0.709-4.063,2.128-5.634C151.937,47.953,153.961,47.079,156.425,47.079z M156.33,49.559c-1.001,0-1.915,0.242-2.741,0.727
		c-0.827,0.484-1.493,1.181-2,2.09c-0.507,0.909-0.76,1.848-0.76,2.817c0,1.146,0.351,2.119,1.054,2.917
		c0.703,0.798,1.714,1.197,3.031,1.197c1.526,0,2.823-0.539,3.891-1.615c1.067-1.077,1.601-2.385,1.601-3.924
		c0-1.273-0.375-2.293-1.125-3.06C158.529,49.942,157.546,49.559,156.33,49.559z"/>
	<path d="M166.353,47.431h2.289l5.041,9.501l1.298-9.501h2.561l-1.9,13.977h-2.241l-5.106-9.606l-1.313,9.606h-2.519L166.353,47.431
		z"/>
	<path d="M186.202,47.431h2.215c2.076,0,3.621,0.246,4.634,0.736c1.013,0.491,1.836,1.262,2.471,2.313
		c0.634,1.052,0.951,2.265,0.951,3.639c0,1.413-0.337,2.709-1.012,3.891c-0.675,1.181-1.525,2.042-2.551,2.584
		c-1.026,0.542-2.452,0.813-4.276,0.813h-4.342L186.202,47.431z M188.504,49.892l-1.23,9.074h0.864c1.328,0,2.29-0.111,2.885-0.333
		c0.835-0.316,1.506-0.858,2.012-1.625c0.506-0.767,0.759-1.713,0.759-2.841c0-0.924-0.178-1.699-0.533-2.323
		c-0.356-0.624-0.858-1.105-1.507-1.444s-1.511-0.508-2.588-0.508H188.504z"/>
	<path d="M199.656,47.431h7.515l-0.321,2.48h-4.877l-0.4,2.888h4.902l-0.319,2.461h-4.925l-0.515,3.706h4.958l-0.317,2.442h-7.61
		L199.656,47.431z"/>
	<path d="M217.034,49.378l-1.91,1.691c-0.785-1.013-1.517-1.52-2.194-1.52c-0.336,0-0.615,0.1-0.837,0.299
		c-0.222,0.2-0.332,0.439-0.332,0.718c0,0.26,0.102,0.548,0.304,0.864c0.203,0.317,0.817,1.017,1.844,2.1
		c0.545,0.576,0.902,0.985,1.073,1.226c0.412,0.558,0.708,1.078,0.889,1.563c0.181,0.484,0.271,0.977,0.271,1.478
		c0,1.121-0.398,2.062-1.197,2.822c-0.798,0.76-1.821,1.14-3.068,1.14c-1.9,0-3.449-0.903-4.646-2.708l2.015-1.625
		c0.811,1.235,1.688,1.853,2.632,1.853c0.449,0,0.828-0.146,1.135-0.437c0.308-0.291,0.461-0.643,0.461-1.055
		c0-0.323-0.094-0.652-0.28-0.988c-0.187-0.336-0.721-0.969-1.601-1.9c-0.932-0.982-1.543-1.723-1.834-2.224
		c-0.393-0.678-0.589-1.343-0.589-1.995c0-0.861,0.281-1.634,0.846-2.318c0.709-0.855,1.666-1.283,2.869-1.283
		C214.535,47.079,215.919,47.846,217.034,49.378z"/>
	<path d="M219.95,47.431h2.566l-1.958,13.977h-2.519L219.95,47.431z"/>
	<path d="M237.575,50.041l-2.186,1.419c-0.633-0.722-1.244-1.224-1.834-1.506c-0.589-0.282-1.257-0.423-2.004-0.423
		c-1.615,0-2.93,0.649-3.943,1.948c-0.805,1.032-1.207,2.179-1.207,3.439c0,1.241,0.413,2.283,1.24,3.126
		c0.826,0.842,1.845,1.264,3.055,1.264c0.899,0,1.718-0.218,2.456-0.653c0.737-0.436,1.341-1.089,1.81-1.96h-4.36l0.322-2.479h7.069
		c-0.102,2.312-0.825,4.147-2.171,5.506c-1.347,1.359-3.062,2.038-5.146,2.038c-2.268,0-4.051-0.785-5.349-2.356
		c-1.045-1.26-1.568-2.762-1.568-4.503c0-2.122,0.766-3.956,2.295-5.501c1.53-1.545,3.353-2.318,5.468-2.318
		c0.786,0,1.552,0.114,2.3,0.343c0.747,0.229,1.422,0.549,2.023,0.962S237.024,49.349,237.575,50.041z"/>
	<path d="M241.841,47.431h2.289l5.041,9.501l1.298-9.501h2.561l-1.9,13.977h-2.241l-5.106-9.606l-1.313,9.606h-2.519L241.841,47.431
		z"/>
	<path d="M120.72,72.729l-1.91,1.691c-0.785-1.013-1.517-1.52-2.195-1.52c-0.335,0-0.614,0.1-0.836,0.299
		c-0.222,0.2-0.333,0.439-0.333,0.718c0,0.26,0.101,0.548,0.304,0.864c0.203,0.317,0.817,1.017,1.843,2.1
		c0.544,0.576,0.902,0.985,1.073,1.226c0.412,0.558,0.708,1.078,0.889,1.563c0.181,0.484,0.271,0.977,0.271,1.478
		c0,1.121-0.399,2.062-1.197,2.822c-0.798,0.76-1.821,1.14-3.069,1.14c-1.9,0-3.449-0.903-4.646-2.708l2.014-1.625
		c0.811,1.235,1.688,1.853,2.632,1.853c0.45,0,0.828-0.146,1.136-0.437c0.307-0.291,0.46-0.643,0.46-1.055
		c0-0.323-0.093-0.652-0.28-0.988c-0.187-0.336-0.72-0.969-1.601-1.9c-0.931-0.982-1.542-1.723-1.834-2.224
		c-0.393-0.678-0.589-1.343-0.589-1.995c0-0.861,0.282-1.634,0.846-2.318c0.709-0.855,1.666-1.283,2.869-1.283
		C118.221,70.43,119.604,71.196,120.72,72.729z"/>
	<path d="M123.579,70.781h7.516l-0.322,2.48h-4.877l-0.401,2.888h4.902l-0.319,2.461h-4.924l-0.514,3.706h4.958l-0.317,2.442h-7.61
		L123.579,70.781z"/>
	<path d="M134.012,70.781h2.427c1.499,0,2.553,0.13,3.164,0.39c0.762,0.323,1.336,0.771,1.724,1.344s0.581,1.252,0.581,2.037
		c0,0.969-0.288,1.8-0.863,2.493c-0.575,0.693-1.444,1.176-2.607,1.448l3.043,6.265h-2.717l-2.983-6.1h-0.215l-0.839,6.1h-2.624
		L134.012,70.781z M135.879,76.368c1.42-0.006,2.344-0.153,2.773-0.442c0.428-0.288,0.643-0.72,0.643-1.297
		c0-0.329-0.086-0.605-0.258-0.827s-0.42-0.377-0.745-0.465c-0.325-0.089-0.984-0.133-1.978-0.133L135.879,76.368z"/>
	<path d="M143.579,70.781h2.559l2.501,10.09l5.409-10.09h2.823l-7.482,13.977h-2.346L143.579,70.781z"/>
	<path d="M158.668,70.781h2.566l-1.958,13.977h-2.519L158.668,70.781z"/>
	<path d="M176.131,72.591l-1.91,1.771c-0.412-0.475-0.915-0.84-1.511-1.096s-1.241-0.384-1.938-0.384
		c-0.976,0-1.909,0.25-2.803,0.75c-0.894,0.5-1.588,1.162-2.086,1.984c-0.497,0.823-0.745,1.699-0.745,2.629
		c0,1.266,0.437,2.318,1.311,3.156s1.995,1.258,3.364,1.258c1.463,0,2.729-0.424,3.8-1.273l1.549,2.043
		c-1.59,1.121-3.43,1.682-5.521,1.682c-1.469,0-2.719-0.279-3.748-0.836c-1.029-0.558-1.855-1.376-2.479-2.456
		c-0.624-1.08-0.937-2.25-0.937-3.511c0-1.35,0.369-2.643,1.107-3.881c0.737-1.238,1.737-2.214,2.998-2.927
		c1.26-0.712,2.635-1.069,4.123-1.069C172.796,70.43,174.604,71.15,176.131,72.591z"/>
	<path d="M179.229,70.781h7.515l-0.321,2.48h-4.877l-0.4,2.888h4.902l-0.319,2.461h-4.925l-0.515,3.706h4.958l-0.317,2.442h-7.61
		L179.229,70.781z"/>
</g>
<path fill="none" stroke="#414042" stroke-width="4" stroke-miterlimit="10" d="M210.535,242.856
	c0,13.333-8.97,24.144-20.034,24.144h-80.136c-11.064,0-20.034-10.811-20.034-24.144V136.143c0-13.333,8.97-24.143,20.034-24.143
	h80.136c11.064,0,20.034,10.81,20.034,24.143V242.856z"/>
<g>
	<path d="M133.95,124.071h2.792c1.695,0,2.892,0.148,3.588,0.443c0.862,0.368,1.516,0.88,1.961,1.536
		c0.446,0.656,0.668,1.424,0.668,2.304c0,0.966-0.261,1.84-0.783,2.623c-0.521,0.783-1.221,1.352-2.099,1.709
		s-2.338,0.55-4.382,0.579l-0.923,6.717h-2.997L133.95,124.071z M136.061,130.452c1.62-0.007,2.677-0.177,3.172-0.508
		c0.494-0.332,0.742-0.826,0.742-1.482c0-0.368-0.096-0.678-0.289-0.93c-0.193-0.252-0.479-0.429-0.857-0.53
		s-1.128-0.151-2.25-0.151L136.061,130.452z"/>
	<path d="M146.355,124.071h2.792c1.695,0,2.892,0.148,3.588,0.443c0.862,0.368,1.516,0.88,1.962,1.536
		c0.445,0.656,0.668,1.424,0.668,2.304c0,0.966-0.261,1.84-0.782,2.623c-0.522,0.783-1.222,1.352-2.1,1.709s-2.338,0.55-4.382,0.579
		l-0.923,6.717h-2.997L146.355,124.071z M148.466,130.452c1.62-0.007,2.677-0.177,3.172-0.508c0.494-0.332,0.741-0.826,0.741-1.482
		c0-0.368-0.097-0.678-0.289-0.93c-0.193-0.252-0.479-0.429-0.857-0.53c-0.378-0.101-1.128-0.151-2.25-0.151L148.466,130.452z"/>
	<path d="M156.674,124.071h9.713l-0.347,2.833h-3.316l-1.786,13.077h-2.966l1.787-13.077h-3.453L156.674,124.071z"/>
	<path d="M167.35,136.649c0.497,0,0.925,0.177,1.281,0.53c0.356,0.354,0.535,0.782,0.535,1.287c0,0.498-0.179,0.925-0.535,1.282
		s-0.784,0.535-1.281,0.535c-0.505,0-0.935-0.178-1.287-0.535c-0.354-0.357-0.53-0.784-0.53-1.282c0-0.505,0.177-0.934,0.53-1.287
		C166.415,136.827,166.845,136.649,167.35,136.649z"/>
</g>
<line fill="none" stroke="#414042" stroke-width="4" stroke-linecap="round" stroke-miterlimit="10" x1="199.594" y1="156.056" x2="102.14" y2="156.056"/>
<line fill="none" stroke="#414042" stroke-width="4" stroke-linecap="round" stroke-miterlimit="10" x1="199.594" y1="169.16" x2="102.14" y2="169.16"/>
<line fill="none" stroke="#414042" stroke-width="4" stroke-linecap="round" stroke-miterlimit="10" x1="199.594" y1="182.266" x2="102.14" y2="182.266"/>
<line fill="none" stroke="#414042" stroke-width="4" stroke-linecap="round" stroke-miterlimit="10" x1="199.594" y1="195.37" x2="102.14" y2="195.37"/>
<line fill="none" stroke="#414042" stroke-width="4" stroke-linecap="round" stroke-miterlimit="10" x1="199.594" y1="208.476" x2="102.14" y2="208.476"/>
<line fill="none" stroke="#414042" stroke-width="4" stroke-linecap="round" stroke-miterlimit="10" x1="199.594" y1="221.58" x2="102.14" y2="221.58"/>
<line fill="none" stroke="#414042" stroke-width="4" stroke-linecap="round" stroke-miterlimit="10" x1="199.594" y1="234.686" x2="102.14" y2="234.686"/>
<line fill="none" stroke="#414042" stroke-width="4" stroke-linecap="round" stroke-miterlimit="10" x1="199.594" y1="247.79" x2="102.14" y2="247.79"/>
</svg>
