<?xml version="1.0" encoding="utf-8"?>
<!-- Generator: Adobe Illustrator 16.0.0, SVG Export Plug-In . SVG Version: 6.00 Build 0)  -->
<!DOCTYPE svg PUBLIC "-//W3C//DTD SVG 1.1//EN" "http://www.w3.org/Graphics/SVG/1.1/DTD/svg11.dtd">
<svg version="1.1" id="Layer_1" xmlns="http://www.w3.org/2000/svg" xmlns:xlink="http://www.w3.org/1999/xlink" x="0px" y="0px"
	 width="300px" height="300px" viewBox="0 0 300 300" enable-background="new 0 0 300 300" xml:space="preserve">
<g>
	<rect x="10.613" y="11.637" fill="#FFFFFF" width="278.387" height="276.726"/>
	
		<rect x="10.613" y="11.637" fill="none" stroke="#70737F" stroke-width="3" stroke-miterlimit="10" width="278.387" height="276.726"/>
</g>
<rect x="27.75" y="27.632" fill="none" stroke="#404459" stroke-width="2" stroke-miterlimit="10" width="241.387" height="6.912"/>
<g>
	<path fill="none" stroke="#404459" stroke-width="2" stroke-miterlimit="10" d="M188.834,267.167c0,5.521-4.006,10-8.945,10
		h-66.435c-4.94,0-8.945-4.479-8.945-10V121.833c0-5.523,4.005-10,8.945-10h66.435c4.939,0,8.945,4.477,8.945,10V267.167z"/>
	<path fill="none" stroke="#404459" stroke-width="2" stroke-miterlimit="10" d="M188.834,261.56c0,5.121-4.006,9.273-8.945,9.273
		h-66.435c-4.94,0-8.945-4.152-8.945-9.273V126.774c0-5.122,4.005-9.274,8.945-9.274h66.435c4.939,0,8.945,4.152,8.945,9.274V261.56
		z"/>
</g>
<g>
	<path d="M44.027,47.191l-1.63,1.443c-0.67-0.865-1.294-1.297-1.873-1.297c-0.287,0-0.524,0.085-0.713,0.255
		c-0.189,0.17-0.284,0.375-0.284,0.612c0,0.222,0.086,0.467,0.26,0.738c0.173,0.271,0.697,0.868,1.573,1.792
		c0.465,0.492,0.77,0.841,0.916,1.046c0.352,0.476,0.604,0.92,0.758,1.334c0.154,0.414,0.231,0.834,0.231,1.261
		c0,0.957-0.34,1.76-1.021,2.409c-0.681,0.648-1.554,0.973-2.619,0.973c-1.622,0-2.944-0.77-3.965-2.311l1.719-1.387
		c0.692,1.054,1.44,1.581,2.246,1.581c0.384,0,0.707-0.124,0.969-0.373c0.262-0.249,0.394-0.548,0.394-0.9
		c0-0.276-0.08-0.557-0.239-0.843c-0.16-0.287-0.615-0.827-1.367-1.622c-0.794-0.838-1.316-1.47-1.565-1.897
		c-0.335-0.578-0.502-1.146-0.502-1.703c0-0.735,0.24-1.395,0.722-1.979c0.605-0.73,1.421-1.095,2.449-1.095
		C41.895,45.229,43.076,45.883,44.027,47.191z"/>
	<path d="M52.079,45.229c1.638,0,2.99,0.527,4.055,1.581s1.597,2.392,1.597,4.014c0,1.243-0.315,2.415-0.944,3.515
		c-0.63,1.1-1.468,1.945-2.514,2.534c-1.046,0.589-2.248,0.884-3.604,0.884c-1.698,0-3.053-0.502-4.066-1.508
		c-1.014-1.006-1.521-2.33-1.521-3.974c0-1.865,0.605-3.468,1.816-4.809C48.249,45.975,49.977,45.229,52.079,45.229z M51.998,47.345
		c-0.854,0-1.634,0.207-2.339,0.621c-0.705,0.414-1.274,1.008-1.707,1.784c-0.433,0.776-0.649,1.577-0.649,2.404
		c0,0.979,0.3,1.808,0.9,2.489s1.462,1.022,2.587,1.022c1.303,0,2.41-0.459,3.32-1.378c0.911-0.919,1.367-2.036,1.367-3.349
		c0-1.086-0.32-1.957-0.961-2.611C53.875,47.672,53.036,47.345,51.998,47.345z"/>
	<path d="M70.722,47.073l-1.63,1.512c-0.352-0.405-0.781-0.717-1.29-0.936c-0.508-0.218-1.06-0.328-1.654-0.328
		c-0.833,0-1.63,0.213-2.392,0.64s-1.356,0.991-1.78,1.693s-0.636,1.45-0.636,2.244c0,1.08,0.373,1.978,1.119,2.694
		c0.746,0.715,1.703,1.073,2.871,1.073c1.249,0,2.33-0.362,3.244-1.086l1.322,1.743c-1.357,0.957-2.927,1.435-4.711,1.435
		c-1.254,0-2.32-0.238-3.199-0.713s-1.584-1.174-2.116-2.096c-0.533-0.921-0.799-1.92-0.799-2.996c0-1.151,0.315-2.255,0.944-3.313
		c0.63-1.057,1.483-1.889,2.559-2.498c1.076-0.608,2.249-0.912,3.519-0.912C67.875,45.229,69.419,45.844,70.722,47.073z"/>
	<path d="M73.414,45.529h2.19l-1.671,11.928h-2.149L73.414,45.529z"/>
	<path d="M82.208,45.529h1.889l2.972,11.928h-2.173l-0.632-2.538h-4.732l-1.357,2.538h-2.409L82.208,45.529z M83.713,52.811
		l-0.954-3.928l-2.101,3.928H83.713z"/>
	<path d="M90.458,45.529h2.253l-1.366,9.876h3.702l-0.259,2.052h-5.96L90.458,45.529z"/>
	<path d="M103.234,45.529h2.03l2.024,8.312l4.123-8.312h1.93l0.162,11.928h-2.092l-0.097-7.136l-3.54,7.136h-1.71l-1.817-7.493
		l-1.904,7.493h-2.141L103.234,45.529z"/>
	<path d="M117.193,45.529h6.414l-0.275,2.117h-4.162l-0.342,2.465h4.184l-0.272,2.1h-4.203l-0.439,3.163h4.231l-0.271,2.084h-6.495
		L117.193,45.529z"/>
	<path d="M125.975,45.529h1.891c1.772,0,3.09,0.21,3.955,0.628c0.864,0.419,1.567,1.077,2.108,1.975
		c0.542,0.897,0.812,1.933,0.812,3.106c0,1.206-0.288,2.312-0.863,3.32s-1.302,1.744-2.177,2.206
		c-0.876,0.462-2.092,0.693-3.649,0.693h-3.706L125.975,45.529z M127.939,47.629l-1.05,7.744h0.737c1.134,0,1.955-0.095,2.462-0.284
		c0.712-0.271,1.285-0.732,1.717-1.387c0.432-0.654,0.648-1.462,0.648-2.424c0-0.79-0.152-1.45-0.456-1.983
		c-0.303-0.532-0.732-0.943-1.286-1.232c-0.553-0.289-1.29-0.434-2.208-0.434H127.939z"/>
	<path d="M137.506,45.529h2.19l-1.671,11.928h-2.149L137.506,45.529z"/>
	<path d="M146.3,45.529h1.889l2.971,11.928h-2.173l-0.632-2.538h-4.732l-1.357,2.538h-2.409L146.3,45.529z M147.805,52.811
		l-0.954-3.928l-2.101,3.928H147.805z"/>
	<path d="M159.181,45.529h1.851c1.126,0,1.963,0.122,2.51,0.365c0.547,0.243,0.988,0.622,1.323,1.135
		c0.336,0.514,0.503,1.067,0.503,1.662c0,0.498-0.118,0.966-0.355,1.407c-0.236,0.441-0.578,0.81-1.025,1.107
		c1.066,0.741,1.6,1.725,1.6,2.952c0,0.638-0.169,1.222-0.507,1.751s-0.755,0.92-1.252,1.172c-0.498,0.251-1.217,0.377-2.157,0.377
		h-4.12L159.181,45.529z M160.097,55.341l1.343,0.048c0.674,0,1.165-0.132,1.472-0.397c0.308-0.265,0.462-0.627,0.462-1.087
		c0-0.335-0.096-0.635-0.286-0.9s-0.443-0.451-0.76-0.56c-0.316-0.108-0.923-0.165-1.818-0.17L160.097,55.341z M160.779,50.265
		h0.401c0.599,0,1.005-0.045,1.219-0.134c0.214-0.089,0.396-0.255,0.546-0.499c0.149-0.243,0.225-0.513,0.225-0.811
		c0-0.276-0.066-0.514-0.199-0.714c-0.133-0.2-0.307-0.335-0.521-0.405c-0.216-0.07-0.652-0.105-1.311-0.105L160.779,50.265z"/>
	<path d="M172.864,45.529h1.889l2.973,11.928h-2.174l-0.632-2.538h-4.732l-1.357,2.538h-2.408L172.864,45.529z M174.369,52.811
		l-0.954-3.928l-2.101,3.928H174.369z"/>
	<path d="M181.09,45.529h1.954l4.302,8.109l1.107-8.109h2.186l-1.622,11.928h-1.912l-4.358-8.198l-1.12,8.198h-2.149L181.09,45.529z
		"/>
	<path d="M193.374,45.529h1.954l4.302,8.109l1.107-8.109h2.186l-1.622,11.928h-1.912l-4.358-8.198l-1.12,8.198h-2.149
		L193.374,45.529z"/>
	<path d="M205.522,45.529h6.414l-0.275,2.117H207.5l-0.343,2.465h4.185l-0.272,2.1h-4.203l-0.438,3.163h4.23l-0.271,2.084h-6.495
		L205.522,45.529z"/>
	<path d="M214.426,45.529h2.071c1.279,0,2.179,0.111,2.7,0.333c0.65,0.275,1.141,0.658,1.471,1.147
		c0.331,0.489,0.496,1.068,0.496,1.738c0,0.827-0.246,1.536-0.736,2.128c-0.491,0.591-1.232,1.003-2.226,1.236l2.597,5.347h-2.319
		l-2.546-5.206h-0.184l-0.715,5.206h-2.239L214.426,45.529z M216.02,50.297c1.212-0.005,2-0.131,2.366-0.377
		c0.365-0.246,0.548-0.615,0.548-1.107c0-0.281-0.073-0.516-0.22-0.706c-0.146-0.189-0.358-0.321-0.636-0.397
		s-0.84-0.114-1.688-0.114L216.02,50.297z"/>
	<path d="M229.987,47.191l-1.63,1.443c-0.671-0.865-1.295-1.297-1.873-1.297c-0.287,0-0.524,0.085-0.714,0.255
		s-0.284,0.375-0.284,0.612c0,0.222,0.087,0.467,0.26,0.738s0.697,0.868,1.573,1.792c0.465,0.492,0.771,0.841,0.916,1.046
		c0.352,0.476,0.604,0.92,0.758,1.334c0.154,0.414,0.231,0.834,0.231,1.261c0,0.957-0.341,1.76-1.021,2.409
		c-0.682,0.648-1.555,0.973-2.619,0.973c-1.622,0-2.943-0.77-3.966-2.311l1.72-1.387c0.691,1.054,1.44,1.581,2.246,1.581
		c0.384,0,0.707-0.124,0.969-0.373c0.263-0.249,0.394-0.548,0.394-0.9c0-0.276-0.08-0.557-0.239-0.843s-0.615-0.827-1.366-1.622
		c-0.795-0.838-1.316-1.47-1.565-1.897c-0.335-0.578-0.503-1.146-0.503-1.703c0-0.735,0.241-1.395,0.722-1.979
		c0.605-0.73,1.422-1.095,2.449-1.095C227.854,45.229,229.035,45.883,229.987,47.191z"/>
	<path d="M241.271,45.529h1.889l2.973,11.928h-2.174l-0.632-2.538h-4.732l-1.357,2.538h-2.408L241.271,45.529z M242.775,52.811
		l-0.954-3.928l-2.101,3.928H242.775z"/>
	<path d="M249.504,45.529h1.891c1.772,0,3.09,0.21,3.955,0.628c0.864,0.419,1.566,1.077,2.108,1.975
		c0.541,0.897,0.812,1.933,0.812,3.106c0,1.206-0.288,2.312-0.863,3.32c-0.576,1.008-1.302,1.744-2.178,2.206
		c-0.875,0.462-2.092,0.693-3.648,0.693h-3.706L249.504,45.529z M251.469,47.629l-1.05,7.744h0.737c1.134,0,1.954-0.095,2.462-0.284
		c0.713-0.271,1.285-0.732,1.717-1.387c0.432-0.654,0.648-1.462,0.648-2.424c0-0.79-0.152-1.45-0.456-1.983
		c-0.304-0.532-0.732-0.943-1.285-1.232c-0.554-0.289-1.29-0.434-2.209-0.434H251.469z"/>
	<path d="M119.666,65.457h1.891c1.772,0,3.09,0.21,3.955,0.628c0.864,0.419,1.567,1.077,2.108,1.975
		c0.542,0.897,0.812,1.933,0.812,3.106c0,1.206-0.288,2.312-0.863,3.32s-1.302,1.744-2.177,2.206
		c-0.876,0.462-2.092,0.693-3.649,0.693h-3.706L119.666,65.457z M121.631,67.558l-1.05,7.744h0.737c1.134,0,1.955-0.095,2.462-0.284
		c0.712-0.271,1.285-0.732,1.717-1.387c0.432-0.654,0.648-1.462,0.648-2.424c0-0.79-0.152-1.45-0.456-1.983
		c-0.303-0.532-0.732-0.943-1.286-1.232c-0.553-0.289-1.29-0.434-2.208-0.434H121.631z"/>
	<path d="M131.148,65.457h6.414l-0.275,2.117h-4.162l-0.342,2.465h4.184l-0.272,2.1h-4.203l-0.439,3.163h4.231l-0.271,2.084h-6.495
		L131.148,65.457z"/>
	<path d="M145.979,67.12l-1.63,1.443c-0.67-0.865-1.294-1.297-1.873-1.297c-0.287,0-0.524,0.085-0.713,0.255
		c-0.189,0.17-0.284,0.375-0.284,0.612c0,0.222,0.086,0.467,0.26,0.738c0.173,0.271,0.697,0.868,1.573,1.792
		c0.465,0.492,0.77,0.841,0.916,1.046c0.352,0.476,0.604,0.92,0.758,1.334c0.154,0.414,0.231,0.834,0.231,1.261
		c0,0.957-0.34,1.76-1.021,2.409c-0.681,0.648-1.554,0.973-2.619,0.973c-1.622,0-2.944-0.77-3.965-2.311l1.719-1.387
		c0.692,1.054,1.44,1.581,2.246,1.581c0.384,0,0.707-0.124,0.969-0.373c0.262-0.249,0.394-0.548,0.394-0.9
		c0-0.276-0.08-0.557-0.239-0.843c-0.16-0.287-0.615-0.827-1.367-1.622c-0.794-0.838-1.316-1.47-1.565-1.897
		c-0.335-0.578-0.502-1.146-0.502-1.703c0-0.735,0.24-1.395,0.722-1.979c0.605-0.73,1.421-1.095,2.449-1.095
		C143.847,65.157,145.027,65.812,145.979,67.12z"/>
	<path d="M148.469,65.457h2.19l-1.671,11.928h-2.149L148.469,65.457z"/>
	<path d="M163.511,67.685l-1.865,1.211c-0.541-0.616-1.063-1.045-1.565-1.286c-0.503-0.24-1.073-0.361-1.711-0.361
		c-1.379,0-2.5,0.554-3.365,1.663c-0.687,0.881-1.03,1.86-1.03,2.936c0,1.06,0.354,1.949,1.059,2.667
		c0.705,0.719,1.574,1.079,2.607,1.079c0.768,0,1.466-0.186,2.096-0.558s1.145-0.929,1.545-1.672h-3.722l0.275-2.116h6.033
		c-0.087,1.973-0.704,3.54-1.853,4.699c-1.149,1.16-2.613,1.739-4.392,1.739c-1.936,0-3.457-0.67-4.565-2.011
		c-0.892-1.076-1.338-2.357-1.338-3.844c0-1.811,0.653-3.376,1.958-4.695c1.306-1.319,2.861-1.979,4.667-1.979
		c0.671,0,1.324,0.098,1.963,0.292c0.638,0.195,1.213,0.469,1.727,0.821S163.04,67.094,163.511,67.685z"/>
	<path d="M167.15,65.457h1.954l4.302,8.109l1.107-8.109h2.186l-1.622,11.928h-1.912l-4.358-8.198l-1.12,8.198h-2.149L167.15,65.457z
		"/>
</g>
<g>
	<path fill="#3C2415" d="M115.77,160.797h4.201l-0.199,1.529h-2.569l-0.258,1.781h2.597l-0.197,1.518h-2.598l-0.524,3.791h-1.63
		L115.77,160.797z"/>
	<path fill="#3C2415" d="M124.55,160.797h1.365l2.147,8.619h-1.57l-0.457-1.834h-3.419l-0.98,1.834h-1.741L124.55,160.797z
		 M125.637,166.059l-0.689-2.839l-1.518,2.839H125.637z"/>
	<path fill="#3C2415" d="M137.842,161.913l-1.178,1.092c-0.254-0.293-0.564-0.518-0.932-0.676s-0.766-0.237-1.195-0.237
		c-0.602,0-1.178,0.154-1.729,0.463c-0.551,0.308-0.979,0.716-1.286,1.223c-0.307,0.508-0.46,1.048-0.46,1.622
		c0,0.78,0.27,1.429,0.809,1.946c0.539,0.517,1.23,0.775,2.074,0.775c0.902,0,1.684-0.262,2.344-0.785l0.955,1.26
		c-0.98,0.691-2.115,1.037-3.404,1.037c-0.906,0-1.677-0.172-2.312-0.516s-1.145-0.849-1.529-1.515s-0.577-1.388-0.577-2.165
		c0-0.832,0.228-1.63,0.683-2.394s1.071-1.365,1.849-1.805s1.625-0.659,2.543-0.659C135.785,160.58,136.9,161.024,137.842,161.913z"
		/>
	<path fill="#3C2415" d="M139.752,160.797h4.635l-0.198,1.529h-3.008l-0.247,1.781h3.023l-0.197,1.518h-3.037l-0.317,2.285h3.057
		l-0.195,1.506h-4.693L139.752,160.797z"/>
	<path fill="#3C2415" d="M146.098,160.797h1.337c0.814,0,1.419,0.088,1.814,0.264c0.396,0.176,0.714,0.449,0.957,0.82
		s0.363,0.771,0.363,1.201c0,0.359-0.085,0.698-0.257,1.017s-0.418,0.585-0.741,0.8c0.771,0.535,1.156,1.246,1.156,2.133
		c0,0.461-0.122,0.883-0.366,1.266s-0.546,0.665-0.905,0.847s-0.879,0.272-1.559,0.272h-2.977L146.098,160.797z M146.76,167.887
		l0.97,0.035c0.487,0,0.842-0.096,1.064-0.287s0.333-0.453,0.333-0.785c0-0.242-0.069-0.459-0.207-0.65
		c-0.137-0.191-0.32-0.326-0.549-0.404c-0.229-0.078-0.666-0.119-1.313-0.123L146.76,167.887z M147.253,164.219h0.29
		c0.433,0,0.727-0.032,0.881-0.097c0.155-0.064,0.286-0.185,0.395-0.36c0.108-0.176,0.162-0.371,0.162-0.586
		c0-0.199-0.048-0.371-0.144-0.516c-0.096-0.145-0.222-0.242-0.377-0.293s-0.471-0.076-0.947-0.076L147.253,164.219z"/>
	<path fill="#3C2415" d="M157.008,160.58c1.184,0,2.16,0.381,2.93,1.143s1.154,1.729,1.154,2.9c0,0.898-0.228,1.745-0.683,2.54
		s-1.061,1.405-1.816,1.831s-1.624,0.639-2.604,0.639c-1.227,0-2.206-0.363-2.938-1.09s-1.099-1.684-1.099-2.871
		c0-1.348,0.438-2.506,1.313-3.475C154.24,161.119,155.488,160.58,157.008,160.58z M156.949,162.109
		c-0.617,0-1.181,0.149-1.69,0.448s-0.921,0.729-1.233,1.289s-0.469,1.14-0.469,1.737c0,0.707,0.217,1.307,0.65,1.799
		s1.057,0.738,1.869,0.738c0.941,0,1.741-0.332,2.399-0.996s0.987-1.471,0.987-2.42c0-0.785-0.231-1.414-0.694-1.887
		S157.699,162.109,156.949,162.109z"/>
	<path fill="#3C2415" d="M167.086,160.58c1.184,0,2.16,0.381,2.93,1.143s1.154,1.729,1.154,2.9c0,0.898-0.228,1.745-0.683,2.54
		s-1.061,1.405-1.816,1.831s-1.624,0.639-2.604,0.639c-1.227,0-2.206-0.363-2.938-1.09s-1.099-1.684-1.099-2.871
		c0-1.348,0.438-2.506,1.313-3.475C164.318,161.119,165.566,160.58,167.086,160.58z M167.027,162.109
		c-0.617,0-1.181,0.149-1.69,0.448s-0.921,0.729-1.233,1.289s-0.469,1.14-0.469,1.737c0,0.707,0.217,1.307,0.65,1.799
		s1.057,0.738,1.869,0.738c0.941,0,1.741-0.332,2.399-0.996s0.987-1.471,0.987-2.42c0-0.785-0.231-1.414-0.694-1.887
		S167.777,162.109,167.027,162.109z"/>
	<path fill="#3C2415" d="M173.238,160.797h1.624l-0.402,2.899l2.749-2.899h2.009l-3.757,3.938l2.968,4.681h-1.81l-2.422-3.82
		l-0.53,3.82h-1.606L173.238,160.797z"/>
</g>
<g>
	<path fill="#3C2415" d="M125.897,177.297h5.262l-0.188,1.535h-1.796l-0.968,7.084h-1.606l0.968-7.084h-1.87L125.897,177.297z"/>
	<path fill="#3C2415" d="M131.247,177.297h1.478l0.5,5.584l2.635-5.584h1.219l1.027,5.438l1.918-5.438h1.565l-3.051,8.619h-1.323
		l-1.084-5.707l-2.693,5.707h-1.41L131.247,177.297z"/>
	<path fill="#3C2415" d="M142.79,177.297h1.583l-1.208,8.619h-1.553L142.79,177.297z"/>
	<path fill="#3C2415" d="M145.093,177.297h5.262l-0.188,1.535h-1.796l-0.968,7.084h-1.606l0.968-7.084h-1.87L145.093,177.297z"/>
	<path fill="#3C2415" d="M150.132,177.297h5.262l-0.188,1.535h-1.796l-0.969,7.084h-1.606l0.968-7.084h-1.87L150.132,177.297z"/>
	<path fill="#3C2415" d="M156.19,177.297h4.635l-0.198,1.529h-3.008l-0.247,1.781h3.023l-0.197,1.518h-3.036l-0.318,2.285h3.058
		l-0.195,1.506h-4.693L156.19,177.297z"/>
	<path fill="#3C2415" d="M162.624,177.297h1.497c0.924,0,1.574,0.08,1.951,0.24c0.47,0.199,0.824,0.475,1.063,0.828
		s0.358,0.772,0.358,1.257c0,0.598-0.177,1.109-0.532,1.537c-0.354,0.428-0.891,0.726-1.607,0.894l1.876,3.863h-1.676l-1.84-3.762
		h-0.132l-0.518,3.762h-1.618L162.624,177.297z M163.775,180.742c0.876-0.004,1.445-0.095,1.71-0.272s0.396-0.444,0.396-0.8
		c0-0.203-0.054-0.373-0.159-0.51s-0.259-0.232-0.459-0.287c-0.201-0.055-0.607-0.082-1.221-0.082L163.775,180.742z"/>
</g>
<g>
	<path fill="#3C2415" d="M113.637,193.797h1.583l-1.208,8.619h-1.553L113.637,193.797z"/>
	<path fill="#3C2415" d="M117.058,193.797h1.412l3.108,5.859l0.801-5.859h1.579l-1.172,8.619h-1.382l-3.149-5.924l-0.81,5.924
		h-1.553L117.058,193.797z"/>
	<path fill="#3C2415" d="M130.313,194.998l-1.178,1.043c-0.484-0.625-0.936-0.938-1.354-0.938c-0.207,0-0.379,0.062-0.516,0.185
		s-0.205,0.271-0.205,0.442c0,0.16,0.063,0.338,0.188,0.533s0.504,0.627,1.137,1.295c0.336,0.355,0.557,0.607,0.662,0.756
		c0.254,0.344,0.437,0.665,0.548,0.964s0.167,0.603,0.167,0.911c0,0.691-0.246,1.271-0.738,1.74s-1.123,0.703-1.893,0.703
		c-1.172,0-2.127-0.557-2.865-1.67l1.242-1.002c0.5,0.762,1.041,1.143,1.623,1.143c0.277,0,0.511-0.09,0.7-0.27
		s0.284-0.396,0.284-0.65c0-0.199-0.058-0.402-0.173-0.609s-0.444-0.598-0.987-1.172c-0.574-0.605-0.951-1.063-1.131-1.371
		c-0.242-0.418-0.363-0.828-0.363-1.23c0-0.531,0.174-1.008,0.521-1.43c0.438-0.527,1.027-0.791,1.77-0.791
		C128.771,193.58,129.625,194.053,130.313,194.998z"/>
	<path fill="#3C2415" d="M131.057,193.797h5.262l-0.188,1.535h-1.796l-0.968,7.084h-1.606l0.968-7.084h-1.87L131.057,193.797z"/>
	<path fill="#3C2415" d="M140.147,193.797h1.365l2.147,8.619h-1.57l-0.457-1.834h-3.419l-0.98,1.834h-1.741L140.147,193.797z
		 M141.235,199.059l-0.689-2.839l-1.518,2.839H141.235z"/>
	<path fill="#3C2415" d="M153.539,195.406l-1.348,0.875c-0.391-0.445-0.768-0.755-1.131-0.929s-0.775-0.261-1.236-0.261
		c-0.996,0-1.807,0.4-2.432,1.201c-0.496,0.637-0.744,1.344-0.744,2.121c0,0.766,0.255,1.408,0.765,1.928s1.138,0.779,1.884,0.779
		c0.555,0,1.06-0.134,1.515-0.402s0.827-0.672,1.116-1.209h-2.689l0.199-1.529h4.359c-0.063,1.426-0.509,2.558-1.339,3.396
		s-1.888,1.257-3.173,1.257c-1.398,0-2.498-0.484-3.299-1.453c-0.645-0.777-0.967-1.703-0.967-2.777
		c0-1.309,0.472-2.439,1.415-3.393s2.067-1.43,3.372-1.43c0.484,0,0.957,0.07,1.418,0.211c0.461,0.142,0.877,0.339,1.248,0.594
		C152.844,194.639,153.199,194.979,153.539,195.406z"/>
	<path fill="#3C2415" d="M156.264,193.797h1.497c0.924,0,1.574,0.08,1.95,0.24c0.471,0.199,0.824,0.475,1.063,0.828
		s0.358,0.772,0.358,1.257c0,0.598-0.178,1.109-0.532,1.537s-0.891,0.726-1.608,0.894l1.877,3.863h-1.676l-1.84-3.762h-0.133
		l-0.517,3.762h-1.618L156.264,193.797z M157.415,197.242c0.876-0.004,1.446-0.095,1.71-0.272s0.396-0.444,0.396-0.8
		c0-0.203-0.053-0.373-0.159-0.51s-0.259-0.232-0.46-0.287c-0.199-0.055-0.606-0.082-1.219-0.082L157.415,197.242z"/>
	<path fill="#3C2415" d="M166.063,193.797h1.365l2.147,8.619h-1.57l-0.457-1.834h-3.42l-0.98,1.834h-1.74L166.063,193.797z
		 M167.15,199.059l-0.688-2.839l-1.519,2.839H167.15z"/>
	<path fill="#3C2415" d="M172.62,193.797h1.468l1.462,6.006l2.979-6.006h1.395l0.117,8.619h-1.512l-0.07-5.156l-2.559,5.156h-1.234
		l-1.313-5.414l-1.376,5.414h-1.547L172.62,193.797z"/>
</g>
<g>
	<path fill="#3C2415" d="M121.028,210.297h1.467l1.462,6.006l2.979-6.006h1.395l0.117,8.619h-1.512l-0.07-5.156l-2.558,5.156h-1.235
		l-1.313-5.414l-1.375,5.414h-1.547L121.028,210.297z"/>
	<path fill="#3C2415" d="M130.02,210.297h1.64l1.343,3.451l2.449-3.451h1.857l-3.679,5.174l-0.463,3.445h-1.617l0.475-3.445
		L130.02,210.297z"/>
	<path fill="#3C2415" d="M143.033,211.498l-1.178,1.043c-0.484-0.625-0.936-0.938-1.354-0.938c-0.207,0-0.379,0.062-0.516,0.185
		s-0.205,0.271-0.205,0.442c0,0.16,0.063,0.338,0.188,0.533s0.504,0.627,1.137,1.295c0.336,0.355,0.557,0.607,0.662,0.756
		c0.254,0.344,0.437,0.665,0.548,0.964s0.167,0.603,0.167,0.911c0,0.691-0.246,1.271-0.738,1.74s-1.123,0.703-1.893,0.703
		c-1.172,0-2.127-0.557-2.865-1.67l1.242-1.002c0.5,0.762,1.041,1.143,1.623,1.143c0.277,0,0.511-0.09,0.7-0.27
		s0.284-0.396,0.284-0.65c0-0.199-0.058-0.402-0.173-0.609s-0.444-0.598-0.987-1.172c-0.574-0.605-0.951-1.063-1.131-1.371
		c-0.242-0.418-0.363-0.828-0.363-1.23c0-0.531,0.174-1.008,0.521-1.43c0.438-0.527,1.027-0.791,1.77-0.791
		C141.492,210.08,142.346,210.553,143.033,211.498z"/>
	<path fill="#3C2415" d="M144.908,210.297h1.512c0.918,0,1.566,0.08,1.944,0.24c0.467,0.199,0.821,0.477,1.063,0.832
		c0.241,0.355,0.362,0.771,0.362,1.248c0,0.523-0.142,0.997-0.424,1.421c-0.283,0.424-0.662,0.732-1.137,0.926
		s-1.267,0.298-2.374,0.313l-0.5,3.639h-1.624L144.908,210.297z M146.052,213.754c0.877-0.004,1.45-0.096,1.718-0.275
		s0.402-0.447,0.402-0.803c0-0.199-0.052-0.367-0.157-0.504s-0.259-0.232-0.464-0.287s-0.611-0.082-1.219-0.082L146.052,213.754z"/>
	<path fill="#3C2415" d="M154.55,210.297h1.365l2.147,8.619h-1.57l-0.457-1.834h-3.42l-0.98,1.834h-1.74L154.55,210.297z
		 M155.637,215.559l-0.688-2.839l-1.519,2.839H155.637z"/>
	<path fill="#3C2415" d="M167.842,211.413l-1.178,1.092c-0.254-0.293-0.564-0.518-0.932-0.676s-0.766-0.237-1.195-0.237
		c-0.602,0-1.178,0.154-1.729,0.463c-0.551,0.308-0.979,0.716-1.286,1.223c-0.307,0.508-0.46,1.048-0.46,1.622
		c0,0.78,0.27,1.429,0.809,1.946c0.539,0.517,1.23,0.775,2.074,0.775c0.902,0,1.684-0.262,2.344-0.785l0.955,1.26
		c-0.98,0.691-2.115,1.037-3.404,1.037c-0.906,0-1.677-0.172-2.312-0.516s-1.145-0.849-1.529-1.515s-0.577-1.388-0.577-2.165
		c0-0.832,0.228-1.63,0.683-2.394s1.071-1.365,1.849-1.805s1.625-0.659,2.543-0.659C165.785,210.08,166.9,210.524,167.842,211.413z"
		/>
	<path fill="#3C2415" d="M169.752,210.297h4.635l-0.198,1.529h-3.008l-0.247,1.781h3.023l-0.197,1.518h-3.037l-0.316,2.285h3.057
		l-0.195,1.506h-4.693L169.752,210.297z"/>
</g>
</svg>
