<?xml version="1.0" encoding="utf-8"?>
<!-- Generator: Adobe Illustrator 16.0.0, SVG Export Plug-In . SVG Version: 6.00 Build 0)  -->
<!DOCTYPE svg PUBLIC "-//W3C//DTD SVG 1.1//EN" "http://www.w3.org/Graphics/SVG/1.1/DTD/svg11.dtd">
<svg version="1.1" id="Layer_1" xmlns="http://www.w3.org/2000/svg" xmlns:xlink="http://www.w3.org/1999/xlink" x="0px" y="0px"
	 width="300px" height="300px" viewBox="0 0 300 300" enable-background="new 0 0 300 300" xml:space="preserve">
<g>
	<rect x="10.613" y="11.637" fill="#FFFFFF" width="278.387" height="276.726"/>
	
		<rect x="10.613" y="11.637" fill="none" stroke="#70737F" stroke-width="3" stroke-miterlimit="10" width="278.387" height="276.726"/>
</g>
<rect x="32.624" y="29.796" fill="none" stroke="#404459" stroke-width="2" stroke-miterlimit="10" width="238.461" height="6.912"/>
<g>
	<path fill="#404459" d="M41.951,55.496l-2.534,2.244c-1.042-1.345-2.013-2.017-2.913-2.017c-0.446,0-0.815,0.132-1.109,0.397
		c-0.294,0.265-0.441,0.582-0.441,0.952c0,0.345,0.134,0.727,0.403,1.147c0.269,0.42,1.084,1.349,2.446,2.787
		c0.723,0.765,1.197,1.307,1.424,1.626c0.546,0.74,0.939,1.431,1.179,2.074c0.24,0.643,0.359,1.297,0.359,1.96
		c0,1.488-0.529,2.736-1.588,3.745s-2.417,1.513-4.072,1.513c-2.521,0-4.577-1.198-6.165-3.593l2.673-2.156
		c1.076,1.639,2.24,2.458,3.492,2.458c0.597,0,1.099-0.193,1.506-0.58c0.408-0.386,0.612-0.853,0.612-1.399
		c0-0.429-0.124-0.865-0.372-1.311c-0.248-0.445-0.956-1.286-2.125-2.521c-1.235-1.303-2.046-2.286-2.433-2.95
		c-0.521-0.899-0.782-1.782-0.782-2.647c0-1.143,0.374-2.169,1.122-3.077c0.941-1.134,2.21-1.702,3.808-1.702
		C38.636,52.445,40.472,53.462,41.951,55.496z"/>
	<path fill="#404459" d="M43.553,52.912h11.322l-0.404,3.303h-3.865l-2.083,15.243h-3.457l2.083-15.243h-4.024L43.553,52.912z"/>
	<path fill="#404459" d="M63.114,52.912h2.938l4.621,18.546h-3.379l-0.983-3.946h-7.358l-2.11,3.946h-3.745L63.114,52.912z
		 M65.454,64.233l-1.482-6.108l-3.267,6.108H65.454z"/>
	<path fill="#404459" d="M73.496,52.912h11.322l-0.404,3.303h-3.865l-2.083,15.243h-3.457l2.083-15.243h-4.024L73.496,52.912z"/>
	<path fill="#404459" d="M86.608,52.912h3.405l-2.598,18.546h-3.342L86.608,52.912z"/>
	<path fill="#404459" d="M102.48,52.445c2.547,0,4.648,0.819,6.304,2.458c1.656,1.639,2.483,3.719,2.483,6.241
		c0,1.933-0.49,3.755-1.469,5.465s-2.282,3.024-3.908,3.94s-3.495,1.374-5.604,1.374c-2.64,0-4.747-0.782-6.323-2.345
		c-1.576-1.563-2.364-3.623-2.364-6.178c0-2.9,0.941-5.392,2.824-7.477C96.525,53.605,99.211,52.445,102.48,52.445z M102.354,55.736
		c-1.328,0-2.541,0.321-3.637,0.964s-1.981,1.568-2.654,2.774c-0.673,1.206-1.009,2.452-1.009,3.738
		c0,1.521,0.466,2.812,1.399,3.871s2.273,1.589,4.022,1.589c2.025,0,3.747-0.714,5.163-2.144c1.417-1.429,2.125-3.165,2.125-5.207
		c0-1.689-0.498-3.042-1.494-4.06C105.273,56.244,103.968,55.736,102.354,55.736z"/>
	<path fill="#404459" d="M115.654,52.912h3.039l6.688,12.608l1.723-12.608h3.397l-2.521,18.546h-2.974l-6.776-12.747l-1.742,12.747
		h-3.343L115.654,52.912z"/>
	<path fill="#404459" d="M134.542,52.912h9.973l-0.427,3.291h-6.471l-0.532,3.833h6.505l-0.423,3.265h-6.535l-0.683,4.917h6.579
		l-0.421,3.24h-10.099L134.542,52.912z"/>
	<path fill="#404459" d="M148.386,52.912h3.221c1.988,0,3.388,0.172,4.198,0.517c1.011,0.429,1.773,1.023,2.287,1.783
		c0.514,0.761,0.771,1.661,0.771,2.703c0,1.286-0.382,2.388-1.145,3.308c-0.764,0.92-1.917,1.561-3.46,1.922l4.037,8.313h-3.605
		l-3.959-8.094h-0.285l-1.112,8.094h-3.481L148.386,52.912z M150.863,60.325c1.884-0.008,3.11-0.204,3.679-0.586
		c0.569-0.382,0.854-0.956,0.854-1.721c0-0.437-0.114-0.802-0.342-1.097c-0.229-0.294-0.559-0.5-0.989-0.618
		s-1.306-0.177-2.624-0.177L150.863,60.325z"/>
	<path fill="#404459" d="M160.59,52.912h3.527l2.89,7.426l5.271-7.426h3.995l-7.916,11.133l-0.996,7.413h-3.479l1.021-7.413
		L160.59,52.912z"/>
	<path fill="#404459" d="M186.41,52.912h2.939c2.755,0,4.804,0.326,6.148,0.977c1.344,0.651,2.437,1.675,3.278,3.07
		c0.842,1.396,1.263,3.005,1.263,4.829c0,1.874-0.448,3.595-1.343,5.163c-0.896,1.568-2.023,2.711-3.386,3.429
		c-1.361,0.719-3.253,1.078-5.673,1.078h-5.762L186.41,52.912z M189.465,56.177l-1.633,12.041h1.146
		c1.763,0,3.039-0.147,3.828-0.441c1.107-0.42,1.998-1.139,2.669-2.156c0.672-1.017,1.008-2.273,1.008-3.77
		c0-1.227-0.236-2.255-0.708-3.083c-0.473-0.828-1.139-1.467-1.999-1.917c-0.861-0.45-2.006-0.675-3.435-0.675H189.465z"/>
	<path fill="#404459" d="M204.263,52.912h9.973l-0.427,3.291h-6.472l-0.531,3.833h6.505l-0.424,3.265h-6.534l-0.683,4.917h6.578
		l-0.421,3.24h-10.099L204.263,52.912z"/>
	<path fill="#404459" d="M227.322,55.496l-2.534,2.244c-1.043-1.345-2.014-2.017-2.912-2.017c-0.446,0-0.815,0.132-1.11,0.397
		c-0.294,0.265-0.44,0.582-0.44,0.952c0,0.345,0.134,0.727,0.403,1.147c0.269,0.42,1.084,1.349,2.445,2.787
		c0.723,0.765,1.198,1.307,1.425,1.626c0.547,0.74,0.939,1.431,1.179,2.074c0.24,0.643,0.359,1.297,0.359,1.96
		c0,1.488-0.529,2.736-1.589,3.745c-1.059,1.009-2.416,1.513-4.072,1.513c-2.521,0-4.576-1.198-6.165-3.593l2.673-2.156
		c1.076,1.639,2.24,2.458,3.492,2.458c0.597,0,1.1-0.193,1.507-0.58c0.408-0.386,0.611-0.853,0.611-1.399
		c0-0.429-0.124-0.865-0.371-1.311c-0.248-0.445-0.957-1.286-2.125-2.521c-1.235-1.303-2.047-2.286-2.434-2.95
		c-0.521-0.899-0.781-1.782-0.781-2.647c0-1.143,0.374-2.169,1.122-3.077c0.941-1.134,2.211-1.702,3.808-1.702
		C224.006,52.445,225.843,53.462,227.322,55.496z"/>
	<path fill="#404459" d="M231.193,52.912h3.405l-2.598,18.546h-3.342L231.193,52.912z"/>
	<path fill="#404459" d="M254.58,56.375l-2.9,1.883c-0.84-0.958-1.651-1.625-2.433-1.999c-0.782-0.374-1.669-0.561-2.66-0.561
		c-2.144,0-3.888,0.862-5.232,2.585c-1.067,1.37-1.602,2.891-1.602,4.564c0,1.647,0.549,3.03,1.646,4.148
		c1.097,1.118,2.448,1.677,4.054,1.677c1.193,0,2.279-0.289,3.259-0.867c0.979-0.578,1.779-1.444,2.401-2.6h-5.786l0.429-3.291h9.38
		c-0.135,3.068-1.095,5.503-2.881,7.306s-4.063,2.704-6.827,2.704c-3.009,0-5.375-1.042-7.099-3.126
		c-1.387-1.672-2.08-3.665-2.08-5.976c0-2.816,1.015-5.249,3.045-7.3s4.448-3.076,7.256-3.076c1.042,0,2.059,0.151,3.051,0.455
		s1.887,0.729,2.686,1.276S253.849,55.457,254.58,56.375z"/>
	<path fill="#404459" d="M260.239,52.912h3.039l6.688,12.608l1.723-12.608h3.397l-2.521,18.546h-2.974l-6.776-12.747l-1.741,12.747
		h-3.343L260.239,52.912z"/>
	<path fill="#404459" d="M108.292,86.481l-2.534,2.244c-1.042-1.345-2.013-2.017-2.913-2.017c-0.446,0-0.815,0.132-1.109,0.397
		c-0.294,0.265-0.441,0.582-0.441,0.952c0,0.345,0.134,0.727,0.403,1.147c0.269,0.42,1.084,1.349,2.446,2.787
		c0.723,0.765,1.197,1.307,1.424,1.626c0.546,0.74,0.939,1.431,1.179,2.074c0.24,0.643,0.359,1.297,0.359,1.96
		c0,1.488-0.529,2.736-1.588,3.745s-2.417,1.513-4.072,1.513c-2.521,0-4.577-1.198-6.165-3.593l2.673-2.156
		c1.076,1.639,2.24,2.458,3.492,2.458c0.597,0,1.099-0.193,1.506-0.58c0.408-0.386,0.612-0.853,0.612-1.399
		c0-0.429-0.124-0.865-0.372-1.311c-0.248-0.445-0.956-1.286-2.125-2.521c-1.235-1.303-2.046-2.286-2.433-2.95
		c-0.521-0.899-0.782-1.782-0.782-2.647c0-1.143,0.374-2.169,1.122-3.077c0.941-1.134,2.21-1.702,3.808-1.702
		C104.977,83.43,106.813,84.447,108.292,86.481z"/>
	<path fill="#404459" d="M112.088,83.896h9.973l-0.427,3.291h-6.471l-0.532,3.833h6.505l-0.423,3.265h-6.535l-0.683,4.917h6.579
		l-0.421,3.24h-10.099L112.088,83.896z"/>
	<path fill="#404459" d="M125.931,83.896h3.221c1.988,0,3.388,0.172,4.198,0.517c1.011,0.429,1.773,1.023,2.287,1.783
		c0.514,0.761,0.771,1.661,0.771,2.703c0,1.286-0.382,2.388-1.145,3.308c-0.764,0.92-1.917,1.561-3.46,1.922l4.038,8.313h-3.606
		l-3.959-8.094h-0.285l-1.113,8.094h-3.481L125.931,83.896z M128.409,91.31c1.884-0.008,3.111-0.204,3.679-0.586
		s0.853-0.956,0.853-1.721c0-0.437-0.114-0.802-0.342-1.097c-0.228-0.294-0.558-0.5-0.989-0.618s-1.306-0.177-2.624-0.177
		L128.409,91.31z"/>
	<path fill="#404459" d="M138.626,83.896h3.395l3.319,13.389l7.178-13.389h3.745l-9.928,18.546h-3.112L138.626,83.896z"/>
	<path fill="#404459" d="M158.648,83.896h3.405l-2.598,18.546h-3.342L158.648,83.896z"/>
	<path fill="#404459" d="M181.82,86.298l-2.534,2.35c-0.546-0.629-1.215-1.114-2.004-1.455c-0.791-0.34-1.647-0.51-2.572-0.51
		c-1.295,0-2.534,0.332-3.72,0.995c-1.185,0.664-2.107,1.541-2.767,2.632c-0.66,1.092-0.99,2.255-0.99,3.489
		c0,1.679,0.58,3.075,1.74,4.188c1.159,1.112,2.647,1.669,4.463,1.669c1.941,0,3.622-0.563,5.043-1.689l2.055,2.71
		c-2.109,1.488-4.551,2.231-7.324,2.231c-1.95,0-3.608-0.37-4.975-1.109c-1.365-0.739-2.463-1.826-3.29-3.259
		c-0.828-1.433-1.242-2.986-1.242-4.659c0-1.791,0.489-3.507,1.469-5.15c0.979-1.643,2.306-2.938,3.978-3.883
		c1.673-0.945,3.497-1.418,5.472-1.418C177.396,83.43,179.795,84.386,181.82,86.298z"/>
	<path fill="#404459" d="M185.931,83.896h9.973l-0.427,3.291h-6.472l-0.531,3.833h6.505l-0.424,3.265h-6.534l-0.683,4.917h6.578
		l-0.421,3.24h-10.099L185.931,83.896z"/>
	<path fill="#404459" d="M208.99,86.481l-2.534,2.244c-1.043-1.345-2.014-2.017-2.912-2.017c-0.446,0-0.815,0.132-1.11,0.397
		c-0.294,0.265-0.44,0.582-0.44,0.952c0,0.345,0.134,0.727,0.403,1.147c0.269,0.42,1.084,1.349,2.445,2.787
		c0.723,0.765,1.198,1.307,1.425,1.626c0.547,0.74,0.939,1.431,1.179,2.074c0.24,0.643,0.359,1.297,0.359,1.96
		c0,1.488-0.529,2.736-1.589,3.745c-1.059,1.009-2.416,1.513-4.072,1.513c-2.521,0-4.576-1.198-6.165-3.593l2.673-2.156
		c1.076,1.639,2.24,2.458,3.492,2.458c0.597,0,1.1-0.193,1.507-0.58c0.408-0.386,0.611-0.853,0.611-1.399
		c0-0.429-0.124-0.865-0.371-1.311c-0.248-0.445-0.957-1.286-2.125-2.521c-1.235-1.303-2.047-2.286-2.434-2.95
		c-0.521-0.899-0.781-1.782-0.781-2.647c0-1.143,0.374-2.169,1.122-3.077c0.941-1.134,2.211-1.702,3.808-1.702
		C205.674,83.43,207.511,84.447,208.99,86.481z"/>
</g>
<rect x="30.148" y="191.109" transform="matrix(0.97 -0.2433 0.2433 0.97 -50.7428 27.953)" fill="none" stroke="#404459" stroke-width="2" stroke-miterlimit="10" width="115.334" height="56.667"/>
<rect x="31.114" y="204.917" transform="matrix(0.97 -0.2433 0.2433 0.97 -49.1856 22.4359)" fill="none" stroke="#404459" stroke-width="2" stroke-miterlimit="10" width="70.279" height="10.924"/>
<rect x="159.855" y="135.215" transform="matrix(0.97 -0.2432 0.2432 0.97 -28.3624 51.6575)" fill="none" stroke="#404459" stroke-width="2" stroke-miterlimit="10" width="70.279" height="10.923"/>
<rect x="183.855" y="218.763" transform="matrix(0.97 -0.2433 0.2433 0.97 -47.9657 60.0067)" fill="none" stroke="#404459" stroke-width="2" stroke-miterlimit="10" width="70.279" height="10.924"/>
<rect x="150.371" y="124.947" transform="matrix(0.97 -0.2433 0.2433 0.97 -38.8946 56.1845)" fill="none" stroke="#404459" stroke-width="2" stroke-miterlimit="10" width="115.335" height="121.252"/>
</svg>
